<?xml version="1.0" standalone="no"?>
<!DOCTYPE svg PUBLIC "-//W3C//DTD SVG 1.1//EN" "http://www.w3.org/Graphics/SVG/1.1/DTD/svg11.dtd" >
<svg>
<metadata>
Created by FontForge 20110222 at Fri Aug  8 06:34:23 2014
 By Orthosie Webhosting
Copyright (c) Masterfont Studio Rosenberg 2005, All Rights Reserved. Version 1.0.  Programed and generated by Marzel A.S. -- Jerusalem. 
</metadata>
<defs>
<font id="MFDavidRegular" horiz-adv-x="341" >
  <font-face 
    font-family="MFDavidRegular"
    font-weight="400"
    font-stretch="normal"
    units-per-em="1000"
    panose-1="2 4 6 3 5 2 1 2 2 3"
    ascent="800"
    descent="-200"
    x-height="459"
    cap-height="680"
    bbox="-138 -327 1157 906"
    underline-thickness="50"
    underline-position="-50"
    unicode-range="U+0020-FFFC"
  />
<missing-glyph horiz-adv-x="777" 
d="M138 0v625h500v-625h-500zM154 16h468v593h-468v-593z" />
    <glyph glyph-name=".notdef" horiz-adv-x="777" 
d="M138 0v625h500v-625h-500zM154 16h468v593h-468v-593z" />
    <glyph glyph-name=".null" horiz-adv-x="0" 
 />
    <glyph glyph-name="nonmarkingreturn" horiz-adv-x="250" 
 />
    <glyph glyph-name="space" unicode=" " horiz-adv-x="267" 
 />
    <glyph glyph-name="space" unicode="&#xa0;" horiz-adv-x="267" 
 />
    <glyph glyph-name="exclam" unicode="!" horiz-adv-x="285" 
d="M197 345q0 -58 -63 -172q2 14 2.5 37t1.5 56q1 44 -37 141l75 93q21 -120 21 -155zM208 45l-53 -54l-54 54l54 54z" />
    <glyph glyph-name="quotedbl" unicode="&#x22;" horiz-adv-x="380" 
d="M338 500q0 -33 -97 -220h-14q37 107 37 160q0 21 -32 65l69 71q37 -43 37 -76zM166 499q0 -29 -98 -220h-13q36 106 36 160q0 22 -31 65l69 71q37 -46 37 -76z" />
    <glyph glyph-name="numbersign" unicode="#" horiz-adv-x="660" 
d="M527 350l-17 -37h-81l-34 -72h83l-16 -37h-84l-33 -75h-39l32 75h-78l-34 -75h-40l34 75h-82l16 37h82l33 72h-83l17 37h83l33 75h40l-34 -75h80l34 75h39l-33 -75h82zM388 313h-80l-32 -72h79z" />
    <glyph glyph-name="dollar" unicode="$" horiz-adv-x="418" 
d="M376 155q0 -78 -34 -115t-112 -45v-41l-29 -24v65q-92 0 -155 33l43 75q59 -41 113 -41v177q-123 64 -123 184q0 56 38 91q36 31 90 33v44l26 27v-71q61 0 142 -31l-44 -62q-44 27 -99 27v-175l64 -33q80 -44 80 -118zM205 481q-92 0 -92 -60q0 -56 92 -101v161zM338 115
q0 22 -11 41q-9 15 -97 69v-163q6 -1 12 -1.5t12 -0.5q83 0 84 55z" />
    <glyph glyph-name="percent" unicode="%" horiz-adv-x="700" 
d="M639 189q0 -50 -14 -109q-12 -47 -24 -63q-20 -24 -60 -24q-125 -1 -127 139q-1 137 65 196q16 8 44 8q116 2 116 -147zM507 557l-260 -548l-52 -18l253 547zM273 386q0 -47 -10 -96q-14 -67 -34 -84t-54 -17q-125 -1 -127 139q-1 138 66 196q18 8 44 8q115 0 115 -146z
M610 134q0 45 -26 92t-61 47q-32 0 -54 -12q-15 -35 -15 -65q0 -151 98 -151q19 0 34 9q24 24 24 80zM245 330q1 40 -22 87q-26 51 -65 53q-28 1 -55 -13q-15 -33 -15 -64q0 -151 99 -151q19 0 33 8q23 25 25 80z" />
    <glyph glyph-name="ampersand" unicode="&#x26;" horiz-adv-x="680" 
d="M675 90q0 -29 -50 -71q-38 -32 -85 -32q-76 0 -153 83q-101 -83 -200 -83q-69 0 -109 37t-40 106q0 70 58 127q36 36 118 83q-32 93 -32 128q0 58 39 99q41 41 99 41q52 0 87.5 -28.5t35.5 -79.5q0 -57 -45 -97q-29 -26 -96 -57q50 -100 119 -186q83 104 83 164
q0 24 -18 33q-12 5 -40 8v18h195v-18q-32 -5 -45 -12q-23 -13 -40 -42q-19 -34 -47 -77.5t-66 -98.5q16 -32 57 -57q41 -26 76 -26q30 0 50 12q6 4 15 13.5t21 23.5zM394 504q0 32 -19 54t-51 22q-70 0 -70 -78q0 -52 36 -128q104 59 104 130zM364 94q-61 74 -137 216
q-23 -16 -41.5 -31t-31.5 -30q-33 -38 -33 -87q0 -51 33 -88q35 -38 84 -38q59 0 126 58z" />
    <glyph glyph-name="quotesingle" unicode="'" horiz-adv-x="200" 
d="M151 501q1 -28 -97 -220h-14q36 103 36 160q0 25 -32 65l70 71q35 -44 37 -76z" />
    <glyph glyph-name="parenleft" unicode="(" horiz-adv-x="250" 
d="M244 567q-32 -44 -55 -84t-37 -77q-32 -83 -34 -181q-1 -115 93 -230l-62 -89q-53 83 -72 133q-14 35 -21 72t-8 75q-1 68 26 173q14 53 29 94.5t32 72.5z" />
    <glyph glyph-name="parenright" unicode=")" horiz-adv-x="250" 
d="M210 296q1 -61 -27 -172q-14 -56 -28 -97t-28 -69l-112 -42q69 89 96 160q28 76 30 181q1 116 -94 230l62 89q28 -48 45.5 -81t25.5 -53q29 -71 30 -146z" />
    <glyph glyph-name="asterisk" unicode="*" horiz-adv-x="365" 
d="M210 333l-1 -5l97 -83q-26 -36 -65 -47l-47 119h-4l-48 -118q-38 12 -67 47l100 82l-1 5l-128 7q0 39 25 77l108 -68l5 3l-32 122q16 6 41 6q20 0 38 -7l-30 -121l4 -3l106 66q25 -25 26 -76z" />
    <glyph glyph-name="plus" unicode="+" horiz-adv-x="442" 
d="M402 287l-30 -63h-117v-113l-63 -30v143h-143l30 63h113v114l63 30v-144h147z" />
    <glyph glyph-name="comma" unicode="," horiz-adv-x="200" 
d="M159 40q0 -30 -97 -218h-15q37 99 37 159q0 22 -31 65l69 71q37 -46 37 -77z" />
    <glyph glyph-name="hyphen" unicode="-" horiz-adv-x="440" 
d="M400 284l-28 -56h-323l28 56h323z" />
    <glyph glyph-name="period" unicode="." horiz-adv-x="200" 
d="M161 45l-54 -54l-54 54l54 54z" />
    <glyph glyph-name="slash" unicode="/" horiz-adv-x="418" 
d="M370 477q-35 -63 -68 -122.5t-63 -118.5l-51 -99l-21.5 -43t-19.5 -42l-19 -43l-67 -19q17 32 42.5 79t59.5 111l59 115q22 42 41 83.5t36 84.5z" />
    <glyph glyph-name="zero" unicode="0" horiz-adv-x="430" 
d="M382 281q0 -86 -36 -168q-35 -81 -84 -113q-14 -7 -46 -7q-165 0 -165 288q0 90 33 171q35 81 82 96q11 8 53 8q99 0 138 -95q25 -62 25 -180zM323 271q0 114 -45 177q-22 31 -73 39q-30 0 -60 -11q-26 -118 -28 -195q-1 -106 8 -142q21 -74 99 -76q29 0 67 12
q32 113 32 196z" />
    <glyph glyph-name="one" unicode="1" horiz-adv-x="430" 
d="M373 80l-47 -80h-248l47 80h79v335q0 9 -0.5 15t-4.5 11t-12.5 9t-24.5 9l-56 18q48 32 88.5 53.5t75.5 31.5v-482h103z" />
    <glyph glyph-name="two" unicode="2" horiz-adv-x="430" 
d="M368 80l-33 -80h-275q11 41 25.5 76t33.5 66q13 24 90 129q59 83 59 119q0 81 -110 83q-12 0 -28.5 -1.5t-37.5 -3.5l33 70q13 5 30 7.5t39 3.5q62 1 105 -29q48 -33 48 -94q0 -34 -18 -71q-7 -14 -26.5 -40.5t-53.5 -68.5q-72 -89 -110 -166h229z" />
    <glyph glyph-name="three" unicode="3" horiz-adv-x="430" 
d="M376 200q0 -207 -225 -207q-52 0 -86 23l51 78q51 -25 96 -25q49 0 76 32q24 27 26 79q1 78 -104 78q-13 0 -28 -1.5t-34 -3.5l15 65q85 22 87 93q1 75 -86 77q2 0 -26 -3q-10 -1 -18 -2t-13 -2l33 76q10 3 37 3q156 0 156 -107q0 -43 -29 -77q-16 -18 -66 -53
q36 0 92 -24q46 -31 46 -99z" />
    <glyph glyph-name="four" unicode="4" horiz-adv-x="430" 
d="M420 234l-46 -80h-71v-131l-70 -46v177h-201q0 137 60 238q64 108 190 150q13 5 23 8.5t17 6.5q-1 -3 -2.5 -9.5t-5.5 -16.5q-11 -36 -11 -63v-234h117zM233 234v228q-66 -28 -103 -91q-37 -62 -37 -137h140z" />
    <glyph glyph-name="five" unicode="5" horiz-adv-x="430" 
d="M359 548l-47 -80h-169v-122q31 6 52 6q148 0 149 -151q1 -91 -62 -150q-62 -58 -157 -58q-42 0 -81 16l48 80q45 -19 94 -20q48 -2 81 36q33 37 33 91q0 21 -10.5 38t-28 28.5t-41 17.5t-49.5 6q-35 0 -84 -24v248l56 79v-41h216z" />
    <glyph glyph-name="six" unicode="6" horiz-adv-x="430" 
d="M373 200q1 -81 -46 -145q-47 -62 -120 -62q-74 0 -116 50q-39 46 -39 121q0 42 19 79l140 281l112 47l-174 -276l49 25q34 18 67 18q50 0 81 -46q26 -41 27 -92zM312 160q0 22 -8.5 41t-23.5 32.5t-34.5 21.5t-41.5 8q-34 1 -73 -21q-22 -22 -22 -63q0 -21 8 -41
t23.5 -36t38 -25.5t50.5 -9.5q30 -1 61 13q22 32 22 80z" />
    <glyph glyph-name="seven" unicode="7" horiz-adv-x="430" 
d="M381 548q-8 -41 -24 -72q-5 -10 -18 -30.5t-35 -52.5q-125 -185 -125 -289q0 -7 0.5 -14t1.5 -15l-85 -84q-5 14 -7.5 28t-3.5 28q-1 66 57 163l26 39t72 106q23 33 41 61.5t32 51.5h-269q15 22 26 38t19 26q28 36 54 57v-41h238z" />
    <glyph glyph-name="eight" unicode="8" horiz-adv-x="430" 
d="M373 160q1 -75 -50 -122q-51 -45 -121 -45q-66 0 -104 40.5t-38 106.5q0 64 87 141q-73 58 -74 140q-1 57 35 100q37 43 94 43q66 0 103.5 -38.5t38.5 -104.5q1 -53 -79 -112q106 -49 108 -149zM285 421q0 21 -6.5 40.5t-18 34t-28 23.5t-37.5 9q-33 0 -50.5 -24.5
t-17.5 -59.5q0 -38 12 -56.5t47 -36.5l49 -25q50 62 50 95zM312 140q0 53 -56 85l-75 42q-17 -23 -26 -36.5t-11 -17.5q-18 -30 -20 -61q-1 -43 26 -69t70 -26q37 0 64.5 23t27.5 60z" />
    <glyph glyph-name="nine" unicode="9" horiz-adv-x="430" 
d="M374 384q0 -41 -19 -79l-140 -282l-112 -46l172 276q-70 -43 -115 -43q-46 0 -77 40q-30 40 -30 98q0 78 43 139q48 67 123 67q73 0 115 -49q38 -46 40 -121zM317 369q0 24 -9.5 44.5t-25.5 35.5t-38 23t-47 8q-41 0 -63 -16q-20 -45 -20 -78q0 -48 30 -74t78 -26t77 23
q18 31 18 60z" />
    <glyph glyph-name="colon" unicode=":" horiz-adv-x="210" 
d="M168 240l-54 -54l-53 54l53 53zM168 45l-54 -54l-53 54l53 54z" />
    <glyph glyph-name="semicolon" unicode=";" horiz-adv-x="212" 
d="M169 240l-54 -54l-53 54l53 53zM171 41q0 -32 -97 -219h-13q36 102 36 159q0 22 -32 65l70 71q36 -44 36 -76z" />
    <glyph glyph-name="less" unicode="&#x3c;" horiz-adv-x="438" 
d="M315 -9l-239 235l239 235v-51l-185 -184l185 -184v-51z" />
    <glyph glyph-name="equal" unicode="=" horiz-adv-x="514" 
d="M410 351l-37 -63h-261l33 63h265zM410 224l-37 -63h-261l33 63h265z" />
    <glyph glyph-name="greater" unicode="&#x3e;" horiz-adv-x="438" 
d="M351 231l-239 -235v50l185 185l-185 184v51z" />
    <glyph glyph-name="question" unicode="?" horiz-adv-x="325" 
d="M252 378q0 -32 -33 -69q-32 -37 -32 -47q0 -36 18 -61l-47 -47q-23 23 -23 71q0 27 23 65q25 38 26 51q0 30 -21 45t-52 15q-21 0 -37 -3l51 79l15 2q110 0 112 -101zM218 45l-53 -54l-54 54l54 54z" />
    <glyph glyph-name="at" unicode="@" horiz-adv-x="968" 
d="M928 94q-67 -151 -163 -224q-107 -82 -268 -82q-199 0 -320 130q-116 125 -116 319q0 197 135 328q136 131 341 131q150 0 246 -99q96 -98 96 -256q0 -140 -77 -249q-77 -108 -175 -108q-97 0 -101 76q-1 24 8 69q-63 -74 -87 -95q-58 -50 -103 -50t-70 37q-22 31 -22 82
q0 111 86 235q92 131 195 131q30 0 50 -25.5t25 -59.5l20 65l82 10l-94 -317q-13 -42 -13 -74q0 -50 36 -50q76 0 141 101q65 103 65 226q0 136 -92 231q-90 92 -214 92q-191 0 -314 -130q-120 -126 -120 -311q0 -167 109 -285q114 -124 289 -124q281 0 395 276h30zM585 369
q0 28 -22 50q-23 24 -43 24q-76 0 -142 -122q-58 -109 -58 -203q0 -70 55 -70q71 0 143 117q67 110 67 204z" />
    <glyph glyph-name="A" unicode="A" horiz-adv-x="750" 
d="M742 0h-280v18q74 0 74 43q0 19 -12 46l-51 120h-265l-52 -120q-12 -27 -12 -45q0 -44 79 -44v-18h-217v18q59 0 97 89l253 589h24l249 -589q21 -50 42 -68q24 -21 71 -21v-18zM454 265l-113 274l-118 -274h231z" />
    <glyph glyph-name="B" unicode="B" horiz-adv-x="672" 
d="M621 184q0 -80 -60 -132q-59 -52 -156 -52h-385v18q54 0 75 18.5t21 71.5v464q0 53 -21 71.5t-75 18.5v18h345q100 0 161 -46q63 -47 63 -121q0 -57 -24 -91t-89 -69v-2q67 -11 106 -55.5t39 -111.5zM483 503q0 64 -42 102q-47 41 -136 41q-21 0 -42 -3t-43 -8v-258
q25 -7 131 -7q61 0 96.5 38t35.5 95zM509 180q0 69 -41 110q-46 46 -141 46q-26 0 -52.5 -1.5t-54.5 -5.5v-279q46 -11 113 -11q86 0 133 42q43 37 43 99z" />
    <glyph glyph-name="C" unicode="C" horiz-adv-x="685" 
d="M652 159q-42 -75 -107 -122q-76 -53 -159 -53q-152 0 -253 101t-101 247q0 151 106 257q107 107 251 107q53 0 92 -12q25 -8 51 -22q22 -12 32 -12q11 0 22 13.5t15 32.5h17l17 -231h-24q-10 82 -70 139q-59 58 -135 58q-113 0 -184 -95q-68 -91 -68 -239q0 -140 78 -224
q73 -81 189 -81q119 0 214 146z" />
    <glyph glyph-name="D" unicode="D" horiz-adv-x="737" 
d="M705 346q0 -149 -93 -245q-98 -101 -265 -101h-327v18q54 0 75 18.5t21 71.5v464q0 53 -21 71.5t-75 18.5v18h302q190 0 278 -82q105 -98 105 -252zM583 344q0 127 -72 214q-72 88 -181 88q-48 0 -110 -17v-579q41 -16 110 -16q108 0 179 83q74 88 74 227z" />
    <glyph glyph-name="E" unicode="E" horiz-adv-x="625" 
d="M607 191l-61 -191h-526v18q54 0 75 18.5t21 71.5v464q0 53 -21 71.5t-75 18.5v18h522l8 -162h-18q-14 66 -43 95q-33 33 -97 33h-172v-258h147q102 0 102 88h18v-230h-18q0 108 -100 108h-149v-278q0 -17 12 -29.5t28 -12.5h142q132 0 181 157h24z" />
    <glyph glyph-name="F" unicode="F" horiz-adv-x="552" 
d="M532 518h-18q-14 66 -43 95q-33 33 -97 33h-154v-258h103q102 0 102 88h18v-230h-18q0 108 -100 108h-105v-246q0 -53 21 -71.5t75 -18.5v-18h-296v18q54 0 75 18.5t21 71.5v464q0 53 -21 71.5t-75 18.5v18h504z" />
    <glyph glyph-name="G" unicode="G" horiz-adv-x="758" 
d="M726 345q-39 0 -54 -18.5t-15 -66.5v-210q-111 -66 -271 -66q-152 0 -253 101t-101 247q0 151 106 257q107 107 251 107q70 0 127 -23t60 -23q11 0 22 13.5t15 32.5h17l17 -231h-24q-50 197 -217 197q-113 0 -184 -95q-68 -91 -68 -239q0 -140 78 -224q73 -81 189 -81
q79 0 132 47v190q0 24 -4.5 40.5t-15 26.5t-29 14t-46.5 4v18h268v-18z" />
    <glyph glyph-name="H" unicode="H" horiz-adv-x="751" 
d="M731 0h-296v18q54 0 75 18.5t21 71.5v228h-311v-228q0 -53 21 -71.5t75 -18.5v-18h-296v18q54 0 75 18.5t21 71.5v464q0 53 -21 71.5t-75 18.5v18h296v-18q-54 0 -75 -18.5t-21 -71.5v-202h311v202q0 53 -21 71.5t-75 18.5v18h296v-18q-54 0 -75 -18.5t-21 -71.5v-464
q0 -53 21 -71.5t75 -18.5v-18z" />
    <glyph glyph-name="I" unicode="I" horiz-adv-x="342" 
d="M319 0h-296v18q54 0 75 18.5t21 71.5v464q0 53 -21 71.5t-75 18.5v18h296v-18q-54 0 -75 -18.5t-21 -71.5v-464q0 -53 21 -71.5t75 -18.5v-18z" />
    <glyph glyph-name="J" unicode="J" horiz-adv-x="397" 
d="M387 662q-54 0 -75 -18.5t-21 -71.5v-354q0 -115 -51 -174.5t-139 -59.5q-41 0 -67 19q-30 22 -30 59q0 21 17.5 35.5t37.5 14.5q30 0 44 -24l19 -47q11 -23 31 -23q34 0 34 65v489q0 53 -21 71.5t-75 18.5v18h296v-18z" />
    <glyph glyph-name="K" unicode="K" horiz-adv-x="752" 
d="M761 0h-317v18q48 0 48 36q0 18 -38 56l-234 235v-237q0 -53 21 -71.5t75 -18.5v-18h-296v18q54 0 75 18.5t21 71.5v464q0 53 -21 71.5t-75 18.5v18h296v-18q-54 0 -75 -18.5t-21 -71.5v-193l217 196q46 42 46 63q0 24 -63 24v18h251v-19q-23 0 -42.5 -3.5t-39 -13
t-39.5 -24.5t-44 -37l-202 -189l276 -275q35 -35 59.5 -56t38.5 -29q29 -16 83 -16v-18z" />
    <glyph glyph-name="L" unicode="L" horiz-adv-x="628" 
d="M610 185l-59 -185h-531v18q54 0 75 18.5t21 71.5v464q0 53 -21 71.5t-75 18.5v18h296v-18q-54 0 -75 -18.5t-21 -71.5v-487q0 -21 11.5 -36t27.5 -15h127q154 0 204 156z" />
    <glyph glyph-name="M" unicode="M" horiz-adv-x="926" 
d="M904 0h-296v18q54 0 75 18.5t21 71.5v449h-4l-253 -557h-21l-257 553h-7v-445q0 -53 21 -71.5t75 -18.5v-18h-238v18q54 0 75 18.5t21 71.5v464q0 53 -21 71.5t-75 18.5v18h202l241 -522h5l236 522h200v-18q-54 0 -75 -18.5t-21 -71.5v-464q0 -53 21 -71.5t75 -18.5v-18z
" />
    <glyph glyph-name="N" unicode="N" horiz-adv-x="739" 
d="M722 662q-54 0 -75 -18.5t-21 -71.5v-588h-24l-439 553h-4v-429q0 -53 21 -71.5t75 -18.5v-18h-238v18q54 0 75 18.5t21 71.5v458q0 21 -9 38.5t-24 30.5t-35.5 20t-44.5 7v18h171l405 -497h4v389q0 53 -21 71.5t-75 18.5v18h238v-18z" />
    <glyph glyph-name="O" unicode="O" horiz-adv-x="746" 
d="M714 344q0 -149 -99 -255q-99 -105 -242 -105t-242 105q-99 106 -99 255q0 147 99 249q99 103 242 103t242 -103q99 -102 99 -249zM592 344q0 143 -57 229q-59 89 -162 89q-104 0 -163 -89q-56 -86 -56 -229q0 -145 56 -233q58 -93 163 -93q103 0 162 93q57 88 57 233z
" />
    <glyph glyph-name="P" unicode="P" horiz-adv-x="576" 
d="M544 486q0 -89 -64 -138q-56 -45 -139 -45q-75 0 -121 12v-207q0 -53 21 -71.5t75 -18.5v-18h-296v18q54 0 75 18.5t21 71.5v464q0 53 -21 71.5t-75 18.5v18h292q99 0 164 -50q68 -54 68 -144zM432 479q0 70 -40 116q-41 47 -98 47q-44 0 -74 -10v-279q49 -15 79 -15
q64 0 100 41q33 37 33 100z" />
    <glyph glyph-name="Q" unicode="Q" horiz-adv-x="738" 
d="M706 344q0 -121 -72 -221q-73 -103 -184 -129q23 -74 92 -128q74 -61 160 -61v-18q-126 0 -258 72q-57 31 -100 66t-72 73q-103 28 -172 130q-68 103 -68 216q0 148 97 249q97 103 240 103t240 -103q97 -101 97 -249zM588 344q0 143 -57 229q-59 89 -162 89
q-104 0 -163 -89q-56 -86 -56 -229q0 -145 56 -233q58 -93 163 -93q106 13 162.5 98t56.5 228z" />
    <glyph glyph-name="R" unicode="R" horiz-adv-x="691" 
d="M702 0h-194l-215 320h-73v-212q0 -53 21 -71.5t75 -18.5v-18h-296v18q54 0 75 18.5t21 71.5v464q0 53 -21 71.5t-75 18.5v18h310q107 0 168 -50q56 -47 56 -127q0 -63 -41 -109t-110 -64l145 -213q67 -99 154 -99v-18zM442 499q0 63 -37 104q-37 43 -93 43q-59 0 -92 -13
v-279h60q36 0 65.5 10.5t51 29t33.5 45.5t12 60z" />
    <glyph glyph-name="S" unicode="S" horiz-adv-x="560" 
d="M510 179q0 -82 -59 -138q-63 -57 -168 -57q-52 0 -106 20q-47 18 -62 18q-26 0 -32 -38h-18v230h18q8 -90 70 -142q59 -50 138 -50q53 0 90 31q39 31 39 81q0 68 -94 126l-174 100q-94 66 -94 153q0 78 56 131q56 52 146 52q34 0 85 -16q3 -1 11.5 -4.5t22.5 -9.5
q21 -8 31 -8q14 0 25.5 12.5t11.5 25.5h18v-237h-19q-9 94 -57 146.5t-129 52.5q-53 0 -89 -36q-33 -32 -33 -73q0 -59 96 -117l180 -104q96 -68 96 -149z" />
    <glyph glyph-name="T" unicode="T" horiz-adv-x="590" 
d="M578 518h-18q-14 66 -43 95q-33 33 -97 33h-74v-538q0 -53 21 -71.5t75 -18.5v-18h-296v18q54 0 75 18.5t21 71.5v538h-74q-64 0 -95.5 -31t-44.5 -97h-18l8 162h552z" />
    <glyph glyph-name="U" unicode="U" horiz-adv-x="752" 
d="M743 662q-54 0 -75 -18.5t-21 -71.5v-333q0 -113 -63 -180q-72 -75 -208 -75q-124 0 -196 76q-67 70 -67 181v331q0 53 -21 71.5t-75 18.5v18h296v-18q-54 0 -75 -18.5t-21 -71.5v-333q0 -88 53 -150q52 -61 139 -61t141 62q51 58 51 149v333q0 53 -21 71.5t-75 18.5v18
h238v-18z" />
    <glyph glyph-name="V" unicode="V" horiz-adv-x="724" 
d="M721 662q-61 0 -107 -115l-228 -563h-26l-258 594q-20 46 -43 65t-59 19v18h278v-18q-74 0 -74 -47q0 -19 14 -53l183 -423l168 416q12 28 12 51q0 56 -70 56v18h210v-18z" />
    <glyph glyph-name="W" unicode="W" horiz-adv-x="946" 
d="M950 662q-42 0 -61 -27q-13 -15 -34 -78l-195 -573h-24l-157 431l-153 -431h-24l-204 570q-22 61 -38 82q-20 26 -60 26v18h252v-18q-67 0 -67 -37q0 -18 17 -67l140 -395l113 318l-26 74q-21 59 -37 79q-24 28 -69 28v18h265v-18q-68 0 -68 -38q0 -25 15 -68l136 -393
l138 396q11 35 11 53q0 50 -73 50l1 18h202v-18z" />
    <glyph glyph-name="X" unicode="X" horiz-adv-x="742" 
d="M734 0h-295v17q67 1 67 39q0 20 -20 52l-126 190l-143 -184q-27 -27 -27 -54q0 -42 62 -42v-18h-252v18q41 0 87 28q45 26 71 61l177 231l-167 241q-59 83 -144 83v18h319v-18q-72 0 -72 -38q0 -19 20 -48l107 -158l124 157q26 34 26 53q0 34 -69 34v18h239v-19
q-39 1 -68.5 -16t-62.5 -59l-166 -209l192 -269q34 -48 50 -63q31 -27 71 -27v-18z" />
    <glyph glyph-name="Y" unicode="Y" horiz-adv-x="694" 
d="M695 662q-21 0 -38 -4.5t-31.5 -14.5t-28 -26t-28.5 -40l-178 -283v-186q0 -53 21 -71.5t75 -18.5v-18h-296v18q54 0 75 18.5t21 71.5v175l-201 302q-27 40 -42 55q-23 22 -60 22v18h296v-18q-83 0 -81 -47q0 -19 18 -47l147 -236l153 246q10 16 10 35q0 49 -71 49v18
h239v-18z" />
    <glyph glyph-name="Z" unicode="Z" horiz-adv-x="622" 
d="M598 178l-32 -178h-556v17l438 624h-210q-76 0 -107 -28q-31 -27 -42 -104h-18l15 171h511l-451 -641h275q25 0 49 10.5t45 29t37.5 44t27.5 55.5h18z" />
    <glyph glyph-name="bracketleft" unicode="[" horiz-adv-x="264" 
d="M197 -82h-144v704h144v-43h-84v-618h84v-43z" />
    <glyph glyph-name="backslash" unicode="\" horiz-adv-x="275" 
d="M274 -16h-47l-228 712h47z" />
    <glyph glyph-name="bracketright" unicode="]" horiz-adv-x="264" 
d="M210 -73h-144v43h83v618h-83v43h144v-704z" />
    <glyph glyph-name="asciicircum" unicode="^" horiz-adv-x="496" 
d="M484 328h-63l-174 292l-175 -292h-60l220 368h32z" />
    <glyph glyph-name="underscore" unicode="_" horiz-adv-x="550" 
d="M550 -146h-550v46h550v-46z" />
    <glyph glyph-name="grave" unicode="`" horiz-adv-x="201" 
d="M190 709h-28l-151 177h126z" />
    <glyph glyph-name="a" unicode="a" horiz-adv-x="445" 
d="M439 58q-41 -68 -107 -68q-25 0 -38 25q-12 19 -12 48q-26 -22 -40.5 -34.5t-18.5 -14.5q-38 -24 -84 -24q-49 0 -78 32t-29 83q0 78 85 127q33 19 165 66v28q0 113 -81 113q-68 0 -68 -70q0 -61 -41 -61q-19 0 -31.5 15.5t-12.5 38.5q0 44 50 76q49 31 119 31
q148 0 148 -122v-260q0 -35 23 -35q26 0 51 40v-34zM282 268q-167 -59 -167 -139q0 -33 20.5 -58t47.5 -25q37 0 99 50v172z" />
    <glyph glyph-name="b" unicode="b" horiz-adv-x="506" 
d="M468 264q0 -112 -68 -194q-68 -80 -165 -80q-100 0 -161 55v505q0 46 -4 57q-5 18 -26 18q-11 0 -41 -8l-7 18l137 61h24v-322q19 38 62 67q43 28 82 28q72 0 119 -60q48 -59 48 -145zM381 235q0 68 -36 116t-86 48q-28 0 -57.5 -16.5t-44.5 -39.5v-268q45 -47 95 -47
q57 0 93 58t36 149z" />
    <glyph glyph-name="c" unicode="c" horiz-adv-x="450" 
d="M421 174q-21 -88 -70.5 -136t-121.5 -48q-82 0 -140 66q-57 67 -57 162q0 103 63 177q65 74 154 74q71 0 115 -31q46 -31 46 -78q0 -21 -17 -36t-38 -15q-22 0 -35.5 15.5t-13.5 35.5q0 75 -70 75q-27 0 -49.5 -12t-38.5 -33.5t-24.5 -50.5t-8.5 -62q0 -92 40 -154
q40 -63 106 -63q93 0 141 120z" />
    <glyph glyph-name="d" unicode="d" horiz-adv-x="510" 
d="M511 53l-140 -63h-24v55q-61 -55 -138 -55q-73 0 -125 69q-52 70 -52 165q0 94 65 170q66 75 155 75q53 0 95 -42v123q0 46 -4 57q-5 18 -26 18q-11 0 -41 -8l-7 18l137 61h24v-560q0 -45 9 -61t33 -16q17 0 33 8zM347 314q0 52 -33 88q-32 33 -71 33q-51 0 -85 -52
t-34 -133q0 -87 38 -149q39 -61 94 -61q52 0 91 47v227z" />
    <glyph glyph-name="e" unicode="e" horiz-adv-x="462" 
d="M435 161q-18 -72 -76 -121q-59 -50 -122 -50q-85 0 -145 65q-60 66 -60 158q0 112 57 184t149 72q80 0 133 -54q53 -53 53 -131h-312q0 -95 42 -159q42 -65 106 -65q53 0 100 30q47 32 57 74zM320 308q0 52 -32 90q-31 37 -76 37q-38 0 -67 -38t-33 -89h208z" />
    <glyph glyph-name="f" unicode="f" horiz-adv-x="292" 
d="M409 615q0 -39 -41 -39q-31 0 -53 43t-57 43q-13 0 -25.5 -7t-22 -19t-15.5 -27.5t-6 -32.5v-117h112v-34h-112v-318q0 -51 14 -70t58 -19v-18h-227v18q44 0 59 21q13 17 13 68v318h-88v34h88v69q0 69 45 119q46 49 111 49q147 0 147 -81z" />
    <glyph glyph-name="g" unicode="g" horiz-adv-x="500" 
d="M474 -36q0 -41 -17 -73.5t-49.5 -55t-78.5 -35t-103 -12.5q-206 0 -206 94q0 34 31 69q7 8 22 23t40 37q-55 19 -55 56q0 14 6.5 29t18 28.5t27 25t33.5 18.5q-90 42 -90 136q0 68 53 116q53 49 131 49q85 0 118 -33h119v-38h-79q27 -42 27 -89q0 -71 -54 -116
q-55 -44 -140 -44q-31 0 -61 10q-29 -26 -29 -53q0 -30 53 -32l155 -7q128 -6 128 -103zM332 286q0 67 -31 113t-74 46q-81 0 -81 -124q0 -32 7 -59t20 -46.5t30.5 -31t38.5 -11.5q36 0 63 33t27 80zM436 -69q0 59 -104 59q-64 0 -112 3.5t-82 10.5q-38 -32 -38 -78
q0 -33 40 -54q43 -24 118 -24q77 0 131 26q47 26 47 57z" />
    <glyph glyph-name="h" unicode="h" horiz-adv-x="520" 
d="M506 0h-227v18q44 0 59 21q13 17 13 68v208q0 92 -67 92q-56 0 -117 -66v-234q0 -51 14 -70t58 -19v-18h-227v18q44 0 59 21q13 17 13 68v443q0 46 -4 57q-5 18 -26 18q-11 0 -41 -8l-7 18l137 61h24v-320q75 93 162 93q44 0 74 -41q31 -40 31 -98v-223q0 -51 14 -70
t58 -19v-18z" />
    <glyph glyph-name="i" unicode="i" horiz-adv-x="278" 
d="M192 650q0 -19 -14 -32.5t-34 -13.5t-34 13.5t-14 32.5t14 32.5t34 13.5t34 -13.5t14 -32.5zM258 0h-227v18q44 0 59 21q13 17 13 68v216q0 46 -4 57q-5 18 -26 18q-11 0 -41 -8l-7 18l137 61h24v-362q0 -51 14 -70t58 -19v-18z" />
    <glyph glyph-name="j" unicode="j" horiz-adv-x="278" 
d="M192 650q0 -19 -14 -32.5t-34 -13.5t-34 13.5t-14 32.5t14 32.5t34 13.5t34 -13.5t14 -32.5zM186 0q0 -132 -44 -178q-33 -34 -123 -34q-37 0 -59.5 16t-22.5 39q0 39 43 39q18 0 38 -30q21 -30 42 -30q43 0 43 78v423q0 46 -4 57q-5 18 -26 18q-11 0 -41 -8l-7 18
l137 61h24v-469z" />
    <glyph glyph-name="k" unicode="k" horiz-adv-x="510" 
d="M525 0h-227v18q30 0 30 23q0 15 -37 61l-120 150v-145q0 -51 14 -70t58 -19v-18h-227v18q44 0 59 21q13 17 13 68v443q0 46 -4 57q-5 18 -26 18q-11 0 -41 -8l-7 18l137 61h24v-435l111 101l36 34t18 29q0 16 -36 16v18h190v-18q-45 0 -76 -14q-27 -13 -83 -61l-84 -73
l136 -172q25 -31 44 -51.5t33 -31.5q29 -20 65 -20v-18z" />
    <glyph glyph-name="l" unicode="l" horiz-adv-x="277" 
d="M253 0h-227v18q44 0 59 21q13 17 13 68v443q0 46 -4 57q-5 18 -26 18q-11 0 -41 -8l-7 18l137 61h24v-589q0 -51 14 -70t58 -19v-18z" />
    <glyph glyph-name="m" unicode="m" horiz-adv-x="805" 
d="M797 0h-227v18q44 0 59 21q13 17 13 68v205q0 39 -22 67t-53 28q-34 0 -68.5 -19t-50.5 -46v-235q0 -51 14 -70t58 -19v-18h-227v18q44 0 59 21q13 17 13 68v205q0 19 -6 36.5t-16.5 30.5t-24 20.5t-28.5 7.5q-31 0 -65.5 -19t-53.5 -46v-235q0 -51 14 -70t58 -19v-18
h-227v18q44 0 59 21q13 17 13 68v216q0 46 -4 57q-5 18 -26 18q-11 0 -41 -8l-7 18l137 61h24v-95q35 41 77 67q46 28 83 28q40 0 74 -28q34 -29 42 -69q20 39 69 68t95 29q47 0 80 -43q34 -41 34 -101v-218q0 -51 14 -70t58 -19v-18z" />
    <glyph glyph-name="n" unicode="n" horiz-adv-x="518" 
d="M510 0h-227v18q44 0 59 21q13 17 13 68v208q0 92 -67 92q-56 0 -117 -66v-234q0 -51 14 -70t58 -19v-18h-227v18q44 0 59 21q13 17 13 68v216q0 46 -4 57q-5 18 -26 18q-11 0 -41 -8l-7 18l137 61h24v-93q75 93 162 93q44 0 74 -41q31 -40 31 -98v-223q0 -51 14 -70
t58 -19v-18z" />
    <glyph glyph-name="o" unicode="o" horiz-adv-x="506" 
d="M474 243q0 -107 -63 -180t-158 -73t-158 68q-63 67 -63 166q0 103 63 174t158 71t158 -66q63 -65 63 -160zM381 196q0 239 -148 239q-43 0 -76 -50q-32 -50 -32 -119q0 -103 38 -171q41 -71 106 -71q48 0 80 50q32 52 32 122z" />
    <glyph glyph-name="p" unicode="p" horiz-adv-x="516" 
d="M484 253q0 -117 -55 -188q-56 -75 -149 -75q-65 0 -112 34v-111q0 -51 14 -70t58 -19v-18h-227v18q44 0 58 19.5t14 69.5v410q0 46 -4 57q-5 18 -26 18q-11 0 -41 -8l-7 18l137 61h24v-103q72 103 152 103q73 0 118 -63q46 -61 46 -153zM392 205q0 100 -31 152
q-29 50 -78 50q-65 0 -115 -74v-209q0 -42 31.5 -71t80.5 -29q47 0 79 50q33 51 33 131z" />
    <glyph glyph-name="q" unicode="q" horiz-adv-x="512" 
d="M503 -194h-227v18q44 0 58 19.5t14 69.5v159q-67 -82 -149 -82q-69 0 -118 63q-49 64 -49 154q0 108 66 185q68 77 162 77q66 0 88 -34l63 34h20v-556q0 -51 14 -70t58 -19v-18zM348 348q0 33 -25 58q-29 29 -74 29q-54 0 -92 -53t-38 -127q0 -81 36 -138t87 -57
q36 0 67 19q28 16 39 37v232z" />
    <glyph glyph-name="r" unicode="r" horiz-adv-x="344" 
d="M353 414q0 -45 -48 -45q-20 0 -38 15t-31 15q-27 0 -67 -72v-220q0 -51 14 -70t58 -19v-18h-227v18q44 0 59 21q13 17 13 68v216q0 46 -4 57q-5 18 -26 18q-11 0 -41 -8l-7 18l137 61h24v-96q58 96 119 96q27 0 46 -16t19 -39z" />
    <glyph glyph-name="s" unicode="s" horiz-adv-x="402" 
d="M367 129q0 -61 -42 -100t-118 -39q-29 0 -68 11q-38 12 -46 12q-15 0 -21 -13h-18v159h18q7 -56 48 -96q40 -39 89 -39q32 0 54 19.5t22 46.5q0 46 -61 80q-28 16 -56 31t-57 30q-61 43 -61 110q0 57 37 92.5t98 35.5q28 0 61 -9q34 -9 43 -9q16 0 21 18h18v-153h-18
q-3 52 -37 87q-35 36 -80 36q-36 0 -58.5 -18t-22.5 -43q0 -46 66 -80q31 -15 61.5 -30t61.5 -31q66 -44 66 -108z" />
    <glyph glyph-name="t" unicode="t" horiz-adv-x="290" 
d="M290 97q-32 -107 -128 -107q-82 0 -82 107v328h-72v24q47 0 83 48t48 120h24v-158h111v-34h-111v-328q0 -20 13 -34.5t32 -14.5q38 0 60 49h22z" />
    <glyph glyph-name="u" unicode="u" horiz-adv-x="518" 
d="M518 53l-140 -63h-24v96q-22 -39 -64 -68q-40 -28 -78 -28q-55 0 -94 42q-38 43 -38 101v229q0 46 -15 62.5t-57 16.5v18h155v-326q0 -35 27 -59t65 -24q25 0 54 21.5t45 52.5v238q0 46 -15 62.5t-57 16.5v18h155v-323q0 -45 9 -61t33 -16q17 0 33 8z" />
    <glyph glyph-name="v" unicode="v" horiz-adv-x="494" 
d="M485 441q-38 0 -63 -60l-163 -391h-24l-163 381q-18 42 -32.5 56t-39.5 14v18h208v-18q-53 0 -53 -29q0 -19 15 -56l100 -244l104 254q13 30 13 56q0 19 -57 19v18h155v-18z" />
    <glyph glyph-name="w" unicode="w" horiz-adv-x="753" 
d="M753 441q-44 0 -68 -25q-19 -20 -36 -68l-132 -358h-24l-119 308l-119 -308h-24l-139 354q-13 34 -23 54t-17 28q-14 15 -52 15v18h200v-18q-39 0 -39 -25q0 -23 18 -68l90 -224l86 220l-10 26q-8 23 -29 44q-27 27 -60 27v18h232v-18q-63 0 -63 -33q0 -17 17 -60
l90 -224l75 214q20 58 20 72q0 31 -44 31v18h170v-18z" />
    <glyph glyph-name="x" unicode="x" horiz-adv-x="503" 
d="M497 0h-225l1 18q47 0 47 29q0 11 -29 55l-66 101l-89 -115q-17 -23 -17 -44q0 -26 42 -26v-18h-149v18q29 0 72 58l119 157l-92 147q-37 61 -103 61v18h216v-18q-31 0 -32 -22q-1 -11 19 -44l45 -71l40 56q32 46 32 61q0 20 -40 20v18h160v-18q-27 0 -48 -15
q-26 -18 -66 -72l-59 -79l127 -188q46 -69 95 -69v-18z" />
    <glyph glyph-name="y" unicode="y" horiz-adv-x="514" 
d="M497 441q-28 0 -41 -18q-11 -14 -30 -61l-185 -452q-22 -54 -61.5 -88t-79.5 -34q-27 0 -46.5 14.5t-20.5 34.5q-2 51 51 51q20 0 35 -9t31 -9q31 0 66 83l29 70l-143 300q-55 118 -102 118v18h211v-18q-49 0 -49 -36q0 -13 35 -88l89 -188l95 234q14 34 14 50
q0 28 -47 28v18h149v-18z" />
    <glyph glyph-name="z" unicode="z" horiz-adv-x="463" 
d="M440 441l-308 -407h195q40 0 60 15q27 19 33 97h18l-10 -146h-408v24l302 401h-165q-40 0 -57 -17q-23 -23 -24 -76h-18v127h382v-18z" />
    <glyph glyph-name="braceleft" unicode="{" horiz-adv-x="259" 
d="M204 -117q-66 0 -93.5 26t-27.5 89v182q0 46 -44 88q44 38 44 88v179q0 66 27 91.5t94 25.5v-30q-49 0 -67 -19t-18 -68v-179q0 -15 -2 -26.5t-6.5 -21.5t-12 -19t-19.5 -21q40 -44 40 -88v-182q0 -24 4 -40.5t13.5 -26t26 -13.5t41.5 -4v-31z" />
    <glyph glyph-name="bar" unicode="|" horiz-adv-x="264" 
d="M148 -82h-40v704h40v-704z" />
    <glyph glyph-name="braceright" unicode="}" horiz-adv-x="259" 
d="M221 268q-44 -50 -44 -90v-182q0 -65 -27 -89t-93 -24v31q49 0 66.5 17t17.5 65v182q0 32 13 51q6 12 27 39q-40 28 -40 86v179q0 50 -17 69t-67 20v30q66 0 93 -27t27 -92v-179q0 -54 44 -86z" />
    <glyph glyph-name="asciitilde" unicode="~" horiz-adv-x="398" 
d="M360 380q0 -36 -34 -55q-26 -16 -65 -16q-46 0 -94 20l-32 16q-20 9 -32 9q-41 0 -44 -36h-21q0 14 7 27q27 51 94 51q34 0 87 -22q54 -21 75 -21q35 0 37 27h22z" />
    <glyph glyph-name="exclamdown" unicode="&#xa1;" horiz-adv-x="277" 
d="M206 453q0 -23 -17.5 -39t-42.5 -16t-42.5 16t-17.5 39t17.5 39.5t42.5 16.5t42.5 -16.5t17.5 -39.5zM208 -48q0 -90 -63 -90q-65 0 -65 90q0 19 3 41t8 48l20 87q5 29 11 83.5t12 135.5h21q2 -26 3.5 -51.5t3.5 -51.5q6 -68 15 -116q6 -23 18 -78q13 -53 13 -98z" />
    <glyph glyph-name="cent" unicode="&#xa2;" horiz-adv-x="500" 
d="M445 175q-45 -185 -188 -185q-42 0 -82 21l-76 -205h-40l83 226q-83 68 -83 186q0 104 64 177q65 74 154 74h14.5t11.5 -1l79 212h40l-81 -219q97 -25 97 -101q0 -21 -17 -36t-38 -15q-22 0 -35.5 15.5t-13.5 35.5q0 34 -11 51l-115 -311q36 -36 82 -36q93 0 141 119z
M290 432q-11 3 -26 3q-27 0 -49.5 -12t-38.5 -33.5t-24.5 -50.5t-8.5 -62q0 -81 37 -142z" />
    <glyph glyph-name="sterling" unicode="&#xa3;" horiz-adv-x="530" 
d="M501 152q-7 -68 -44 -115q-42 -53 -110 -53q-90 0 -167 83q-35 -83 -96 -83q-26 0 -45 19.5t-19 47.5q0 35 25 58t64 23q8 0 22 -2.5t20 -2.5q2 19 3.5 38.5t1.5 41.5q0 31 -3 65.5t-8 72.5h-103v34h98q-6 60 -6 91q0 95 48 157q54 69 150 69q60 0 98 -35q32 -32 32 -66
q0 -16 -12 -29.5t-28 -13.5q-41 0 -42 61q-1 52 -63 52q-95 0 -95 -142q0 -25 3 -60.5t8 -83.5h136l1 -34h-134l-1 -48q-1 -48 -9.5 -92.5t-24.5 -87.5q85 -41 169 -41q91 0 114 80zM147 86q-23 14 -46 14q-49 0 -49 -43q0 -42 33 -42q44 0 62 71z" />
    <glyph glyph-name="currency" unicode="&#xa4;" horiz-adv-x="530" 
d="M520 125l-30 -29l-78 75q-59 -52 -147 -52q-89 0 -147 52l-78 -75l-30 29l78 75q-55 56 -55 141q0 80 55 141l-78 75l30 29l78 -75q58 52 147 52q88 0 147 -52l78 75l30 -29l-78 -75q55 -58 55 -141t-55 -141zM453 341q0 75 -56 128t-132 53q-77 0 -133 -53
q-55 -52 -55 -128q0 -77 55 -129t133 -52q77 0 132 52q56 53 56 129z" />
    <glyph glyph-name="yen" unicode="&#xa5;" horiz-adv-x="607" 
d="M607 662q-89 0 -128 -85l-25 -55h98v-38h-115l-46 -100h161v-38h-178l-23 -51v-187q0 -53 20.5 -71.5t74.5 -18.5v-18h-303v18q28 0 47 4t29.5 14t15 27.5t4.5 44.5v175l-27 63h-168v38h151l-43 100h-108v38h92l-28 65q-32 75 -108 75v18h296v-18q-77 0 -77 -39
q0 -16 14 -55l18 -46h154l24 56q9 21 9 38q0 46 -70 46v18h239v-18zM388 484h-122l58 -147z" />
    <glyph glyph-name="brokenbar" unicode="&#xa6;" horiz-adv-x="164" 
d="M111 494h-51v402h51v-402zM111 0h-51v367h51v-367z" />
    <glyph glyph-name="section" unicode="&#xa7;" horiz-adv-x="500" 
d="M434 237q0 -49 -35 -99q-32 -46 -81 -71q67 -68 67 -124q0 -63 -44 -109q-43 -46 -109 -46q-51 0 -91 33t-40 81q0 17 12 30.5t29 13.5q38 0 38 -45q0 -10 -4 -27.5t-4 -26.5q0 -35 64 -35q34 0 63 28q30 27 30 58q0 54 -70 112l-129 105q-70 66 -70 135q0 108 116 173
q-66 64 -66 126t43 104q43 43 108 43q54 0 92 -31q40 -34 40 -83q0 -17 -12 -30.5t-29 -13.5t-29.5 11.5t-12.5 27.5q0 8 4 24t4 25q0 46 -57 46q-19 0 -36.5 -6.5t-30.5 -17.5t-20.5 -26.5t-7.5 -33.5q0 -54 69 -112l130 -101q69 -65 69 -138zM380 190q0 60 -69 122
l-118 95q-79 -43 -79 -113q0 -58 70 -119l117 -93q79 42 79 108z" />
    <glyph glyph-name="dieresis" unicode="&#xa8;" horiz-adv-x="285" 
d="M274 774q0 -19 -15.5 -32t-37.5 -13t-37.5 13t-15.5 32t15.5 32t37.5 13t37.5 -13t15.5 -32zM117 774q0 -19 -15.5 -32t-37.5 -13t-37.5 13t-15.5 32t15.5 32t37.5 13t37.5 -13t15.5 -32z" />
    <glyph glyph-name="copyright" unicode="&#xa9;" horiz-adv-x="760" 
d="M737 341q0 -148 -105 -253q-104 -104 -252 -104q-147 0 -253 104q-104 106 -104 253t104 251q106 104 253 104q148 0 252 -104q105 -104 105 -251zM706 341q0 134 -96 229q-95 95 -230 95q-134 0 -231 -95q-95 -95 -95 -229q0 -135 96 -231q97 -95 230 -95q136 0 230 94
q96 94 96 232zM576 216q-70 -103 -196 -103q-95 0 -163 64q-68 65 -68 158q0 107 67 171q68 65 175 65q35 0 91 -19q17 -5 18 -5q18 0 26 24h18l10 -142h-18q-14 55 -54 86.5t-97 31.5q-152 0 -152 -194q0 -206 168 -206q105 0 155 80z" />
    <glyph glyph-name="ordfeminine" unicode="&#xaa;" horiz-adv-x="320" 
d="M309 431q-50 -37 -78 -37q-32 0 -39 46q-64 -46 -112 -46q-26 0 -47 19t-21 46q0 74 180 133q1 38 -7 58q-12 27 -49 27q-46 0 -46 -42q0 -41 -32 -41t-32 30q0 39 43 57q31 15 81 15q115 0 115 -95v-140q0 -23 15 -24q1 0 29 17v-23zM192 569q-107 -30 -107 -88
q0 -18 13.5 -31t32.5 -13q15 0 31 9t30 18v105z" />
    <glyph glyph-name="guillemotleft" unicode="&#xab;" horiz-adv-x="528" 
d="M478 0h-31l-199 230l199 229h31l-128 -229zM280 0h-31l-199 230l199 229h31l-128 -229z" />
    <glyph glyph-name="logicalnot" unicode="&#xac;" horiz-adv-x="605" 
d="M585 459v-206h-44v162h-521v44h565z" />
    <glyph glyph-name="registered" unicode="&#xae;" horiz-adv-x="761" 
d="M735 341q0 -148 -105 -253q-104 -104 -252 -104q-147 0 -253 104q-104 106 -104 253t104 251q106 104 253 104q148 0 252 -104q105 -104 105 -251zM704 341q0 134 -96 229q-95 95 -230 95q-134 0 -231 -95q-95 -95 -95 -229q0 -135 96 -231q97 -95 230 -95q136 0 230 94
q96 94 96 232zM610 127h-101l-155 203h-40v-117q0 -68 63 -68v-18h-193v18q55 0 55 68v274q0 34 -9 46.5t-40 12.5v18h190q73 0 119 -26q51 -29 51 -86q0 -86 -117 -113l102 -139q24 -34 35 -43q13 -12 40 -12v-18zM464 445q0 42 -30 69.5t-75 27.5q-24 0 -45 -8v-181h10
q140 0 140 92z" />
    <glyph glyph-name="macron" unicode="&#xaf;" horiz-adv-x="353" 
d="M343 656v-64h-333v64h333z" />
    <glyph glyph-name="degree" unicode="&#xb0;" horiz-adv-x="400" 
d="M360 543q0 -63 -47 -110q-46 -46 -112 -46q-69 0 -116 46q-48 46 -48 111q0 63 47 107q48 45 114 45t114 -45t48 -108zM314 543q0 46 -35 79t-81 33q-47 0 -81 -33t-34 -78q0 -48 34 -82t84 -34q49 0 80 34q33 34 33 81z" />
    <glyph glyph-name="plusminus" unicode="&#xb1;" horiz-adv-x="568" 
d="M518 476h-193v-175h-88v175h-193v82h193v176h88v-176h193v-82zM496 175h-430v81h430v-81z" />
    <glyph glyph-name="twosuperior" unicode="&#xb2;" horiz-adv-x="306" 
d="M253 234l-19 -48h-165q14 51 35 85q9 15 54 78q35 50 35 71q0 48 -66 50q-14 0 -39 -3l20 42q13 5 41 7q37 0 63 -18q29 -20 29 -56q0 -26 -20 -58q-9 -14 -39 -50q-44 -53 -66 -100h137z" />
    <glyph glyph-name="threesuperior" unicode="&#xb3;" horiz-adv-x="306" 
d="M250 301q0 -125 -135 -125q-32 0 -52 14l31 47q31 -15 58 -15q60 0 61 67q0 46 -63 46q-15 0 -37 -3l9 39q52 13 52 56q1 46 -51 46q-5 1 -13.5 -0.5t-20.5 -3.5l19 46q4 1 9.5 1.5t13.5 0.5q93 0 93 -65q0 -26 -17 -46q-8 -9 -40 -32q21 0 55 -14q28 -19 28 -59z" />
    <glyph glyph-name="acute" unicode="&#xb4;" horiz-adv-x="201" 
d="M190 896l-151 -177h-28l53 177h126z" />
    <glyph glyph-name="mu" unicode="&#xb5;" horiz-adv-x="525" 
d="M519 101q-2 -48 -27 -81q-29 -36 -77 -36q-77 0 -83 96q-83 -96 -166 -96q-51 0 -79 40h-2q0 -52 10 -105q11 -58 11 -74q0 -57 -42 -57q-45 0 -45 58q0 9 3.5 29.5t10.5 52.5q15 64 15 140v391h83v-281q0 -132 78 -132q64 0 123 68v345h83v-337q0 -26 9 -51
q10 -33 29 -33q37 0 43 63h23z" />
    <glyph glyph-name="paragraph" unicode="&#xb6;" horiz-adv-x="539" 
d="M442 -194h-38v862h-98v-862h-38v509q-53 0 -96.5 10t-75 32t-49 58t-17.5 88q0 91 54 142t168 51h260v-28h-70v-862z" />
    <glyph glyph-name="periodcentered" unicode="&#xb7;" horiz-adv-x="190" 
d="M137 238q0 -18 -12 -30t-30 -12q-17 0 -29.5 12t-12.5 30q0 17 12.5 29t29.5 12q18 0 30 -12t12 -29z" />
    <glyph glyph-name="cedilla" unicode="&#xb8;" horiz-adv-x="346" 
d="M262 -91q0 -59 -81 -59q-34 0 -83 13l-1 31q54 -12 83 -12q35 0 35 25q0 32 -59 26v61h25v-31q81 0 81 -54z" />
    <glyph glyph-name="onesuperior" unicode="&#xb9;" horiz-adv-x="306" 
d="M249 232l-28 -48h-149l29 48h47v202q0 10 -3 15t-22 11l-34 11q57 37 99 51v-290h61z" />
    <glyph glyph-name="ordmasculine" unicode="&#xba;" horiz-adv-x="348" 
d="M326 547q0 -61 -46 -107t-108 -46q-65 0 -109 41q-43 40 -43 104q0 68 44 112q43 45 114 45q64 0 106 -44t42 -105zM253 515q0 51 -21 98q-27 58 -74 58q-65 0 -65 -96q0 -50 19 -95q25 -61 69 -61q72 0 72 96z" />
    <glyph glyph-name="guillemotright" unicode="&#xbb;" horiz-adv-x="528" 
d="M478 230l-199 -230h-31l128 230l-128 229h31zM280 230l-199 -230h-31l128 230l-128 229h31z" />
    <glyph glyph-name="onequarter" unicode="&#xbc;" horiz-adv-x="532" 
d="M519 158l-28 -48h-42v-79l-42 -27v106h-121q0 82 36 142q39 65 114 91q16 4 24 9q0 -1 -5 -16q-6 -20 -6 -38v-140h70zM404 477q-35 -63 -68 -122.5t-63 -118.5l-51 -99q-11 -22 -21 -43l-20 -42l-19 -43l-67 -19q18 32 43.5 79t58.5 111l59 115q22 42 41 83.5t36 84.5z
M190 232l-28 -48h-149l28 48h48v201q0 10 -3.5 15t-22.5 11l-33 11q55 39 98 51v-289h62zM407 158v137q-40 -17 -62 -54.5t-22 -82.5h84z" />
    <glyph glyph-name="onehalf" unicode="&#xbd;" horiz-adv-x="532" 
d="M509 51l-20 -48h-165q7 24 15.5 45t19.5 40l54 77q36 49 36 72q0 48 -66 50q-15 0 -40 -3l20 42q15 6 41 6q37 1 63 -17q29 -20 29 -57q0 -26 -20 -58q-4 -5 -13.5 -17.5t-25.5 -32.5q-44 -53 -66 -99h138zM409 477q-35 -63 -68 -122.5t-63 -118.5l-51 -99
q-11 -22 -21 -43l-20 -42l-19 -43l-67 -19q18 32 43.5 79t58.5 111l59 115q22 42 41 83.5t36 84.5zM200 231l-28 -48h-149l29 48h47v201q0 11 -3 15.5t-22 10.5l-34 11q57 39 99 51v-289h61z" />
    <glyph glyph-name="threequarters" unicode="&#xbe;" horiz-adv-x="532" 
d="M510 155l-27 -48h-43v-78l-42 -28v106h-120q0 83 36 143q39 64 114 90q15 4 24 9l-5 -16q-7 -18 -7 -37v-141h70zM405 480q-35 -63 -68 -122.5t-63 -118.5l-51 -99l-21.5 -43t-19.5 -42l-19 -43l-67 -19q17 32 42.5 79t59.5 111l25.5 51t33.5 64q22 42 41 83.5t36 84.5z
M208 302q0 -124 -135 -124q-31 0 -51 14l30 47q31 -15 58 -15q59 0 61 66q0 47 -62 47q-16 0 -38 -3l9 39q51 13 53 56q0 45 -52 46q-5 0 -13.5 -1t-20.5 -3l20 45q8 2 22 2q93 0 93 -64q0 -26 -17 -46q-8 -9 -40 -32q20 0 56 -14q27 -20 27 -60zM398 155v137
q-39 -16 -61.5 -54t-22.5 -83h84z" />
    <glyph glyph-name="questiondown" unicode="&#xbf;" horiz-adv-x="431" 
d="M259 642q0 -22 -16.5 -38t-39.5 -16t-39.5 16t-16.5 38t16.5 38t39.5 16t39.5 -16t16.5 -38zM406 146q0 -38 -14 -68t-39 -51t-60.5 -32t-77.5 -11q-71 0 -123 37q-60 42 -60 116q0 31 16 50t40 19q37 0 39 -42q1 -14 -16 -44q-16 -26 -16 -42q0 -25 28 -40.5t66 -15.5
q113 0 113 131q0 58 -29 119l-53 106q-29 69 -29 143h24q0 -64 50 -132q23 -29 45.5 -57t45.5 -57q50 -68 50 -129z" />
    <glyph glyph-name="Agrave" unicode="&#xc0;" horiz-adv-x="750" 
d="M490 709h-28l-151 177h126zM742 0h-280v18q74 0 74 43q0 19 -12 46l-51 120h-265l-52 -120q-12 -27 -12 -45q0 -44 79 -44v-18h-217v18q59 0 97 89l253 589h24l249 -589q21 -50 42 -68q24 -21 71 -21v-18zM454 265l-113 274l-118 -274h231z" />
    <glyph glyph-name="Aacute" unicode="&#xc1;" horiz-adv-x="750" 
d="M429 886l-151 -177h-28l53 177h126zM742 0h-280v18q74 0 74 43q0 19 -12 46l-51 120h-265l-52 -120q-12 -27 -12 -45q0 -44 79 -44v-18h-217v18q59 0 97 89l253 589h24l249 -589q21 -50 42 -68q24 -21 71 -21v-18zM454 265l-113 274l-118 -274h231z" />
    <glyph glyph-name="Acircumflex" unicode="&#xc2;" horiz-adv-x="750" 
d="M523 739h-17l-131 107l-131 -107h-17l100 167h96zM742 0h-280v18q74 0 74 43q0 19 -12 46l-51 120h-265l-52 -120q-12 -27 -12 -45q0 -44 79 -44v-18h-217v18q59 0 97 89l253 589h24l249 -589q21 -50 42 -68q24 -21 71 -21v-18zM454 265l-113 274l-118 -274h231z" />
    <glyph glyph-name="Atilde" unicode="&#xc3;" horiz-adv-x="750" 
d="M536 830q0 -36 -33 -55q-28 -16 -66 -16q-46 0 -94 20q-8 4 -15.5 8t-15.5 8q-20 9 -33 9q-41 0 -44 -36h-21q0 13 8 27q27 51 93 51q35 0 88 -22q54 -21 74 -21q35 0 37 27h22zM742 0h-280v18q74 0 74 43q0 19 -12 46l-51 120h-265l-52 -120q-12 -27 -12 -45
q0 -44 79 -44v-18h-217v18q59 0 97 89l253 589h24l249 -589q21 -50 42 -68q24 -21 71 -21v-18zM454 265l-113 274l-118 -274h231z" />
    <glyph glyph-name="Adieresis" unicode="&#xc4;" horiz-adv-x="750" 
d="M507 834q0 -19 -16 -32t-37 -13q-22 0 -37.5 13t-15.5 32t15.5 32t37.5 13q21 0 37 -13t16 -32zM350 834q0 -19 -16 -32t-37 -13q-22 0 -37.5 13t-15.5 32t15.5 32t37.5 13q21 0 37 -13t16 -32zM742 0h-280v18q74 0 74 43q0 19 -12 46l-51 120h-265l-52 -120
q-12 -27 -12 -45q0 -44 79 -44v-18h-217v18q59 0 97 89l253 589h24l249 -589q21 -50 42 -68q24 -21 71 -21v-18zM454 265l-113 274l-118 -274h231z" />
    <glyph glyph-name="Aring" unicode="&#xc5;" horiz-adv-x="750" 
d="M431 758q0 -26 -18 -44t-44 -18t-44 18t-18 44q0 25 18 43t44 18t44 -18t18 -43zM742 0h-280v18q74 0 74 43q0 19 -12 46l-51 120h-265l-52 -120q-12 -27 -12 -45q0 -44 79 -44v-18h-217v18q59 0 97 89l253 589h24l249 -589q21 -50 42 -68q24 -21 71 -21v-18zM402 758
q0 13 -10 23t-23 10q-33 0 -33 -33t33 -33q13 0 23 9.5t10 23.5zM454 265l-113 274l-118 -274h231z" />
    <glyph glyph-name="AE" unicode="&#xc6;" horiz-adv-x="1065" 
d="M1047 191l-61 -191h-526v18q54 0 75 18.5t21 71.5v119h-288l-92 -120q-17 -23 -17 -42q0 -47 84 -47v-18h-237v18q48 0 117 89l413 536q-19 19 -76 19v18h522l8 -162h-18q-14 66 -43 95q-33 33 -97 33h-172v-258h147q102 0 102 88h18v-230h-18q0 108 -100 108h-149v-278
q0 -17 12 -29.5t28 -12.5h142q132 0 181 157h24zM556 265v307v14.5t-1 11.5l-262 -333h263z" />
    <glyph glyph-name="Ccedilla" unicode="&#xc7;" horiz-adv-x="685" 
d="M652 159q-42 -72 -102 -118q-71 -53 -150 -57q-32 -29 -32 -52q0 -16 15 -19h29v-35h-21q-55 0 -55 41q0 31 43 65q-150 3 -248 103q-99 100 -99 245q0 151 106 257q107 107 251 107q53 0 92 -12q25 -8 51 -22q22 -12 32 -12q11 0 22 13.5t15 32.5h17l17 -231h-24
q-10 82 -70 139q-59 58 -135 58q-113 0 -184 -95q-68 -91 -68 -239q0 -140 78 -224q73 -81 189 -81q119 0 214 146z" />
    <glyph glyph-name="Egrave" unicode="&#xc8;" horiz-adv-x="625" 
d="M390 719h-28l-151 177h126zM607 191l-61 -191h-526v18q54 0 75 18.5t21 71.5v464q0 53 -21 71.5t-75 18.5v18h522l8 -162h-18q-14 66 -43 95q-33 33 -97 33h-172v-258h147q102 0 102 88h18v-230h-18q0 108 -100 108h-149v-278q0 -17 12 -29.5t28 -12.5h142q132 0 181 157
h24z" />
    <glyph glyph-name="Eacute" unicode="&#xc9;" horiz-adv-x="625" 
d="M402 896l-151 -177h-28l53 177h126zM607 191l-61 -191h-526v18q54 0 75 18.5t21 71.5v464q0 53 -21 71.5t-75 18.5v18h522l8 -162h-18q-14 66 -43 95q-33 33 -97 33h-172v-258h147q102 0 102 88h18v-230h-18q0 108 -100 108h-149v-278q0 -17 12 -29.5t28 -12.5h142
q132 0 181 157h24z" />
    <glyph glyph-name="Ecircumflex" unicode="&#xca;" horiz-adv-x="625" 
d="M461 729h-17l-131 107l-131 -107h-17l100 167h96zM607 191l-61 -191h-526v18q54 0 75 18.5t21 71.5v464q0 53 -21 71.5t-75 18.5v18h522l8 -162h-18q-14 66 -43 95q-33 33 -97 33h-172v-258h147q102 0 102 88h18v-230h-18q0 108 -100 108h-149v-278q0 -17 12 -29.5
t28 -12.5h142q132 0 181 157h24z" />
    <glyph glyph-name="Edieresis" unicode="&#xcb;" horiz-adv-x="625" 
d="M444 774q0 -19 -15.5 -32t-37.5 -13t-37.5 13t-15.5 32t15.5 32t37.5 13t37.5 -13t15.5 -32zM287 774q0 -19 -15.5 -32t-37.5 -13t-37.5 13t-15.5 32t15.5 32t37.5 13t37.5 -13t15.5 -32zM607 191l-61 -191h-526v18q54 0 75 18.5t21 71.5v464q0 53 -21 71.5t-75 18.5v18
h522l8 -162h-18q-14 66 -43 95q-33 33 -97 33h-172v-258h147q102 0 102 88h18v-230h-18q0 108 -100 108h-149v-278q0 -17 12 -29.5t28 -12.5h142q132 0 181 157h24z" />
    <glyph glyph-name="Igrave" unicode="&#xcc;" horiz-adv-x="342" 
d="M241 719h-28l-151 177h126zM319 0h-296v18q54 0 75 18.5t21 71.5v464q0 53 -21 71.5t-75 18.5v18h296v-18q-54 0 -75 -18.5t-21 -71.5v-464q0 -53 21 -71.5t75 -18.5v-18z" />
    <glyph glyph-name="Iacute" unicode="&#xcd;" horiz-adv-x="342" 
d="M281 896l-151 -177h-28l53 177h126zM319 0h-296v18q54 0 75 18.5t21 71.5v464q0 53 -21 71.5t-75 18.5v18h296v-18q-54 0 -75 -18.5t-21 -71.5v-464q0 -53 21 -71.5t75 -18.5v-18z" />
    <glyph glyph-name="Icircumflex" unicode="&#xce;" horiz-adv-x="342" 
d="M319 729h-17l-131 107l-131 -107h-17l100 167h96zM319 0h-296v18q54 0 75 18.5t21 71.5v464q0 53 -21 71.5t-75 18.5v18h296v-18q-54 0 -75 -18.5t-21 -71.5v-464q0 -53 21 -71.5t75 -18.5v-18z" />
    <glyph glyph-name="Idieresis" unicode="&#xcf;" horiz-adv-x="342" 
d="M319 0h-296v18q54 0 75 18.5t21 71.5v464q0 53 -21 71.5t-75 18.5v18h296v-18q-54 0 -75 -18.5t-21 -71.5v-464q0 -53 21 -71.5t75 -18.5v-18zM303 774q0 -19 -15.5 -32t-37.5 -13t-37.5 13t-15.5 32t15.5 32t37.5 13t37.5 -13t15.5 -32zM146 774q0 -19 -15.5 -32
t-37.5 -13t-37.5 13t-15.5 32t15.5 32t37.5 13t37.5 -13t15.5 -32z" />
    <glyph glyph-name="Ntilde" unicode="&#xd1;" horiz-adv-x="739" 
d="M531 830q0 -36 -34 -55q-26 -16 -65 -16q-46 0 -94 20l-32 16q-20 9 -32 9q-41 0 -44 -36h-21q0 14 7 27q27 51 94 51q34 0 87 -22q54 -21 75 -21q35 0 37 27h22zM722 662q-54 0 -75 -18.5t-21 -71.5v-588h-24l-439 553h-4v-429q0 -53 21 -71.5t75 -18.5v-18h-238v18
q54 0 75 18.5t21 71.5v458q0 21 -9 38.5t-24 30.5t-35.5 20t-44.5 7v18h171l405 -497h4v389q0 53 -21 71.5t-75 18.5v18h238v-18z" />
    <glyph glyph-name="Ograve" unicode="&#xd2;" horiz-adv-x="506" 
d="M293 519h-28l-151 177h126zM474 243q0 -107 -63 -180t-158 -73t-158 68q-63 67 -63 166q0 103 63 174t158 71t158 -66q63 -65 63 -160zM381 196q0 239 -148 239q-43 0 -76 -50q-32 -50 -32 -119q0 -103 38 -171q41 -71 106 -71q48 0 80 50q32 52 32 122z" />
    <glyph glyph-name="Oacute" unicode="&#xd3;" horiz-adv-x="506" 
d="M351 696l-151 -177h-28l53 177h126zM474 243q0 -107 -63 -180t-158 -73t-158 68q-63 67 -63 166q0 103 63 174t158 71t158 -66q63 -65 63 -160zM381 196q0 239 -148 239q-43 0 -76 -50q-32 -50 -32 -119q0 -103 38 -171q41 -71 106 -71q48 0 80 50q32 52 32 122z" />
    <glyph glyph-name="Ocircumflex" unicode="&#xd4;" horiz-adv-x="506" 
d="M401 519h-17l-131 107l-131 -107h-17l100 167h96zM474 243q0 -107 -63 -180t-158 -73t-158 68q-63 67 -63 166q0 103 63 174t158 71t158 -66q63 -65 63 -160zM381 196q0 239 -148 239q-43 0 -76 -50q-32 -50 -32 -119q0 -103 38 -171q41 -71 106 -71q48 0 80 50
q32 52 32 122z" />
    <glyph glyph-name="Otilde" unicode="&#xd5;" horiz-adv-x="746" 
d="M534 830q0 -36 -33 -55q-28 -16 -66 -16q-46 0 -94 20q-8 4 -15.5 8t-15.5 8q-20 9 -33 9q-41 0 -44 -36h-21q0 13 8 27q27 51 93 51q35 0 88 -22q54 -21 74 -21q35 0 37 27h22zM714 344q0 -149 -99 -255q-99 -105 -242 -105t-242 105q-99 106 -99 255q0 147 99 249
q99 103 242 103t242 -103q99 -102 99 -249zM592 344q0 143 -57 229q-59 89 -162 89q-104 0 -163 -89q-56 -86 -56 -229q0 -145 56 -233q58 -93 163 -93q103 0 162 93q57 88 57 233z" />
    <glyph glyph-name="Odieresis" unicode="&#xd6;" horiz-adv-x="746" 
d="M505 774q0 -19 -16 -32t-37 -13q-22 0 -37.5 13t-15.5 32t15.5 32t37.5 13q21 0 37 -13t16 -32zM348 774q0 -19 -16 -32t-37 -13q-22 0 -37.5 13t-15.5 32t15.5 32t37.5 13q21 0 37 -13t16 -32zM714 344q0 -149 -99 -255q-99 -105 -242 -105t-242 105q-99 106 -99 255
q0 147 99 249q99 103 242 103t242 -103q99 -102 99 -249zM592 344q0 143 -57 229q-59 89 -162 89q-104 0 -163 -89q-56 -86 -56 -229q0 -145 56 -233q58 -93 163 -93q103 0 162 93q57 88 57 233z" />
    <glyph glyph-name="multiply" unicode="&#xd7;" horiz-adv-x="581" 
d="M549 57l-56 -51l-203 186l-201 -186l-56 51l201 186l-201 184l56 52l201 -186l203 186l56 -52l-202 -184z" />
    <glyph glyph-name="Oslash" unicode="&#xd8;" horiz-adv-x="746" 
d="M714 344q0 -149 -99 -255q-99 -105 -242 -105q-74 0 -141 32l-45 -100l-26 11l46 102q-80 47 -128 131q-47 85 -47 184q0 147 99 249q99 103 242 103q64 0 121 -22l46 102l25 -11l-45 -102q88 -44 141 -129q53 -86 53 -190zM592 344q0 189 -93 272l-247 -555
q49 -43 121 -43q103 0 162 92q57 88 57 234zM476 633q-46 29 -103 29q-105 0 -164 -89q-55 -85 -55 -229q0 -174 76 -262z" />
    <glyph glyph-name="Ugrave" unicode="&#xd9;" horiz-adv-x="518" 
d="M293 519h-28l-151 177h126zM518 53l-140 -63h-24v96q-22 -39 -64 -68q-40 -28 -78 -28q-55 0 -94 42q-38 43 -38 101v229q0 46 -15 62.5t-57 16.5v18h155v-326q0 -35 27 -59t65 -24q25 0 54 21.5t45 52.5v238q0 46 -15 62.5t-57 16.5v18h155v-323q0 -45 9 -61t33 -16
q17 0 33 8z" />
    <glyph glyph-name="Uacute" unicode="&#xda;" horiz-adv-x="518" 
d="M321 696l-151 -177h-28l53 177h126zM518 53l-140 -63h-24v96q-22 -39 -64 -68q-40 -28 -78 -28q-55 0 -94 42q-38 43 -38 101v229q0 46 -15 62.5t-57 16.5v18h155v-326q0 -35 27 -59t65 -24q25 0 54 21.5t45 52.5v238q0 46 -15 62.5t-57 16.5v18h155v-323q0 -45 9 -61
t33 -16q17 0 33 8z" />
    <glyph glyph-name="Ucircumflex" unicode="&#xdb;" horiz-adv-x="518" 
d="M407 519h-17l-131 107l-131 -107h-17l100 167h96zM518 53l-140 -63h-24v96q-22 -39 -64 -68q-40 -28 -78 -28q-55 0 -94 42q-38 43 -38 101v229q0 46 -15 62.5t-57 16.5v18h155v-326q0 -35 27 -59t65 -24q25 0 54 21.5t45 52.5v238q0 46 -15 62.5t-57 16.5v18h155v-323
q0 -45 9 -61t33 -16q17 0 33 8z" />
    <glyph glyph-name="Udieresis" unicode="&#xdc;" horiz-adv-x="752" 
d="M508 774q0 -19 -16 -32t-37 -13q-22 0 -37.5 13t-15.5 32t15.5 32t37.5 13q21 0 37 -13t16 -32zM351 774q0 -19 -16 -32t-37 -13q-22 0 -37.5 13t-15.5 32t15.5 32t37.5 13q21 0 37 -13t16 -32zM743 662q-54 0 -75 -18.5t-21 -71.5v-333q0 -113 -63 -180
q-72 -75 -208 -75q-124 0 -196 76q-67 70 -67 181v331q0 53 -21 71.5t-75 18.5v18h296v-18q-54 0 -75 -18.5t-21 -71.5v-333q0 -88 53 -150q52 -61 139 -61t141 62q51 58 51 149v333q0 53 -21 71.5t-75 18.5v18h238v-18z" />
    <glyph glyph-name="germandbls" unicode="&#xdf;" horiz-adv-x="590" 
d="M548 185q0 -78 -50 -137t-127 -59q-39 0 -67 17q-32 21 -32 58q0 20 12 34t32 14q18 0 29.5 -11t15.5 -51q3 -30 30 -30q63 0 63 143q0 89 -57 145q-44 42 -122 48v29q61 13 79 26q41 30 41 105q0 56 -19 93q-26 48 -74 48q-85 0 -85 -125v-532h-190v19q48 0 65 12
q28 19 28 73v351q0 57 36 137q41 92 152 92q74 0 121 -36q52 -40 52 -112q0 -60 -37.5 -101t-97.5 -57q76 -19 117 -49q85 -64 85 -144z" />
    <glyph glyph-name="agrave" unicode="&#xe0;" horiz-adv-x="445" 
d="M262 519h-28l-151 177h126zM439 58q-41 -68 -107 -68q-25 0 -38 25q-12 19 -12 48q-26 -22 -40.5 -34.5t-18.5 -14.5q-38 -24 -84 -24q-49 0 -78 32t-29 83q0 78 85 127q33 19 165 66v28q0 113 -81 113q-68 0 -68 -70q0 -61 -41 -61q-19 0 -31.5 15.5t-12.5 38.5
q0 44 50 76q49 31 119 31q148 0 148 -122v-260q0 -35 23 -35q26 0 51 40v-34zM282 268q-167 -59 -167 -139q0 -33 20.5 -58t47.5 -25q37 0 99 50v172z" />
    <glyph glyph-name="aacute" unicode="&#xe1;" horiz-adv-x="445" 
d="M312 696l-151 -177h-28l53 177h126zM439 58q-41 -68 -107 -68q-25 0 -38 25q-12 19 -12 48q-26 -22 -40.5 -34.5t-18.5 -14.5q-38 -24 -84 -24q-49 0 -78 32t-29 83q0 78 85 127q33 19 165 66v28q0 113 -81 113q-68 0 -68 -70q0 -61 -41 -61q-19 0 -31.5 15.5t-12.5 38.5
q0 44 50 76q49 31 119 31q148 0 148 -122v-260q0 -35 23 -35q26 0 51 40v-34zM282 268q-167 -59 -167 -139q0 -33 20.5 -58t47.5 -25q37 0 99 50v172z" />
    <glyph glyph-name="acircumflex" unicode="&#xe2;" horiz-adv-x="445" 
d="M371 519h-17l-131 107l-131 -107h-17l100 167h96zM439 58q-41 -68 -107 -68q-25 0 -38 25q-12 19 -12 48q-26 -22 -40.5 -34.5t-18.5 -14.5q-38 -24 -84 -24q-49 0 -78 32t-29 83q0 78 85 127q33 19 165 66v28q0 113 -81 113q-68 0 -68 -70q0 -61 -41 -61
q-19 0 -31.5 15.5t-12.5 38.5q0 44 50 76q49 31 119 31q148 0 148 -122v-260q0 -35 23 -35q26 0 51 40v-34zM282 268q-167 -59 -167 -139q0 -33 20.5 -58t47.5 -25q37 0 99 50v172z" />
    <glyph glyph-name="atilde" unicode="&#xe3;" horiz-adv-x="445" 
d="M384 630q0 -36 -34 -55q-26 -16 -65 -16q-46 0 -94 20l-32 16q-20 9 -32 9q-41 0 -44 -36h-21q0 14 7 27q27 51 94 51q34 0 87 -22q54 -21 75 -21q35 0 37 27h22zM439 58q-41 -68 -107 -68q-25 0 -38 25q-12 19 -12 48q-26 -22 -40.5 -34.5t-18.5 -14.5q-38 -24 -84 -24
q-49 0 -78 32t-29 83q0 78 85 127q33 19 165 66v28q0 113 -81 113q-68 0 -68 -70q0 -61 -41 -61q-19 0 -31.5 15.5t-12.5 38.5q0 44 50 76q49 31 119 31q148 0 148 -122v-260q0 -35 23 -35q26 0 51 40v-34zM282 268q-167 -59 -167 -139q0 -33 20.5 -58t47.5 -25q37 0 99 50
v172z" />
    <glyph glyph-name="adieresis" unicode="&#xe4;" horiz-adv-x="445" 
d="M354 574q0 -19 -15.5 -32t-37.5 -13t-37.5 13t-15.5 32t15.5 32t37.5 13t37.5 -13t15.5 -32zM197 574q0 -19 -15.5 -32t-37.5 -13t-37.5 13t-15.5 32t15.5 32t37.5 13t37.5 -13t15.5 -32zM439 58q-41 -68 -107 -68q-25 0 -38 25q-12 19 -12 48q-26 -22 -40.5 -34.5
t-18.5 -14.5q-38 -24 -84 -24q-49 0 -78 32t-29 83q0 78 85 127q33 19 165 66v28q0 113 -81 113q-68 0 -68 -70q0 -61 -41 -61q-19 0 -31.5 15.5t-12.5 38.5q0 44 50 76q49 31 119 31q148 0 148 -122v-260q0 -35 23 -35q26 0 51 40v-34zM282 268q-167 -59 -167 -139
q0 -33 20.5 -58t47.5 -25q37 0 99 50v172z" />
    <glyph glyph-name="aring" unicode="&#xe5;" horiz-adv-x="445" 
d="M274 548q0 -26 -18 -44t-44 -18t-43.5 18t-17.5 44q0 25 17.5 43t43.5 18t44 -18t18 -43zM439 58q-41 -68 -107 -68q-25 0 -38 25q-12 19 -12 48q-26 -22 -40.5 -34.5t-18.5 -14.5q-38 -24 -84 -24q-49 0 -78 32t-29 83q0 78 85 127q33 19 165 66v28q0 113 -81 113
q-68 0 -68 -70q0 -61 -41 -61q-19 0 -31.5 15.5t-12.5 38.5q0 44 50 76q49 31 119 31q148 0 148 -122v-260q0 -35 23 -35q26 0 51 40v-34zM245 548q0 13 -9.5 23t-23.5 10q-33 0 -33 -33t33 -33q14 0 23.5 9.5t9.5 23.5zM282 268q-167 -59 -167 -139q0 -33 20.5 -58
t47.5 -25q37 0 99 50v172z" />
    <glyph glyph-name="ae" unicode="&#xe6;" horiz-adv-x="712" 
d="M685 161q-18 -72 -76 -121q-59 -50 -122 -50q-57 0 -104.5 31t-74.5 83q-13 -29 -26 -41q-26 -22 -41 -34.5t-19 -14.5q-38 -24 -83 -24q-49 0 -78 32t-29 83q0 78 85 127q33 19 165 66v28q0 113 -81 113q-68 0 -68 -70q0 -61 -41 -61q-19 0 -31.5 15.5t-12.5 38.5
q0 44 50 76q49 31 119 31q103 0 133 -59q56 59 138 59q80 0 133 -54q53 -53 53 -131h-312q0 -95 42 -159q42 -65 106 -65q53 0 100 30q47 32 57 74zM570 308q0 52 -32 90q-31 37 -76 37q-38 0 -67 -38t-33 -89h208zM282 268q-167 -59 -167 -139q0 -33 20.5 -58t47.5 -25
q37 0 99 50v172z" />
    <glyph glyph-name="ccedilla" unicode="&#xe7;" horiz-adv-x="450" 
d="M421 174q-44 -177 -182 -184q-29 -27 -29 -50q0 -16 15 -19h29v-35h-21q-55 0 -55 41q0 30 41 63q-77 4 -133 71q-54 66 -54 157q0 103 63 177q65 74 154 74q71 0 115 -31q46 -31 46 -78q0 -21 -17 -36t-38 -15q-22 0 -35.5 15.5t-13.5 35.5q0 75 -70 75q-27 0 -49.5 -12
t-38.5 -33.5t-24.5 -50.5t-8.5 -62q0 -92 40 -154q40 -63 106 -63q93 0 141 120z" />
    <glyph glyph-name="egrave" unicode="&#xe8;" horiz-adv-x="462" 
d="M293 519h-28l-151 177h126zM435 161q-18 -72 -76 -121q-59 -50 -122 -50q-85 0 -145 65q-60 66 -60 158q0 112 57 184t149 72q80 0 133 -54q53 -53 53 -131h-312q0 -95 42 -159q42 -65 106 -65q53 0 100 30q47 32 57 74zM320 308q0 52 -32 90q-31 37 -76 37
q-38 0 -67 -38t-33 -89h208z" />
    <glyph glyph-name="eacute" unicode="&#xe9;" horiz-adv-x="462" 
d="M321 696l-151 -177h-28l53 177h126zM435 161q-18 -72 -76 -121q-59 -50 -122 -50q-85 0 -145 65q-60 66 -60 158q0 112 57 184t149 72q80 0 133 -54q53 -53 53 -131h-312q0 -95 42 -159q42 -65 106 -65q53 0 100 30q47 32 57 74zM320 308q0 52 -32 90q-31 37 -76 37
q-38 0 -67 -38t-33 -89h208z" />
    <glyph glyph-name="ecircumflex" unicode="&#xea;" horiz-adv-x="462" 
d="M379 519h-17l-131 107l-131 -107h-17l100 167h96zM435 161q-18 -72 -76 -121q-59 -50 -122 -50q-85 0 -145 65q-60 66 -60 158q0 112 57 184t149 72q80 0 133 -54q53 -53 53 -131h-312q0 -95 42 -159q42 -65 106 -65q53 0 100 30q47 32 57 74zM320 308q0 52 -32 90
q-31 37 -76 37q-38 0 -67 -38t-33 -89h208z" />
    <glyph glyph-name="edieresis" unicode="&#xeb;" horiz-adv-x="462" 
d="M363 574q0 -19 -16 -32t-37 -13q-22 0 -37.5 13t-15.5 32t15.5 32t37.5 13q21 0 37 -13t16 -32zM206 574q0 -19 -16 -32t-37 -13q-22 0 -37.5 13t-15.5 32t15.5 32t37.5 13q21 0 37 -13t16 -32zM435 161q-18 -72 -76 -121q-59 -50 -122 -50q-85 0 -145 65q-60 66 -60 158
q0 112 57 184t149 72q80 0 133 -54q53 -53 53 -131h-312q0 -95 42 -159q42 -65 106 -65q53 0 100 30q47 32 57 74zM320 308q0 52 -32 90q-31 37 -76 37q-38 0 -67 -38t-33 -89h208z" />
    <glyph glyph-name="igrave" unicode="&#xec;" horiz-adv-x="278" 
d="M209 519h-28l-151 177h126zM258 0h-227v18q44 0 59 21q13 17 13 68v216q0 46 -4 57q-5 18 -26 18q-11 0 -41 -8l-7 18l137 61h24v-362q0 -51 14 -70t58 -19v-18z" />
    <glyph glyph-name="iacute" unicode="&#xed;" horiz-adv-x="278" 
d="M229 696l-151 -177h-28l53 177h126zM258 0h-227v18q44 0 59 21q13 17 13 68v216q0 46 -4 57q-5 18 -26 18q-11 0 -41 -8l-7 18l137 61h24v-362q0 -51 14 -70t58 -19v-18z" />
    <glyph glyph-name="icircumflex" unicode="&#xee;" horiz-adv-x="278" 
d="M287 519h-17l-131 107l-131 -107h-17l100 167h96zM258 0h-227v18q44 0 59 21q13 17 13 68v216q0 46 -4 57q-5 18 -26 18q-11 0 -41 -8l-7 18l137 61h24v-362q0 -51 14 -70t58 -19v-18z" />
    <glyph glyph-name="idieresis" unicode="&#xef;" horiz-adv-x="278" 
d="M271 574q0 -19 -16 -32t-37 -13q-22 0 -37.5 13t-15.5 32t15.5 32t37.5 13q21 0 37 -13t16 -32zM114 574q0 -19 -16 -32t-37 -13q-22 0 -37.5 13t-15.5 32t15.5 32t37.5 13q21 0 37 -13t16 -32zM258 0h-227v18q44 0 59 21q13 17 13 68v216q0 46 -4 57q-5 18 -26 18
q-11 0 -41 -8l-7 18l137 61h24v-362q0 -51 14 -70t58 -19v-18z" />
    <glyph glyph-name="ntilde" unicode="&#xf1;" horiz-adv-x="518" 
d="M420 630q0 -36 -33 -55q-28 -16 -66 -16q-46 0 -94 20q-8 4 -15.5 8t-15.5 8q-20 9 -33 9q-41 0 -44 -36h-21q0 13 8 27q27 51 93 51q35 0 88 -22q54 -21 74 -21q35 0 37 27h22zM510 0h-227v18q44 0 59 21q13 17 13 68v208q0 92 -67 92q-56 0 -117 -66v-234q0 -51 14 -70
t58 -19v-18h-227v18q44 0 59 21q13 17 13 68v216q0 46 -4 57q-5 18 -26 18q-11 0 -41 -8l-7 18l137 61h24v-93q75 93 162 93q44 0 74 -41q31 -40 31 -98v-223q0 -51 14 -70t58 -19v-18z" />
    <glyph glyph-name="ograve" unicode="&#xf2;" horiz-adv-x="506" 
d="M293 519h-28l-151 177h126zM474 243q0 -107 -63 -180t-158 -73t-158 68q-63 67 -63 166q0 103 63 174t158 71t158 -66q63 -65 63 -160zM381 196q0 239 -148 239q-43 0 -76 -50q-32 -50 -32 -119q0 -103 38 -171q41 -71 106 -71q48 0 80 50q32 52 32 122z" />
    <glyph glyph-name="oacute" unicode="&#xf3;" horiz-adv-x="506" 
d="M351 696l-151 -177h-28l53 177h126zM474 243q0 -107 -63 -180t-158 -73t-158 68q-63 67 -63 166q0 103 63 174t158 71t158 -66q63 -65 63 -160zM381 196q0 239 -148 239q-43 0 -76 -50q-32 -50 -32 -119q0 -103 38 -171q41 -71 106 -71q48 0 80 50q32 52 32 122z" />
    <glyph glyph-name="ocircumflex" unicode="&#xf4;" horiz-adv-x="506" 
d="M401 519h-17l-131 107l-131 -107h-17l100 167h96zM474 243q0 -107 -63 -180t-158 -73t-158 68q-63 67 -63 166q0 103 63 174t158 71t158 -66q63 -65 63 -160zM381 196q0 239 -148 239q-43 0 -76 -50q-32 -50 -32 -119q0 -103 38 -171q41 -71 106 -71q48 0 80 50
q32 52 32 122z" />
    <glyph glyph-name="otilde" unicode="&#xf5;" horiz-adv-x="506" 
d="M414 630q0 -36 -33 -55q-28 -16 -66 -16q-46 0 -94 20q-8 4 -15.5 8t-15.5 8q-20 9 -33 9q-41 0 -44 -36h-21q0 13 8 27q27 51 93 51q35 0 88 -22q54 -21 74 -21q35 0 37 27h22zM474 243q0 -107 -63 -180t-158 -73t-158 68q-63 67 -63 166q0 103 63 174t158 71t158 -66
q63 -65 63 -160zM381 196q0 239 -148 239q-43 0 -76 -50q-32 -50 -32 -119q0 -103 38 -171q41 -71 106 -71q48 0 80 50q32 52 32 122z" />
    <glyph glyph-name="odieresis" unicode="&#xf6;" horiz-adv-x="506" 
d="M385 574q0 -19 -16 -32t-37 -13q-22 0 -37.5 13t-15.5 32t15.5 32t37.5 13q21 0 37 -13t16 -32zM228 574q0 -19 -16 -32t-37 -13q-22 0 -37.5 13t-15.5 32t15.5 32t37.5 13q21 0 37 -13t16 -32zM474 243q0 -107 -63 -180t-158 -73t-158 68q-63 67 -63 166q0 103 63 174
t158 71t158 -66q63 -65 63 -160zM381 196q0 239 -148 239q-43 0 -76 -50q-32 -50 -32 -119q0 -103 38 -171q41 -71 106 -71q48 0 80 50q32 52 32 122z" />
    <glyph glyph-name="divide" unicode="&#xf7;" horiz-adv-x="529" 
d="M353 533q0 -32 -24 -54t-59 -22t-59 22t-24 54t24 54t59 22t59 -22t24 -54zM465 312h-392v80h392v-80zM353 161q0 -16 -6.5 -30t-18 -24.5t-26.5 -16.5t-32 -6t-32 6t-26.5 16.5t-18 24.5t-6.5 30q0 32 24 54t59 22t59 -22t24 -54z" />
    <glyph glyph-name="oslash" unicode="&#xf8;" horiz-adv-x="506" 
d="M474 243q0 -107 -63 -180t-158 -73q-38 0 -72 12l-20 -51l-20 7l20 52q-60 28 -94.5 85t-34.5 129q0 103 63 174t158 71q40 0 79 -14l18 48l20 -8l-18 -48q57 -28 89.5 -82.5t32.5 -121.5zM381 196q0 134 -50 195l-132 -341q32 -26 70 -26q48 0 80 50q32 52 32 122z
M314 408q-33 27 -81 27q-43 0 -76 -50q-32 -50 -32 -119q0 -132 57 -199z" />
    <glyph glyph-name="ugrave" unicode="&#xf9;" horiz-adv-x="518" 
d="M293 519h-28l-151 177h126zM518 53l-140 -63h-24v96q-22 -39 -64 -68q-40 -28 -78 -28q-55 0 -94 42q-38 43 -38 101v229q0 46 -15 62.5t-57 16.5v18h155v-326q0 -35 27 -59t65 -24q25 0 54 21.5t45 52.5v238q0 46 -15 62.5t-57 16.5v18h155v-323q0 -45 9 -61t33 -16
q17 0 33 8z" />
    <glyph glyph-name="uacute" unicode="&#xfa;" horiz-adv-x="518" 
d="M321 696l-151 -177h-28l53 177h126zM518 53l-140 -63h-24v96q-22 -39 -64 -68q-40 -28 -78 -28q-55 0 -94 42q-38 43 -38 101v229q0 46 -15 62.5t-57 16.5v18h155v-326q0 -35 27 -59t65 -24q25 0 54 21.5t45 52.5v238q0 46 -15 62.5t-57 16.5v18h155v-323q0 -45 9 -61
t33 -16q17 0 33 8z" />
    <glyph glyph-name="ucircumflex" unicode="&#xfb;" horiz-adv-x="518" 
d="M407 519h-17l-131 107l-131 -107h-17l100 167h96zM518 53l-140 -63h-24v96q-22 -39 -64 -68q-40 -28 -78 -28q-55 0 -94 42q-38 43 -38 101v229q0 46 -15 62.5t-57 16.5v18h155v-326q0 -35 27 -59t65 -24q25 0 54 21.5t45 52.5v238q0 46 -15 62.5t-57 16.5v18h155v-323
q0 -45 9 -61t33 -16q17 0 33 8z" />
    <glyph glyph-name="udieresis" unicode="&#xfc;" horiz-adv-x="518" 
d="M381 574q0 -19 -16 -32t-37 -13q-22 0 -37.5 13t-15.5 32t15.5 32t37.5 13q21 0 37 -13t16 -32zM224 574q0 -19 -16 -32t-37 -13q-22 0 -37.5 13t-15.5 32t15.5 32t37.5 13q21 0 37 -13t16 -32zM518 53l-140 -63h-24v96q-22 -39 -64 -68q-40 -28 -78 -28q-55 0 -94 42
q-38 43 -38 101v229q0 46 -15 62.5t-57 16.5v18h155v-326q0 -35 27 -59t65 -24q25 0 54 21.5t45 52.5v238q0 46 -15 62.5t-57 16.5v18h155v-323q0 -45 9 -61t33 -16q17 0 33 8z" />
    <glyph glyph-name="ydieresis" unicode="&#xff;" horiz-adv-x="514" 
d="M389 574q0 -19 -16 -32t-37 -13q-22 0 -37.5 13t-15.5 32t15.5 32t37.5 13q21 0 37 -13t16 -32zM232 574q0 -19 -16 -32t-37 -13q-22 0 -37.5 13t-15.5 32t15.5 32t37.5 13q21 0 37 -13t16 -32zM497 441q-28 0 -41 -18q-11 -14 -30 -61l-185 -452q-22 -54 -61.5 -88
t-79.5 -34q-27 0 -46.5 14.5t-20.5 34.5q-2 51 51 51q20 0 35 -9t31 -9q31 0 66 83l29 70l-143 300q-55 118 -102 118v18h211v-18q-49 0 -49 -36q0 -13 35 -88l89 -188l95 234q14 34 14 50q0 28 -47 28v18h149v-18z" />
    <glyph glyph-name="Lslash" unicode="&#x141;" horiz-adv-x="628" 
d="M610 185l-59 -185h-531v18q54 0 75 18.5t21 71.5v172l-65 -56l-19 22l84 74v252q0 53 -21 71.5t-75 18.5v18h296v-18q-54 0 -75 -18.5t-21 -71.5v-162l59 51l20 -22l-79 -69v-285q0 -21 11.5 -36t27.5 -15h127q154 0 204 156z" />
    <glyph glyph-name="lslash" unicode="&#x142;" horiz-adv-x="342" 
d="M319 0h-296v18q54 0 75 18.5t21 71.5v174l-68 -58l-19 22l87 76v250q0 53 -21 71.5t-75 18.5v18h296v-18q-54 0 -75 -18.5t-21 -71.5v-159l56 48l20 -22l-76 -66v-265q0 -53 21 -71.5t75 -18.5v-18z" />
    <glyph glyph-name="OE" unicode="&#x152;" horiz-adv-x="1175" 
d="M1157 191l-61 -191h-430v159q-46 -81 -121 -127q-80 -48 -172 -48q-143 0 -242 105q-99 106 -99 255q0 147 99 249q99 103 242 103q92 0 172 -47q76 -45 121 -123v154h426l8 -162h-18q-14 66 -43 95q-33 33 -97 33h-172v-258h147q102 0 102 88h18v-230h-18
q0 108 -100 108h-149v-278q0 -17 12 -29.5t28 -12.5h142q132 0 181 157h24zM592 344q0 143 -57 229q-59 89 -162 89q-104 0 -163 -89q-56 -86 -56 -229q0 -145 56 -233q58 -93 163 -93q103 0 162 93q57 88 57 233z" />
    <glyph glyph-name="oe" unicode="&#x153;" horiz-adv-x="828" 
d="M801 161q-18 -72 -76 -121q-59 -50 -122 -50q-110 0 -172 101q-65 -101 -178 -101q-95 0 -158 68q-63 67 -63 166q0 103 63 174t158 71q119 0 184 -98q59 98 167 98q80 0 133 -54q53 -53 53 -131h-312q0 -95 42 -159q42 -65 106 -65q53 0 100 30q47 32 57 74zM686 308
q0 52 -32 90q-31 37 -76 37q-38 0 -67 -38t-33 -89h208zM381 196q0 239 -148 239q-43 0 -76 -50q-32 -50 -32 -119q0 -103 38 -171q41 -71 106 -71q48 0 80 50q32 52 32 122z" />
    <glyph glyph-name="Scaron" unicode="&#x160;" horiz-adv-x="560" 
d="M510 179q0 -82 -59 -138q-63 -57 -168 -57q-52 0 -106 20q-47 18 -62 18q-26 0 -32 -38h-18v230h18q8 -90 70 -142q59 -50 138 -50q53 0 90 31q39 31 39 81q0 68 -94 126l-174 100q-94 66 -94 153q0 78 56 131q56 52 146 52q34 0 85 -16q3 -1 11.5 -4.5t22.5 -9.5
q21 -8 31 -8q14 0 25.5 12.5t11.5 25.5h18v-237h-19q-9 94 -57 146.5t-129 52.5q-53 0 -89 -36q-33 -32 -33 -73q0 -59 96 -117l180 -104q96 -68 96 -149zM333 812l-48 -85h-48l-48 85h30l42 -55l42 55h30z" />
    <glyph glyph-name="scaron" unicode="&#x161;" horiz-adv-x="402" 
d="M367 129q0 -61 -42 -100t-118 -39q-29 0 -68 11q-38 12 -46 12q-15 0 -21 -13h-18v159h18q7 -56 48 -96q40 -39 89 -39q32 0 54 19.5t22 46.5q0 46 -61 80q-28 16 -56 31t-57 30q-61 43 -61 110q0 57 37 92.5t98 35.5q28 0 61 -9q34 -9 43 -9q16 0 21 18h18v-153h-18
q-3 52 -37 87q-35 36 -80 36q-36 0 -58.5 -18t-22.5 -43q0 -46 66 -80q31 -15 61.5 -30t61.5 -31q66 -44 66 -108zM264 602l-48 -85h-48l-48 85h29l43 -55l42 55h30z" />
    <glyph glyph-name="Ydieresis" unicode="&#x178;" horiz-adv-x="694" 
d="M479 764q0 -19 -16 -32t-37 -13q-22 0 -37.5 13t-15.5 32t15.5 32t37.5 13q21 0 37 -13t16 -32zM322 764q0 -19 -16 -32t-37 -13q-22 0 -37.5 13t-15.5 32t15.5 32t37.5 13q21 0 37 -13t16 -32zM695 662q-21 0 -38 -4.5t-31.5 -14.5t-28 -26t-28.5 -40l-178 -283v-186
q0 -53 21 -71.5t75 -18.5v-18h-296v18q54 0 75 18.5t21 71.5v175l-201 302q-27 40 -42 55q-23 22 -60 22v18h296v-18q-83 0 -81 -47q0 -19 18 -47l147 -236l153 246q10 16 10 35q0 49 -71 49v18h239v-18z" />
    <glyph glyph-name="Zcaron" unicode="&#x17d;" horiz-adv-x="622" 
d="M383 812l-48 -85h-48l-48 85h30l42 -55l42 55h30zM598 178l-32 -178h-556v17l438 624h-210q-76 0 -107 -28q-31 -27 -42 -104h-18l15 171h511l-451 -641h275q25 0 49 10.5t45 29t37.5 44t27.5 55.5h18z" />
    <glyph glyph-name="zcaron" unicode="&#x17e;" horiz-adv-x="463" 
d="M304 602l-48 -85h-48l-48 85h29l43 -55l42 55h30zM442 441l-308 -407h195q39 0 60 15q27 19 33 97h18l-10 -146h-408v24l302 401h-165q-40 0 -57 -17q-23 -23 -24 -76h-18v127h382v-18z" />
    <glyph glyph-name="circumflex" unicode="&#x2c6;" horiz-adv-x="328" 
d="M213 906l100 -167h-17l-131 107l-131 -107h-17l100 167h96z" />
    <glyph glyph-name="caron" unicode="&#x2c7;" horiz-adv-x="328" 
d="M117 739l-100 167h17l131 -107l131 107h17l-100 -167h-96z" />
    <glyph glyph-name="ogonek" unicode="&#x2db;" horiz-adv-x="346" 
d="M224 -150h-29q-76 0 -76 57q0 42 63 93h28q-47 -42 -47 -75q0 -22 22 -26h39v-49z" />
    <glyph glyph-name="hungarumlaut" unicode="&#x2dd;" 
d="M190 896l-151 -177h-28l53 177h126zM330 896l-151 -177h-28l53 177h126z" />
    <glyph glyph-name="uni0591" unicode="&#x591;" 
d="M297 348q0 -54 -38 -92q-37 -37 -91 -37t-91 37t-37 92q0 54 37 91q38 38 91 38t91 -38t38 -91zM261 348q0 40 -27 66.5t-66 26.5t-66 -26.5t-27 -66.5q0 -19 7 -36t20 -30t29.5 -20.5t36.5 -7.5q19 0 36 7.5t30 20.5t20 30t7 36z" />
    <glyph glyph-name="uni0592" unicode="&#x592;" 
d="M297 348q0 -54 -38 -92q-37 -37 -91 -37t-91 37t-37 92q0 54 37 91q38 38 91 38t91 -38t38 -91zM261 348q0 40 -27 66.5t-66 26.5t-66 -26.5t-27 -66.5q0 -19 7 -36t20 -30t29.5 -20.5t36.5 -7.5q19 0 36 7.5t30 20.5t20 30t7 36z" />
    <glyph glyph-name="uni0593" unicode="&#x593;" 
d="M297 348q0 -54 -38 -92q-37 -37 -91 -37t-91 37t-37 92q0 54 37 91q38 38 91 38t91 -38t38 -91zM261 348q0 40 -27 66.5t-66 26.5t-66 -26.5t-27 -66.5q0 -19 7 -36t20 -30t29.5 -20.5t36.5 -7.5q19 0 36 7.5t30 20.5t20 30t7 36z" />
    <glyph glyph-name="uni0594" unicode="&#x594;" 
d="M297 348q0 -54 -38 -92q-37 -37 -91 -37t-91 37t-37 92q0 54 37 91q38 38 91 38t91 -38t38 -91zM261 348q0 40 -27 66.5t-66 26.5t-66 -26.5t-27 -66.5q0 -19 7 -36t20 -30t29.5 -20.5t36.5 -7.5q19 0 36 7.5t30 20.5t20 30t7 36z" />
    <glyph glyph-name="uni0595" unicode="&#x595;" 
d="M297 348q0 -54 -38 -92q-37 -37 -91 -37t-91 37t-37 92q0 54 37 91q38 38 91 38t91 -38t38 -91zM261 348q0 40 -27 66.5t-66 26.5t-66 -26.5t-27 -66.5q0 -19 7 -36t20 -30t29.5 -20.5t36.5 -7.5q19 0 36 7.5t30 20.5t20 30t7 36z" />
    <glyph glyph-name="uni0596" unicode="&#x596;" 
d="M297 348q0 -54 -38 -92q-37 -37 -91 -37t-91 37t-37 92q0 54 37 91q38 38 91 38t91 -38t38 -91zM261 348q0 40 -27 66.5t-66 26.5t-66 -26.5t-27 -66.5q0 -19 7 -36t20 -30t29.5 -20.5t36.5 -7.5q19 0 36 7.5t30 20.5t20 30t7 36z" />
    <glyph glyph-name="uni0597" unicode="&#x597;" 
d="M297 348q0 -54 -38 -92q-37 -37 -91 -37t-91 37t-37 92q0 54 37 91q38 38 91 38t91 -38t38 -91zM261 348q0 40 -27 66.5t-66 26.5t-66 -26.5t-27 -66.5q0 -19 7 -36t20 -30t29.5 -20.5t36.5 -7.5q19 0 36 7.5t30 20.5t20 30t7 36z" />
    <glyph glyph-name="uni0598" unicode="&#x598;" 
d="M297 348q0 -54 -38 -92q-37 -37 -91 -37t-91 37t-37 92q0 54 37 91q38 38 91 38t91 -38t38 -91zM261 348q0 40 -27 66.5t-66 26.5t-66 -26.5t-27 -66.5q0 -19 7 -36t20 -30t29.5 -20.5t36.5 -7.5q19 0 36 7.5t30 20.5t20 30t7 36z" />
    <glyph glyph-name="uni0599" unicode="&#x599;" 
d="M297 348q0 -54 -38 -92q-37 -37 -91 -37t-91 37t-37 92q0 54 37 91q38 38 91 38t91 -38t38 -91zM261 348q0 40 -27 66.5t-66 26.5t-66 -26.5t-27 -66.5q0 -19 7 -36t20 -30t29.5 -20.5t36.5 -7.5q19 0 36 7.5t30 20.5t20 30t7 36z" />
    <glyph glyph-name="uni059A" unicode="&#x59a;" 
d="M297 348q0 -54 -38 -92q-37 -37 -91 -37t-91 37t-37 92q0 54 37 91q38 38 91 38t91 -38t38 -91zM261 348q0 40 -27 66.5t-66 26.5t-66 -26.5t-27 -66.5q0 -19 7 -36t20 -30t29.5 -20.5t36.5 -7.5q19 0 36 7.5t30 20.5t20 30t7 36z" />
    <glyph glyph-name="uni059B" unicode="&#x59b;" 
d="M297 348q0 -54 -38 -92q-37 -37 -91 -37t-91 37t-37 92q0 54 37 91q38 38 91 38t91 -38t38 -91zM261 348q0 40 -27 66.5t-66 26.5t-66 -26.5t-27 -66.5q0 -19 7 -36t20 -30t29.5 -20.5t36.5 -7.5q19 0 36 7.5t30 20.5t20 30t7 36z" />
    <glyph glyph-name="uni059C" unicode="&#x59c;" 
d="M297 348q0 -54 -38 -92q-37 -37 -91 -37t-91 37t-37 92q0 54 37 91q38 38 91 38t91 -38t38 -91zM261 348q0 40 -27 66.5t-66 26.5t-66 -26.5t-27 -66.5q0 -19 7 -36t20 -30t29.5 -20.5t36.5 -7.5q19 0 36 7.5t30 20.5t20 30t7 36z" />
    <glyph glyph-name="uni059D" unicode="&#x59d;" 
d="M297 348q0 -54 -38 -92q-37 -37 -91 -37t-91 37t-37 92q0 54 37 91q38 38 91 38t91 -38t38 -91zM261 348q0 40 -27 66.5t-66 26.5t-66 -26.5t-27 -66.5q0 -19 7 -36t20 -30t29.5 -20.5t36.5 -7.5q19 0 36 7.5t30 20.5t20 30t7 36z" />
    <glyph glyph-name="uni059E" unicode="&#x59e;" 
d="M297 348q0 -54 -38 -92q-37 -37 -91 -37t-91 37t-37 92q0 54 37 91q38 38 91 38t91 -38t38 -91zM261 348q0 40 -27 66.5t-66 26.5t-66 -26.5t-27 -66.5q0 -19 7 -36t20 -30t29.5 -20.5t36.5 -7.5q19 0 36 7.5t30 20.5t20 30t7 36z" />
    <glyph glyph-name="uni059F" unicode="&#x59f;" 
d="M297 348q0 -54 -38 -92q-37 -37 -91 -37t-91 37t-37 92q0 54 37 91q38 38 91 38t91 -38t38 -91zM261 348q0 40 -27 66.5t-66 26.5t-66 -26.5t-27 -66.5q0 -19 7 -36t20 -30t29.5 -20.5t36.5 -7.5q19 0 36 7.5t30 20.5t20 30t7 36z" />
    <glyph glyph-name="uni05A0" unicode="&#x5a0;" 
d="M297 348q0 -54 -38 -92q-37 -37 -91 -37t-91 37t-37 92q0 54 37 91q38 38 91 38t91 -38t38 -91zM261 348q0 40 -27 66.5t-66 26.5t-66 -26.5t-27 -66.5q0 -19 7 -36t20 -30t29.5 -20.5t36.5 -7.5q19 0 36 7.5t30 20.5t20 30t7 36z" />
    <glyph glyph-name="uni05A1" unicode="&#x5a1;" 
d="M297 348q0 -54 -38 -92q-37 -37 -91 -37t-91 37t-37 92q0 54 37 91q38 38 91 38t91 -38t38 -91zM261 348q0 40 -27 66.5t-66 26.5t-66 -26.5t-27 -66.5q0 -19 7 -36t20 -30t29.5 -20.5t36.5 -7.5q19 0 36 7.5t30 20.5t20 30t7 36z" />
    <glyph glyph-name="uni05A3" unicode="&#x5a3;" 
d="M297 348q0 -54 -38 -92q-37 -37 -91 -37t-91 37t-37 92q0 54 37 91q38 38 91 38t91 -38t38 -91zM261 348q0 40 -27 66.5t-66 26.5t-66 -26.5t-27 -66.5q0 -19 7 -36t20 -30t29.5 -20.5t36.5 -7.5q19 0 36 7.5t30 20.5t20 30t7 36z" />
    <glyph glyph-name="uni05A4" unicode="&#x5a4;" 
d="M297 348q0 -54 -38 -92q-37 -37 -91 -37t-91 37t-37 92q0 54 37 91q38 38 91 38t91 -38t38 -91zM261 348q0 40 -27 66.5t-66 26.5t-66 -26.5t-27 -66.5q0 -19 7 -36t20 -30t29.5 -20.5t36.5 -7.5q19 0 36 7.5t30 20.5t20 30t7 36z" />
    <glyph glyph-name="uni05A5" unicode="&#x5a5;" 
d="M297 348q0 -54 -38 -92q-37 -37 -91 -37t-91 37t-37 92q0 54 37 91q38 38 91 38t91 -38t38 -91zM261 348q0 40 -27 66.5t-66 26.5t-66 -26.5t-27 -66.5q0 -19 7 -36t20 -30t29.5 -20.5t36.5 -7.5q19 0 36 7.5t30 20.5t20 30t7 36z" />
    <glyph glyph-name="uni05A6" unicode="&#x5a6;" 
d="M297 348q0 -54 -38 -92q-37 -37 -91 -37t-91 37t-37 92q0 54 37 91q38 38 91 38t91 -38t38 -91zM261 348q0 40 -27 66.5t-66 26.5t-66 -26.5t-27 -66.5q0 -19 7 -36t20 -30t29.5 -20.5t36.5 -7.5q19 0 36 7.5t30 20.5t20 30t7 36z" />
    <glyph glyph-name="uni05A7" unicode="&#x5a7;" 
d="M297 348q0 -54 -38 -92q-37 -37 -91 -37t-91 37t-37 92q0 54 37 91q38 38 91 38t91 -38t38 -91zM261 348q0 40 -27 66.5t-66 26.5t-66 -26.5t-27 -66.5q0 -19 7 -36t20 -30t29.5 -20.5t36.5 -7.5q19 0 36 7.5t30 20.5t20 30t7 36z" />
    <glyph glyph-name="uni05A8" unicode="&#x5a8;" 
d="M297 348q0 -54 -38 -92q-37 -37 -91 -37t-91 37t-37 92q0 54 37 91q38 38 91 38t91 -38t38 -91zM261 348q0 40 -27 66.5t-66 26.5t-66 -26.5t-27 -66.5q0 -19 7 -36t20 -30t29.5 -20.5t36.5 -7.5q19 0 36 7.5t30 20.5t20 30t7 36z" />
    <glyph glyph-name="uni05A9" unicode="&#x5a9;" 
d="M297 348q0 -54 -38 -92q-37 -37 -91 -37t-91 37t-37 92q0 54 37 91q38 38 91 38t91 -38t38 -91zM261 348q0 40 -27 66.5t-66 26.5t-66 -26.5t-27 -66.5q0 -19 7 -36t20 -30t29.5 -20.5t36.5 -7.5q19 0 36 7.5t30 20.5t20 30t7 36z" />
    <glyph glyph-name="uni05AA" unicode="&#x5aa;" 
d="M297 348q0 -54 -38 -92q-37 -37 -91 -37t-91 37t-37 92q0 54 37 91q38 38 91 38t91 -38t38 -91zM261 348q0 40 -27 66.5t-66 26.5t-66 -26.5t-27 -66.5q0 -19 7 -36t20 -30t29.5 -20.5t36.5 -7.5q19 0 36 7.5t30 20.5t20 30t7 36z" />
    <glyph glyph-name="uni05AB" unicode="&#x5ab;" 
d="M297 348q0 -54 -38 -92q-37 -37 -91 -37t-91 37t-37 92q0 54 37 91q38 38 91 38t91 -38t38 -91zM261 348q0 40 -27 66.5t-66 26.5t-66 -26.5t-27 -66.5q0 -19 7 -36t20 -30t29.5 -20.5t36.5 -7.5q19 0 36 7.5t30 20.5t20 30t7 36z" />
    <glyph glyph-name="uni05AC" unicode="&#x5ac;" 
d="M297 348q0 -54 -38 -92q-37 -37 -91 -37t-91 37t-37 92q0 54 37 91q38 38 91 38t91 -38t38 -91zM261 348q0 40 -27 66.5t-66 26.5t-66 -26.5t-27 -66.5q0 -19 7 -36t20 -30t29.5 -20.5t36.5 -7.5q19 0 36 7.5t30 20.5t20 30t7 36z" />
    <glyph glyph-name="uni05AD" unicode="&#x5ad;" 
d="M297 348q0 -54 -38 -92q-37 -37 -91 -37t-91 37t-37 92q0 54 37 91q38 38 91 38t91 -38t38 -91zM261 348q0 40 -27 66.5t-66 26.5t-66 -26.5t-27 -66.5q0 -19 7 -36t20 -30t29.5 -20.5t36.5 -7.5q19 0 36 7.5t30 20.5t20 30t7 36z" />
    <glyph glyph-name="uni05AE" unicode="&#x5ae;" 
d="M297 348q0 -54 -38 -92q-37 -37 -91 -37t-91 37t-37 92q0 54 37 91q38 38 91 38t91 -38t38 -91zM261 348q0 40 -27 66.5t-66 26.5t-66 -26.5t-27 -66.5q0 -19 7 -36t20 -30t29.5 -20.5t36.5 -7.5q19 0 36 7.5t30 20.5t20 30t7 36z" />
    <glyph glyph-name="uni05AF" unicode="&#x5af;" 
d="M297 348q0 -54 -38 -92q-37 -37 -91 -37t-91 37t-37 92q0 54 37 91q38 38 91 38t91 -38t38 -91zM261 348q0 40 -27 66.5t-66 26.5t-66 -26.5t-27 -66.5q0 -19 7 -36t20 -30t29.5 -20.5t36.5 -7.5q19 0 36 7.5t30 20.5t20 30t7 36z" />
    <glyph glyph-name="sheva" unicode="&#x5b0;" horiz-adv-x="1" 
d="M33 -137q0 -14 -9.5 -23.5t-23.5 -9.5t-23.5 9.5t-9.5 23.5t9.5 23.5t23.5 9.5t23.5 -9.5t9.5 -23.5zM33 -237q0 -14 -9.5 -23.5t-23.5 -9.5t-23.5 9.5t-9.5 23.5t9.5 23.5t23.5 9.5t23.5 -9.5t9.5 -23.5z" />
    <glyph glyph-name="hatafsegol" unicode="&#x5b1;" horiz-adv-x="1" 
d="M-72 -137q0 -14 -9.5 -23.5t-23.5 -9.5t-23.5 9.5t-9.5 23.5t9.5 23.5t23.5 9.5t23.5 -9.5t9.5 -23.5zM33 -137q0 -14 -9.5 -23.5t-23.5 -9.5t-23.5 9.5t-9.5 23.5t9.5 23.5t23.5 9.5t23.5 -9.5t9.5 -23.5zM133 -137q0 -14 -9.5 -23.5t-23.5 -9.5t-23.5 9.5t-9.5 23.5
t9.5 23.5t23.5 9.5t23.5 -9.5t9.5 -23.5zM133 -237q0 -14 -9.5 -23.5t-23.5 -9.5t-23.5 9.5t-9.5 23.5t9.5 23.5t23.5 9.5t23.5 -9.5t9.5 -23.5zM-19 -237q0 -14 -9.5 -23.5t-23.5 -9.5t-23.5 9.5t-9.5 23.5t9.5 23.5t23.5 9.5t23.5 -9.5t9.5 -23.5z" />
    <glyph glyph-name="hatafpatah" unicode="&#x5b2;" horiz-adv-x="1" 
d="M23 -158h-154v43h154v-43zM133 -137q0 -14 -9.5 -23.5t-23.5 -9.5t-23.5 9.5t-9.5 23.5t9.5 23.5t23.5 9.5t23.5 -9.5t9.5 -23.5zM133 -237q0 -14 -9.5 -23.5t-23.5 -9.5t-23.5 9.5t-9.5 23.5t9.5 23.5t23.5 9.5t23.5 -9.5t9.5 -23.5z" />
    <glyph glyph-name="hatafqamats" unicode="&#x5b3;" horiz-adv-x="1" 
d="M24 -158h-62q6 -44 6 -61v-45h-43v45q0 -7 6 61h-61v43h154v-43zM133 -137q0 -14 -9.5 -23.5t-23.5 -9.5t-23.5 9.5t-9.5 23.5t9.5 23.5t23.5 9.5t23.5 -9.5t9.5 -23.5zM133 -237q0 -14 -9.5 -23.5t-23.5 -9.5t-23.5 9.5t-9.5 23.5t9.5 23.5t23.5 9.5t23.5 -9.5
t9.5 -23.5z" />
    <glyph glyph-name="hiriq" unicode="&#x5b4;" horiz-adv-x="1" 
d="M33 -137q0 -14 -9.5 -23.5t-23.5 -9.5t-23.5 9.5t-9.5 23.5t9.5 23.5t23.5 9.5t23.5 -9.5t9.5 -23.5z" />
    <glyph glyph-name="tsere" unicode="&#x5b5;" horiz-adv-x="1" 
d="M-19 -137q0 -14 -9.5 -23.5t-23.5 -9.5t-23.5 9.5t-9.5 23.5t9.5 23.5t23.5 9.5t23.5 -9.5t9.5 -23.5zM86 -137q0 -14 -9.5 -23.5t-23.5 -9.5t-23.5 9.5t-9.5 23.5t9.5 23.5t23.5 9.5t23.5 -9.5t9.5 -23.5z" />
    <glyph glyph-name="segol" unicode="&#x5b6;" horiz-adv-x="1" 
d="M-20 -137q0 -14 -9.5 -23.5t-23.5 -9.5t-23.5 9.5t-9.5 23.5t9.5 23.5t23.5 9.5t23.5 -9.5t9.5 -23.5zM85 -137q0 -14 -9.5 -23.5t-23.5 -9.5t-23.5 9.5t-9.5 23.5t9.5 23.5t23.5 9.5t23.5 -9.5t9.5 -23.5zM33 -237q0 -14 -9.5 -23.5t-23.5 -9.5t-23.5 9.5t-9.5 23.5
t9.5 23.5t23.5 9.5t23.5 -9.5t9.5 -23.5z" />
    <glyph glyph-name="patah" unicode="&#x5b7;" horiz-adv-x="1" 
d="M78 -158h-156v43h156v-43z" />
    <glyph glyph-name="qamats" unicode="&#x5b8;" horiz-adv-x="1" 
d="M78 -158h-63l5 -49v-4t1 -4q0 -3 1 -4v-45h-44v45l2 12q2 8 2.5 20t2.5 29h-63v43h156v-43z" />
    <glyph glyph-name="holam" unicode="&#x5b9;" horiz-adv-x="1" 
d="M33 582q0 -14 -9.5 -23.5t-23.5 -9.5t-23.5 9.5t-9.5 23.5t9.5 23.5t23.5 9.5t23.5 -9.5t9.5 -23.5z" />
    <glyph glyph-name="qubuts" unicode="&#x5bb;" horiz-adv-x="1" 
d="M-25 -137q0 -14 -9.5 -23.5t-23.5 -9.5t-23.5 9.5t-9.5 23.5t9.5 23.5t23.5 9.5t23.5 -9.5t9.5 -23.5zM33 -214q0 -14 -9.5 -23.5t-23.5 -9.5t-23.5 9.5t-9.5 23.5t9.5 23.5t23.5 9.5t23.5 -9.5t9.5 -23.5zM88 -294q0 -14 -9.5 -23.5t-23.5 -9.5t-23.5 9.5t-9.5 23.5
t9.5 23.5t23.5 9.5t23.5 -9.5t9.5 -23.5z" />
    <glyph glyph-name="dagesh" unicode="&#x5bc;" horiz-adv-x="1" 
d="M35 238q0 -14 -9.5 -23.5t-23.5 -9.5t-23.5 9.5t-9.5 23.5t9.5 23.5t23.5 9.5t23.5 -9.5t9.5 -23.5z" />
    <glyph glyph-name="meteg" unicode="&#x5bd;" horiz-adv-x="1" 
d="M14 -229h-28v127h28v-127z" />
    <glyph glyph-name="maqaf" unicode="&#x5be;" horiz-adv-x="330" 
d="M290 468l-28 -80h-213l28 80h213z" />
    <glyph glyph-name="rafe" unicode="&#x5bf;" horiz-adv-x="1" 
d="M127 585h-254v54h254v-54z" />
    <glyph glyph-name="paseq" unicode="&#x5c0;" horiz-adv-x="168" 
d="M108 -130h-48v747h48v-747z" />
    <glyph glyph-name="shindot" unicode="&#x5c1;" horiz-adv-x="1" 
d="M33 582q0 -14 -9.5 -23.5t-23.5 -9.5t-23.5 9.5t-9.5 23.5t9.5 23.5t23.5 9.5t23.5 -9.5t9.5 -23.5z" />
    <glyph glyph-name="sindot" unicode="&#x5c2;" horiz-adv-x="1" 
d="M33 582q0 -14 -9.5 -23.5t-23.5 -9.5t-23.5 9.5t-9.5 23.5t9.5 23.5t23.5 9.5t23.5 -9.5t9.5 -23.5z" />
    <glyph glyph-name="sofpasuq" unicode="&#x5c3;" horiz-adv-x="210" 
d="M212 411q0 -30 -21.5 -52t-51.5 -22q-31 0 -52.5 21.5t-21.5 52.5q0 30 21.5 51.5t52.5 21.5q30 0 51.5 -21.5t21.5 -51.5zM212 56q0 -30 -21.5 -52t-51.5 -22q-31 0 -52.5 21.5t-21.5 52.5q0 30 21.5 51.5t52.5 21.5q30 0 51.5 -21.5t21.5 -51.5z" />
    <glyph glyph-name="uni05C4" unicode="&#x5c4;" horiz-adv-x="1" 
d="M38 551h-75v74h75v-74z" />
    <glyph glyph-name="alef" unicode="&#x5d0;" horiz-adv-x="550" 
d="M515 59l-42 -82l-39 48q-57 71 -120.5 142.5t-135.5 144.5q-54 -71 -54 -138q0 -79 12 -85h61l-38 -89h-126l24 46v25q0 71 6 101q4 23 13.5 46t23.5 46q25 39 53 70l-120 92l51 66q39 -32 70.5 -59.5t55.5 -50.5q43 -41 111 -111l46 -47q37 55 37 94q0 29 -26 89l77 84
q26 -52 26 -84q0 -80 -89 -208z" />
    <glyph glyph-name="bet" unicode="&#x5d1;" horiz-adv-x="464" 
d="M442 80l-62 -80h-359l56 80h233v238q0 40 -8.5 55t-36.5 15h-244q20 29 44.5 61t53.5 66v-47h136q80 0 103 -29q22 -28 22 -92v-267h62z" />
    <glyph glyph-name="gimel" unicode="&#x5d2;" horiz-adv-x="313" 
d="M288 37l-39 -60l-28 149q-35 -81 -94 -107l-93 -42l37 103q49 15 86 38q32 21 52 72q-12 108 -43 145q-27 33 -124 77l53 79l84 -56l20 -13q41 -30 50 -97z" />
    <glyph glyph-name="dalet" unicode="&#x5d3;" horiz-adv-x="444" 
d="M428 468l-36 -80h-48v-342l-65 -69v411h-253q8 11 19.5 28t28.5 40l50 59v-47h173l47 47v-47h84z" />
    <glyph glyph-name="he" unicode="&#x5d4;" horiz-adv-x="522" 
d="M474 57l-70 -80v359q0 33 -10.5 42.5t-44.5 9.5h-315q16 24 29 42.5t24 31.5l45 53v-47h202q94 0 121 -34q19 -19 19 -95v-282zM151 46l-70 -69v257l70 70v-258z" />
    <glyph glyph-name="vav" unicode="&#x5d5;" horiz-adv-x="287" 
d="M250 42l-70 -65v314q0 29 -13 45q-9 11 -38 29l-89 56l61 80l107 -84q42 -33 42 -80v-295z" />
    <glyph glyph-name="zayin" unicode="&#x5d6;" horiz-adv-x="306" 
d="M245 300l-75 55q-6 -21 -6 -42q0 -31 26 -103l50 -135l-47 -98l-67 211q-17 56 -17 93q0 30 29 83l4 6l-103 61l61 60q19 -10 42 -24t51 -32q14 -8 35 -24.5t50 -40.5z" />
    <glyph glyph-name="het" unicode="&#x5d7;" horiz-adv-x="520" 
d="M479 51l-57 -74v271q0 62 -31 99q-35 41 -94 41h-168v-351l-56 -60v284q0 80 -9 106q-9 27 -20 35q37 76 85 113v-47h160q88 0 139 -49.5t51 -137.5v-230z" />
    <glyph glyph-name="tet" unicode="&#x5d8;" horiz-adv-x="550" 
d="M519 302q1 -83 -42 -156q-41 -72 -113 -112q-70 -37 -143 -39q-55 -1 -70 15q-10 10 -25 74l-37 151q-29 117 -43 141l-12 22l61 93q26 -49 44 -146q43 -242 54 -270q16 -2 32 -3.5t33 -1.5q88 -1 142 53t54 142q0 125 -116 127q-29 0 -63 -17l-44 -24l37 98q30 21 91 23
q88 1 135 -75q24 -40 25 -95z" />
    <glyph glyph-name="yod" unicode="&#x5d9;" horiz-adv-x="286" 
d="M249 325q1 -56 -98 -180l-51 -19q11 24 39 68q41 66 45 103q0 23 -16 39q-12 17 -134 86l61 79q88 -68 96 -75q57 -52 58 -101z" />
    <glyph glyph-name="finalkaf" unicode="&#x5da;" horiz-adv-x="444" 
d="M428 468l-36 -80h-48v-510l-65 -70v580h-253q10 17 21.5 33t25.5 33l51 61v-47h173l47 47v-47h84z" />
    <glyph glyph-name="kaf" unicode="&#x5db;" horiz-adv-x="444" 
d="M423 281q0 -142 -113 -281h-277l56 80h229q36 63 38 151q1 157 -120 157h-190q31 48 93 120l6 7v-47h113q81 0 124 -55q41 -50 41 -132z" />
    <glyph glyph-name="lamed" unicode="&#x5dc;" horiz-adv-x="418" 
d="M379 328q0 -128 -109 -228q-92 -84 -228 -123l48 103q95 17 155 66q70 58 70 148v34q0 34 -11 47t-45 13h-196q-20 0 -20 21v30q0 112 -23 132l61 80l4 -8q10 -19 10 -69v-106h150q69 0 89 -6q20 -5 34 -29q11 -25 11 -48v-57z" />
    <glyph glyph-name="finalmem" unicode="&#x5dd;" horiz-adv-x="575" 
d="M539 260q0 -88 -9 -134q-13 -79 -59 -117q-11 -9 -38 -9h-287q-19 9 -43 39q-17 26 -17 69v257q0 20 -6.5 27t-26.5 10q20 35 42.5 63t46.5 50v-47h159q42 0 72 -1.5t47 -3.5q78 -10 101 -50q18 -32 18 -153zM479 228q1 103 -32 135q-20 19 -66 24q-7 1 -25 1h-47h-167
v-308h327q8 33 10 148z" />
    <glyph glyph-name="mem" unicode="&#x5de;" horiz-adv-x="536" 
d="M498 164q0 -60 -19 -91l-44 -73h-267l57 80h220q1 10 2 24t2 33q1 112 -36 189q-35 72 -109 72q-76 0 -146 -181q-8 -20 -21.5 -64.5t-33.5 -115.5l-75 -60q6 21 15 51.5t22 72.5q41 134 42 170q1 68 -65 150l56 85q32 -29 48 -101q14 -61 14 -113q16 66 63 128
q48 61 114 61q159 0 161 -317z" />
    <glyph glyph-name="finalnun" unicode="&#x5df;" horiz-adv-x="287" 
d="M256 -127l-69 -65v483q0 40 -33 61l-109 69l62 80l89 -71q46 -37 52 -52q8 -24 8 -41v-464z" />
    <glyph glyph-name="nun" unicode="&#x5e0;" horiz-adv-x="287" 
d="M245 93l-57 -93h-168l38 80h135q2 31 3.5 61.5t1.5 59.5q0 110 -22 135q-6 7 -18.5 17.5t-28 22t-34 23t-37.5 22.5l51 80q36 -20 76 -53q53 -43 58 -67q1 -5 1.5 -14t0.5 -22v-252z" />
    <glyph glyph-name="samekh" unicode="&#x5e1;" horiz-adv-x="548" 
d="M511 335q0 -100 -43 -177q-45 -81 -117 -126q-71 -44 -140 -46q-48 -2 -69 60l-67 287q-6 25 -17 33q-19 16 -42 22l103 127l9 -47h275q37 0 50 -4q25 -8 39 -29q19 -22 19 -100zM446 292q0 96 -72 96h-232l61 -294q6 -28 52 -29q79 -1 137 75q54 70 54 152z" />
    <glyph glyph-name="ayin" unicode="&#x5e2;" horiz-adv-x="437" 
d="M407 351q0 -186 -105 -264q-46 -34 -223 -123q-29 -14 -47 -26l33 104q12 3 28.5 8.5t37.5 13.5q13 5 32 13t45 19l-30 80l-34 90q-29 70 -99 165l71 79q67 -155 96 -246l47 -146l41 30q45 43 47 93q1 78 -44 190l85 79q19 -82 19 -159z" />
    <glyph glyph-name="finalpe" unicode="&#x5e3;" horiz-adv-x="420" 
d="M376 -127l-55 -65v420q0 52 -17 84q-16 30 -69 59q-24 13 -48.5 24t-50.5 19q-39 -44 -41 -74q-1 -40 67 -78l-42 -65q-89 41 -89 113q0 60 123 189q55 -17 108 -46q66 -35 92 -70q22 -28 22 -87v-423z" />
    <glyph glyph-name="pe" unicode="&#x5e4;" horiz-adv-x="435" 
d="M406 262q0 -85 -9 -166l-48 -96h-323l46 80h268q9 70 9 113q0 32 -0.5 50.5t-1.5 25.5q-6 43 -32 66q-16 14 -74 45q-24 13 -43.5 21t-33.5 13q-6 -2 -12.5 -9t-12.5 -18t-9.5 -24.5t-3.5 -26.5q0 -46 64 -74l-43 -65q-87 43 -87 114q0 37 49 102q21 28 40.5 49.5
t38.5 36.5q24 -8 51 -20.5t58 -29.5q92 -52 103 -111q6 -35 6 -76z" />
    <glyph glyph-name="finaltsadi" unicode="&#x5e5;" horiz-adv-x="418" 
d="M344 -192q-18 172 -100 339q-90 184 -217 274l61 60q93 -78 178 -237q30 64 30 97q0 35 -17 71l66 69q8 -23 12 -44.5t5 -43.5q1 -73 -83 -177q32 -51 67 -167q14 -48 24 -92t17 -84z" />
    <glyph glyph-name="tsadi" unicode="&#x5e6;" horiz-adv-x="470" 
d="M414 105q0 -23 -27 -63q-16 -24 -27 -34q-10 -8 -52 -8h-281l51 80h277q-17 29 -36.5 53t-40.5 44q-155 143 -217 244l60 60q49 -105 181 -223q37 49 37 89q0 27 -27 65l65 69q34 -52 34 -108t-82 -141l31 -38q54 -68 54 -89z" />
    <glyph glyph-name="qof" unicode="&#x5e7;" horiz-adv-x="548" 
d="M502 319q0 -109 -95 -204q-38 -38 -86.5 -69t-107.5 -56l37 89q86 20 137 83t51 151v14q0 40 -15 50.5t-42 10.5h-346q17 25 41.5 56.5t56.5 70.5v-47h235q81 0 107 -26q27 -26 27 -105v-18zM165 -103l-51 -89l-38 416l61 104z" />
    <glyph glyph-name="resh" unicode="&#x5e8;" horiz-adv-x="420" 
d="M396 57l-71 -80v294q0 55 -12 81q-18 36 -67 36h-206q59 90 98 127v-47h112q69 0 107.5 -42.5t38.5 -111.5v-257z" />
    <glyph glyph-name="shin" unicode="&#x5e9;" horiz-adv-x="575" 
d="M531 360q1 -98 -37 -172q-35 -66 -115 -134t-166 -68q-45 0 -65 74l-37 137q-9 34 -21 72.5t-26 81.5q-8 23 -15 40.5t-14 29.5l61 80q22 -39 34.5 -80t22.5 -93l22 -117q88 45 88 117q0 47 -17 103l70 70q19 -64 19 -113q0 -140 -149 -232l13 -58q4 -19 12 -26t31 -7
q39 0 94 32q123 73 125 171q1 20 -6.5 57t-21.5 91l75 85q23 -92 23 -141z" />
    <glyph glyph-name="tav" unicode="&#x5ea;" horiz-adv-x="548" 
d="M519 57l-64 -80v338q0 37 -11 55t-50 18h-168l14 -117q4 -34 6.5 -70.5t3.5 -74.5l-27 -126h-184l56 80h103q0 21 -1.5 44t-5.5 48l-3 22l-9 67q-12 97 -18 127h-102q37 56 120 127l9 -47h183q34 0 61.5 -7t47 -24.5t29.5 -45.5t10 -70v-264z" />
    <glyph glyph-name="doublevav" unicode="&#x5f0;" horiz-adv-x="517" 
d="M480 42l-70 -65v314q0 29 -13 45q-9 11 -38 29l-89 56l61 80l107 -84q42 -33 42 -80v-295zM250 42l-70 -65v314q0 29 -13 45q-9 11 -38 29l-89 56l61 80l107 -84q42 -33 42 -80v-295z" />
    <glyph glyph-name="vavyod" unicode="&#x5f1;" horiz-adv-x="517" 
d="M480 42l-70 -65v314q0 29 -13 45q-9 11 -38 29l-89 56l61 80l107 -84q42 -33 42 -80v-295zM249 325q1 -56 -98 -180l-51 -19q11 24 39 68q41 66 45 103q0 23 -16 39q-12 17 -134 86l61 79q88 -68 96 -75q57 -52 58 -101z" />
    <glyph glyph-name="doubleyod" unicode="&#x5f2;" horiz-adv-x="536" 
d="M499 325q1 -56 -98 -180l-51 -19q11 24 39 68q41 66 45 103q0 23 -16 39q-12 17 -134 86l61 79q88 -68 96 -75q57 -52 58 -101zM249 325q1 -56 -98 -180l-51 -19q11 24 39 68q41 66 45 103q0 23 -16 39q-12 17 -134 86l61 79q88 -68 96 -75q57 -52 58 -101z" />
    <glyph glyph-name="geresh" unicode="&#x5f3;" horiz-adv-x="283" 
d="M151 501q1 -28 -97 -220h-14q36 103 36 160q0 25 -32 65l70 71q35 -44 37 -76z" />
    <glyph glyph-name="gershayim" unicode="&#x5f4;" horiz-adv-x="425" 
d="M338 500q0 -33 -97 -220h-14q37 107 37 160q0 21 -32 65l69 71q37 -43 37 -76zM166 499q0 -29 -98 -220h-13q36 106 36 160q0 22 -31 65l69 71q37 -46 37 -76z" />
    <glyph glyph-name="zerowidthnonjoiner" unicode="&#x200c;" horiz-adv-x="21" 
d="M22 0h-22v795h22v-795z" />
    <glyph glyph-name="zerojoin" unicode="&#x200d;" horiz-adv-x="21" 
d="M78 730l-15 -14l-41 41v-757h-22v757l-40 -41l-16 14l54 53l-54 52l16 15l51 -53l52 53l15 -15l-52 -52z" />
    <glyph glyph-name="lefttoright" unicode="&#x200e;" horiz-adv-x="21" 
d="M148 783l-67 -67l-15 15l42 42h-86v-773h-22v795h106l-40 40l15 15z" />
    <glyph glyph-name="righttoleft" unicode="&#x200f;" horiz-adv-x="21" 
d="M23 0h-22v773h-85l42 -42l-16 -15l-67 67l67 67l16 -15l-41 -40h106v-795z" />
    <glyph glyph-name="endash" unicode="&#x2013;" horiz-adv-x="440" 
d="M400 284l-28 -56h-323l28 56h323z" />
    <glyph glyph-name="emdash" unicode="&#x2014;" horiz-adv-x="516" 
d="M476 287l-28 -56h-399l28 56h399z" />
    <glyph glyph-name="quoteleft" unicode="&#x2018;" horiz-adv-x="200" 
d="M148 281q-98 192 -97 220q2 32 37 76l70 -71q-32 -40 -32 -65q0 -57 36 -160h-14z" />
    <glyph glyph-name="quoteright" unicode="&#x2019;" horiz-adv-x="200" 
d="M151 501q1 -28 -97 -220h-14q36 103 36 160q0 25 -32 65l70 71q35 -44 37 -76z" />
    <glyph glyph-name="quotesinglbase" unicode="&#x201a;" horiz-adv-x="200" 
d="M159 40q0 -30 -97 -218h-15q37 99 37 159q0 22 -31 65l69 71q37 -46 37 -77z" />
    <glyph glyph-name="quotedblleft" unicode="&#x201c;" horiz-adv-x="380" 
d="M306 279q-98 191 -98 220q0 30 37 76l69 -71q-31 -43 -31 -65q0 -54 36 -160h-13zM133 280q-97 187 -97 220t37 76l69 -71q-32 -44 -32 -65q0 -53 37 -160h-14z" />
    <glyph glyph-name="quotedblright" unicode="&#x201d;" horiz-adv-x="380" 
d="M338 500q0 -33 -97 -220h-14q37 107 37 160q0 21 -32 65l69 71q37 -43 37 -76zM166 499q0 -29 -98 -220h-13q36 106 36 160q0 22 -31 65l69 71q37 -46 37 -76z" />
    <glyph glyph-name="quotedblbase" unicode="&#x201e;" horiz-adv-x="380" 
d="M338 120q0 -33 -97 -220h-14q37 107 37 160q0 21 -32 65l69 71q37 -43 37 -76zM166 119q0 -29 -98 -220h-13q36 106 36 160q0 22 -31 65l69 71q37 -46 37 -76z" />
    <glyph glyph-name="dagger" unicode="&#x2020;" horiz-adv-x="486" 
d="M456 449q0 -22 -17 -35.5t-39 -13.5t-73 20t-76 20q0 -80 52 -120q-52 -192 -52 -532h-20q0 340 -52 532q52 40 52 120q-25 0 -76 -20t-73 -20t-39 13.5t-17 35.5t17 35t39 13t73 -20t76 -20q0 29 -24 85q-24 55 -24 87q0 26 16 46.5t42 20.5t42 -20.5t16 -46.5
q0 -32 -24 -87q-24 -56 -24 -85q25 0 76 20t73 20t39 -13t17 -35z" />
    <glyph glyph-name="daggerdbl" unicode="&#x2021;" horiz-adv-x="432" 
d="M412 1q0 -44 -50 -44q-23 0 -66 18q-45 17 -69 17q-1 -25 21 -77q22 -51 22 -71q0 -23 -15.5 -39.5t-38.5 -16.5t-38.5 16.5t-15.5 39.5q0 20 22 71q22 52 21 77q-24 0 -69 -17q-44 -18 -66 -18q-50 0 -50 44q0 45 50 45q22 0 66 -18q43 -18 69 -18q-5 57 -50 86
q50 59 50 150q0 83 -50 142q45 29 50 86q-26 0 -69 -18q-44 -18 -66 -18q-50 0 -50 45q0 44 50 44q22 0 66 -18q45 -17 69 -17q-2 26 -22 76q-21 52 -21 72q0 23 15.5 39.5t38.5 16.5t38.5 -16.5t15.5 -39.5q0 -20 -22 -71q-22 -52 -21 -77q24 0 69 17q43 18 66 18
q50 0 50 -44q0 -45 -50 -45q-23 0 -66 18q-44 18 -69 18q5 -57 50 -86q-50 -59 -50 -142q0 -91 50 -150q-45 -29 -50 -86q25 0 69 18q43 18 66 18q50 0 50 -45z" />
    <glyph glyph-name="bullet" unicode="&#x2022;" horiz-adv-x="350" 
d="M42 300q0 26 10.5 49t28.5 40.5t42 27.5t51 10t51 -10t42 -27.5t28 -40.5t10 -49t-10 -49t-28 -40t-42 -27t-51 -10t-51 10t-42 27t-28.5 40t-10.5 49z" />
    <glyph glyph-name="ellipsis" unicode="&#x2026;" horiz-adv-x="602" 
d="M563 45l-54 -54l-54 54l54 54zM362 45l-54 -54l-54 54l54 54zM161 45l-54 -54l-54 54l54 54z" />
    <glyph glyph-name="perthousand" unicode="&#x2030;" horiz-adv-x="1179" 
d="M1148 165q0 -73 -37 -125q-41 -56 -107 -56q-65 0 -106 56q-37 52 -37 125q0 74 37 129q41 59 107 59t107 -59q36 -54 36 -129zM818 165q0 -73 -37 -125q-41 -56 -107 -56q-65 0 -106 56q-37 52 -37 125q0 74 37 129q41 59 107 59t107 -59q36 -54 36 -129zM691 696
l-488 -712h-45l488 712h45zM317 508q0 -73 -37 -125q-41 -56 -107 -56q-65 0 -106 56q-37 52 -37 125q0 74 37 129q41 59 107 59t107 -59q36 -54 36 -129zM1069 165q0 53 -11 97q-17 65 -52 65q-39 0 -55 -64q-11 -44 -11 -98q0 -155 64 -155q65 0 65 155zM739 165
q0 53 -11 97q-17 65 -52 65q-39 0 -55 -64q-11 -44 -11 -98q0 -155 64 -155q65 0 65 155zM238 508q0 53 -11 97q-17 65 -52 65q-39 0 -55 -64q-11 -44 -11 -98q0 -155 64 -155q65 0 65 155z" />
    <glyph glyph-name="guilsinglleft" unicode="&#x2039;" horiz-adv-x="330" 
d="M280 0h-31l-199 230l199 229h31l-128 -229z" />
    <glyph glyph-name="guilsinglright" unicode="&#x203a;" horiz-adv-x="330" 
d="M280 230l-199 -230h-31l128 230l-128 229h31z" />
    <glyph glyph-name="peseta" unicode="&#x20a7;" horiz-adv-x="968" 
d="M21 662h251q75 0 131 -24.5t88 -72.5q22 -32 26 -84q22 25 35 46q11 18 27 61h16v-142h84v-28h-84v-300q0 -37 4 -46q4 -11 12 -17t17 -6q7 0 16.5 5t31.5 27v68h18q9 -47 24 -74t43 -43t52 -16q32 0 53.5 20.5t21.5 49.5q0 25 -20 51q-10 12 -31.5 27t-53.5 34t-53.5 35
t-32.5 30q-22 28 -22 67q0 54 36 90q36 37 89 37q24 0 66 -12q17 -5 21 -5t16 5h21v-134h-17q-11 64 -40.5 91.5t-69.5 27.5q-28 0 -47.5 -19t-19.5 -44q0 -26 23 -49q17 -17 86 -56q68 -39 93 -71q23 -32 23 -70q0 -57 -40 -96q-41 -38 -102 -38q-23 0 -63 12q-24 7 -36 7
q-9 0 -16 -6h-22v42q-28 -32 -47.5 -43.5t-39.5 -11.5q-31 0 -51.5 24.5t-20.5 81.5v24v301h-10q-26 -57 -65 -85q-52 -37 -125 -37q-19 0 -45.5 5.5t-59.5 15.5v-216q0 -45 20.5 -65t66.5 -19v-17h-278v17q26 2 42.5 6t26 13.5t13 26.5t5.5 45v458q0 39 -19 58.5t-68 20.5
v17zM212 349q36 -18 66 -18q24 0 45.5 10.5t38 29t26 45.5t9.5 60q0 69 -37.5 108.5t-97.5 39.5q-22 0 -50 -9v-266zM393 -2q-26 118 -99 150q74 32 99 151q24 -119 99 -151q-75 -32 -99 -150z" />
    <glyph glyph-name="newsheqelsign" unicode="&#x20aa;" horiz-adv-x="1085" 
d="M861 100q0 -56 -22 -78t-78 -22h-345v298h66v-232h268q45 0 45 45v354h66v-365zM678 165h-67v189q0 25 -8.5 33t-35.5 11h-267v-398h-66v465h345q54 0 76.5 -22.5t22.5 -76.5v-201z" />
    <glyph glyph-name="Euro" unicode="&#x20ac;" horiz-adv-x="615" 
d="M589 52q-80 -68 -186 -68q-96 0 -172 57q-75 57 -104 150h-98l34 60h54q-1 5 -1 9v6v5v9.5t1 13.5h-88l34 60h65q28 91 104 147q76 57 171 57q106 0 186 -68l-31 -53q-64 61 -155 61q-69 0 -125.5 -39t-85.5 -105h320l-36 -60h-299q-1 -6 -1 -12v-11v-7t1 -13h275
l-35 -60h-227q28 -67 84.5 -107t128.5 -40q91 0 155 61l14 -26z" />
    <glyph glyph-name="trademark" unicode="&#x2122;" horiz-adv-x="1034" 
d="M1006 275h-203v18q37 0 50 22q10 16 10 56v234h-2l-153 -330h-17l-153 325h-2v-229q0 -42 12 -58q14 -20 48 -20v-18h-151v18q34 0 48 20q12 16 12 58v214q0 42 -12.5 59.5t-47.5 17.5v18h146l138 -288l133 288h144v-18q-38 0 -51 -22q-9 -15 -9 -55v-214q0 -42 12 -58
q14 -20 48 -20v-18zM410 578h-16q-11 44 -40 59q-24 11 -74 11h-22v-277q0 -40 9 -56q13 -22 52 -22v-18h-201v18q37 0 49 23q8 18 8 55v277h-18q-55 0 -75 -10q-32 -15 -39 -60h-19l12 102h365z" />
    <glyph glyph-name="minus" unicode="&#x2212;" horiz-adv-x="440" 
d="M400 284l-28 -56h-323l28 56h323z" />
    <glyph glyph-name="vavshindot" unicode="&#xe801;" horiz-adv-x="287" 
d="M34 551h-74v74h74v-74zM250 42l-70 -65v314q0 29 -13 45q-9 11 -38 29l-89 56l61 80l107 -84q42 -33 42 -80v-295z" />
    <glyph glyph-name="finalkafsheva" unicode="&#xe802;" horiz-adv-x="444" 
d="M428 468l-36 -80h-48v-510l-65 -70v580h-253q10 17 21.5 33t25.5 33l51 61v-47h173l47 47v-47h84zM163 91h-74v73h74v-73zM163 -32h-74v73h74v-73z" />
    <glyph glyph-name="finalkafqamats" unicode="&#xe803;" horiz-adv-x="444" 
d="M428 468l-36 -80h-48v-510l-65 -70v580h-253q10 17 21.5 33t25.5 33l51 61v-47h173l47 47v-47h84zM235 106h-74v-104h-62v104h-74v64h210v-64z" />
    <glyph glyph-name="lamedholam" unicode="&#xe804;" horiz-adv-x="418" 
d="M-10 551h-74v74h74v-74zM379 328q0 -128 -109 -228q-92 -84 -228 -123l48 103q95 17 155 66q70 58 70 148v34q0 34 -11 47t-45 13h-196q-20 0 -20 21v30q0 112 -23 132l61 80l4 -8q10 -19 10 -69v-106h150q69 0 89 -6q20 -5 34 -29q11 -25 11 -48v-57z" />
    <glyph glyph-name="lamedholamdagesh" unicode="&#xe805;" horiz-adv-x="418" 
d="M-10 551h-74v74h74v-74zM379 328q0 -128 -109 -228q-92 -84 -228 -123l48 103q95 17 155 66q70 58 70 148v34q0 34 -11 47t-45 13h-196q-20 0 -20 21v30q0 112 -23 132l61 80l4 -8q10 -19 10 -69v-106h150q69 0 89 -6q20 -5 34 -29q11 -25 11 -48v-57zM203 198h-74v73h74
v-73z" />
    <glyph glyph-name="uniE811" unicode="&#xe811;" horiz-adv-x="418" 
d="M379 328q0 -128 -109 -228q-92 -84 -228 -123l48 103q95 17 155 66q70 58 70 148v34q0 34 -11 47t-45 13h-196q-20 0 -20 21v30q0 112 -23 132l61 80l4 -8q10 -19 10 -69v-106h150q69 0 89 -6q20 -5 34 -29q11 -25 11 -48v-57z" />
    <glyph glyph-name="uniE812" unicode="&#xe812;" 
d="M262 348q0 -19 -7 -36t-20 -30t-30 -20.5t-36 -7.5q-20 0 -36.5 7.5t-29.5 20.5t-20 30t-7 36q0 40 27 66.5t66 26.5t66 -26.5t27 -66.5z" />
    <glyph glyph-name="uniE813" unicode="&#xe813;" 
d="M262 348q0 -19 -7 -36t-20 -30t-30 -20.5t-36 -7.5q-20 0 -36.5 7.5t-29.5 20.5t-20 30t-7 36q0 40 27 66.5t66 26.5t66 -26.5t27 -66.5z" />
    <glyph glyph-name="uniE814" unicode="&#xe814;" 
d="M262 348q0 -19 -7 -36t-20 -30t-30 -20.5t-36 -7.5q-20 0 -36.5 7.5t-29.5 20.5t-20 30t-7 36q0 40 27 66.5t66 26.5t66 -26.5t27 -66.5z" />
    <glyph glyph-name="uniE815" unicode="&#xe815;" 
d="M262 348q0 -19 -7 -36t-20 -30t-30 -20.5t-36 -7.5q-20 0 -36.5 7.5t-29.5 20.5t-20 30t-7 36q0 40 27 66.5t66 26.5t66 -26.5t27 -66.5z" />
    <glyph glyph-name="uniE816" unicode="&#xe816;" 
d="M262 348q0 -19 -7 -36t-20 -30t-30 -20.5t-36 -7.5q-20 0 -36.5 7.5t-29.5 20.5t-20 30t-7 36q0 40 27 66.5t66 26.5t66 -26.5t27 -66.5z" />
    <glyph glyph-name="uniE817" unicode="&#xe817;" 
d="M262 348q0 -19 -7 -36t-20 -30t-30 -20.5t-36 -7.5q-20 0 -36.5 7.5t-29.5 20.5t-20 30t-7 36q0 40 27 66.5t66 26.5t66 -26.5t27 -66.5z" />
    <glyph glyph-name="uniE818" unicode="&#xe818;" 
d="M262 348q0 -19 -7 -36t-20 -30t-30 -20.5t-36 -7.5q-20 0 -36.5 7.5t-29.5 20.5t-20 30t-7 36q0 40 27 66.5t66 26.5t66 -26.5t27 -66.5z" />
    <glyph glyph-name="uniE819" unicode="&#xe819;" 
d="M262 348q0 -19 -7 -36t-20 -30t-30 -20.5t-36 -7.5q-20 0 -36.5 7.5t-29.5 20.5t-20 30t-7 36q0 40 27 66.5t66 26.5t66 -26.5t27 -66.5z" />
    <glyph glyph-name="uniE81A" unicode="&#xe81a;" 
d="M262 348q0 -19 -7 -36t-20 -30t-30 -20.5t-36 -7.5q-20 0 -36.5 7.5t-29.5 20.5t-20 30t-7 36q0 40 27 66.5t66 26.5t66 -26.5t27 -66.5z" />
    <glyph glyph-name="uniE81B" unicode="&#xe81b;" 
d="M262 348q0 -19 -7 -36t-20 -30t-30 -20.5t-36 -7.5q-20 0 -36.5 7.5t-29.5 20.5t-20 30t-7 36q0 40 27 66.5t66 26.5t66 -26.5t27 -66.5z" />
    <glyph glyph-name="uniE81C" unicode="&#xe81c;" 
d="M262 348q0 -19 -7 -36t-20 -30t-30 -20.5t-36 -7.5q-20 0 -36.5 7.5t-29.5 20.5t-20 30t-7 36q0 40 27 66.5t66 26.5t66 -26.5t27 -66.5z" />
    <glyph glyph-name="uniE820" unicode="&#xe820;" horiz-adv-x="720" 
d="M720 402q0 -146 -105 -254q-104 -108 -255 -108t-256 108q-104 109 -104 254q0 154 104 256q105 102 256 102t255 -102q105 -102 105 -256zM360 101q48 238 198 300q-150 61 -198 302q-53 -241 -198 -302q145 -62 198 -300z" />
    <glyph glyph-name="uniE821" unicode="&#xe821;" 
d="M262 348q0 -19 -7 -36t-20 -30t-30 -20.5t-36 -7.5q-20 0 -36.5 7.5t-29.5 20.5t-20 30t-7 36q0 40 27 66.5t66 26.5t66 -26.5t27 -66.5z" />
    <glyph glyph-name="uniE822" unicode="&#xe822;" 
d="M262 348q0 -19 -7 -36t-20 -30t-30 -20.5t-36 -7.5q-20 0 -36.5 7.5t-29.5 20.5t-20 30t-7 36q0 40 27 66.5t66 26.5t66 -26.5t27 -66.5z" />
    <glyph glyph-name="uniE823" unicode="&#xe823;" 
d="M262 348q0 -19 -7 -36t-20 -30t-30 -20.5t-36 -7.5q-20 0 -36.5 7.5t-29.5 20.5t-20 30t-7 36q0 40 27 66.5t66 26.5t66 -26.5t27 -66.5z" />
    <glyph glyph-name="uniE824" unicode="&#xe824;" 
d="M262 348q0 -19 -7 -36t-20 -30t-30 -20.5t-36 -7.5q-20 0 -36.5 7.5t-29.5 20.5t-20 30t-7 36q0 40 27 66.5t66 26.5t66 -26.5t27 -66.5z" />
    <glyph glyph-name="uniE825" unicode="&#xe825;" 
d="M262 348q0 -19 -7 -36t-20 -30t-30 -20.5t-36 -7.5q-20 0 -36.5 7.5t-29.5 20.5t-20 30t-7 36q0 40 27 66.5t66 26.5t66 -26.5t27 -66.5z" />
    <glyph glyph-name="uniE826" unicode="&#xe826;" 
d="M262 348q0 -19 -7 -36t-20 -30t-30 -20.5t-36 -7.5q-20 0 -36.5 7.5t-29.5 20.5t-20 30t-7 36q0 40 27 66.5t66 26.5t66 -26.5t27 -66.5z" />
    <glyph glyph-name="uniE827" unicode="&#xe827;" 
d="M262 348q0 -19 -7 -36t-20 -30t-30 -20.5t-36 -7.5q-20 0 -36.5 7.5t-29.5 20.5t-20 30t-7 36q0 40 27 66.5t66 26.5t66 -26.5t27 -66.5z" />
    <glyph glyph-name="uniE828" unicode="&#xe828;" 
d="M262 348q0 -19 -7 -36t-20 -30t-30 -20.5t-36 -7.5q-20 0 -36.5 7.5t-29.5 20.5t-20 30t-7 36q0 40 27 66.5t66 26.5t66 -26.5t27 -66.5z" />
    <glyph glyph-name="uniE829" unicode="&#xe829;" 
d="M262 348q0 -19 -7 -36t-20 -30t-30 -20.5t-36 -7.5q-20 0 -36.5 7.5t-29.5 20.5t-20 30t-7 36q0 40 27 66.5t66 26.5t66 -26.5t27 -66.5z" />
    <glyph glyph-name="uniE82A" unicode="&#xe82a;" 
d="M262 348q0 -19 -7 -36t-20 -30t-30 -20.5t-36 -7.5q-20 0 -36.5 7.5t-29.5 20.5t-20 30t-7 36q0 40 27 66.5t66 26.5t66 -26.5t27 -66.5z" />
    <glyph glyph-name="uniE82B" unicode="&#xe82b;" 
d="M262 348q0 -19 -7 -36t-20 -30t-30 -20.5t-36 -7.5q-20 0 -36.5 7.5t-29.5 20.5t-20 30t-7 36q0 40 27 66.5t66 26.5t66 -26.5t27 -66.5z" />
    <glyph glyph-name="uniE82C" unicode="&#xe82c;" 
d="M262 348q0 -19 -7 -36t-20 -30t-30 -20.5t-36 -7.5q-20 0 -36.5 7.5t-29.5 20.5t-20 30t-7 36q0 40 27 66.5t66 26.5t66 -26.5t27 -66.5z" />
    <glyph glyph-name="uniE82D" unicode="&#xe82d;" 
d="M262 348q0 -19 -7 -36t-20 -30t-30 -20.5t-36 -7.5q-20 0 -36.5 7.5t-29.5 20.5t-20 30t-7 36q0 40 27 66.5t66 26.5t66 -26.5t27 -66.5z" />
    <glyph glyph-name="uniE82E" unicode="&#xe82e;" 
d="M262 348q0 -19 -7 -36t-20 -30t-30 -20.5t-36 -7.5q-20 0 -36.5 7.5t-29.5 20.5t-20 30t-7 36q0 40 27 66.5t66 26.5t66 -26.5t27 -66.5z" />
    <glyph glyph-name="uniE82F" unicode="&#xe82f;" 
d="M262 348q0 -19 -7 -36t-20 -30t-30 -20.5t-36 -7.5q-20 0 -36.5 7.5t-29.5 20.5t-20 30t-7 36q0 40 27 66.5t66 26.5t66 -26.5t27 -66.5z" />
    <glyph glyph-name="uniE830" unicode="&#xe830;" 
d="M262 348q0 -19 -7 -36t-20 -30t-30 -20.5t-36 -7.5q-20 0 -36.5 7.5t-29.5 20.5t-20 30t-7 36q0 40 27 66.5t66 26.5t66 -26.5t27 -66.5z" />
    <glyph glyph-name="uniE831" unicode="&#xe831;" 
d="M262 348q0 -19 -7 -36t-20 -30t-30 -20.5t-36 -7.5q-20 0 -36.5 7.5t-29.5 20.5t-20 30t-7 36q0 40 27 66.5t66 26.5t66 -26.5t27 -66.5z" />
    <glyph glyph-name="uniE832" unicode="&#xe832;" 
d="M262 348q0 -19 -7 -36t-20 -30t-30 -20.5t-36 -7.5q-20 0 -36.5 7.5t-29.5 20.5t-20 30t-7 36q0 40 27 66.5t66 26.5t66 -26.5t27 -66.5z" />
    <glyph glyph-name="uniE833" unicode="&#xe833;" 
d="M262 348q0 -19 -7 -36t-20 -30t-30 -20.5t-36 -7.5q-20 0 -36.5 7.5t-29.5 20.5t-20 30t-7 36q0 40 27 66.5t66 26.5t66 -26.5t27 -66.5z" />
    <glyph glyph-name="uniE834" unicode="&#xe834;" 
d="M262 348q0 -19 -7 -36t-20 -30t-30 -20.5t-36 -7.5q-20 0 -36.5 7.5t-29.5 20.5t-20 30t-7 36q0 40 27 66.5t66 26.5t66 -26.5t27 -66.5z" />
    <glyph glyph-name="uniE835" unicode="&#xe835;" 
d="M262 348q0 -19 -7 -36t-20 -30t-30 -20.5t-36 -7.5q-20 0 -36.5 7.5t-29.5 20.5t-20 30t-7 36q0 40 27 66.5t66 26.5t66 -26.5t27 -66.5z" />
    <glyph glyph-name="uniE836" unicode="&#xe836;" 
d="M262 348q0 -19 -7 -36t-20 -30t-30 -20.5t-36 -7.5q-20 0 -36.5 7.5t-29.5 20.5t-20 30t-7 36q0 40 27 66.5t66 26.5t66 -26.5t27 -66.5z" />
    <glyph glyph-name="uniE837" unicode="&#xe837;" 
d="M262 348q0 -19 -7 -36t-20 -30t-30 -20.5t-36 -7.5q-20 0 -36.5 7.5t-29.5 20.5t-20 30t-7 36q0 40 27 66.5t66 26.5t66 -26.5t27 -66.5z" />
    <glyph glyph-name="uniE838" unicode="&#xe838;" 
d="M262 348q0 -19 -7 -36t-20 -30t-30 -20.5t-36 -7.5q-20 0 -36.5 7.5t-29.5 20.5t-20 30t-7 36q0 40 27 66.5t66 26.5t66 -26.5t27 -66.5z" />
    <glyph glyph-name="uniE839" unicode="&#xe839;" 
d="M262 348q0 -19 -7 -36t-20 -30t-30 -20.5t-36 -7.5q-20 0 -36.5 7.5t-29.5 20.5t-20 30t-7 36q0 40 27 66.5t66 26.5t66 -26.5t27 -66.5z" />
    <glyph glyph-name="uniE83A" unicode="&#xe83a;" 
d="M262 348q0 -19 -7 -36t-20 -30t-30 -20.5t-36 -7.5q-20 0 -36.5 7.5t-29.5 20.5t-20 30t-7 36q0 40 27 66.5t66 26.5t66 -26.5t27 -66.5z" />
    <glyph glyph-name="uniE83B" unicode="&#xe83b;" 
d="M262 348q0 -19 -7 -36t-20 -30t-30 -20.5t-36 -7.5q-20 0 -36.5 7.5t-29.5 20.5t-20 30t-7 36q0 40 27 66.5t66 26.5t66 -26.5t27 -66.5z" />
    <glyph glyph-name="uniE83C" unicode="&#xe83c;" 
d="M262 348q0 -19 -7 -36t-20 -30t-30 -20.5t-36 -7.5q-20 0 -36.5 7.5t-29.5 20.5t-20 30t-7 36q0 40 27 66.5t66 26.5t66 -26.5t27 -66.5z" />
    <glyph glyph-name="uniE83D" unicode="&#xe83d;" 
d="M262 348q0 -19 -7 -36t-20 -30t-30 -20.5t-36 -7.5q-20 0 -36.5 7.5t-29.5 20.5t-20 30t-7 36q0 40 27 66.5t66 26.5t66 -26.5t27 -66.5z" />
    <glyph glyph-name="uniE83E" unicode="&#xe83e;" 
d="M262 348q0 -19 -7 -36t-20 -30t-30 -20.5t-36 -7.5q-20 0 -36.5 7.5t-29.5 20.5t-20 30t-7 36q0 40 27 66.5t66 26.5t66 -26.5t27 -66.5z" />
    <glyph glyph-name="uniE83F" unicode="&#xe83f;" 
d="M262 348q0 -19 -7 -36t-20 -30t-30 -20.5t-36 -7.5q-20 0 -36.5 7.5t-29.5 20.5t-20 30t-7 36q0 40 27 66.5t66 26.5t66 -26.5t27 -66.5z" />
    <glyph glyph-name="uniE840" unicode="&#xe840;" 
d="M262 348q0 -19 -7 -36t-20 -30t-30 -20.5t-36 -7.5q-20 0 -36.5 7.5t-29.5 20.5t-20 30t-7 36q0 40 27 66.5t66 26.5t66 -26.5t27 -66.5z" />
    <glyph glyph-name="uniE841" unicode="&#xe841;" 
d="M262 348q0 -19 -7 -36t-20 -30t-30 -20.5t-36 -7.5q-20 0 -36.5 7.5t-29.5 20.5t-20 30t-7 36q0 40 27 66.5t66 26.5t66 -26.5t27 -66.5z" />
    <glyph glyph-name="uniE842" unicode="&#xe842;" 
d="M262 348q0 -19 -7 -36t-20 -30t-30 -20.5t-36 -7.5q-20 0 -36.5 7.5t-29.5 20.5t-20 30t-7 36q0 40 27 66.5t66 26.5t66 -26.5t27 -66.5z" />
    <glyph glyph-name="uniE843" unicode="&#xe843;" 
d="M262 348q0 -19 -7 -36t-20 -30t-30 -20.5t-36 -7.5q-20 0 -36.5 7.5t-29.5 20.5t-20 30t-7 36q0 40 27 66.5t66 26.5t66 -26.5t27 -66.5z" />
    <glyph glyph-name="uniE844" unicode="&#xe844;" 
d="M262 348q0 -19 -7 -36t-20 -30t-30 -20.5t-36 -7.5q-20 0 -36.5 7.5t-29.5 20.5t-20 30t-7 36q0 40 27 66.5t66 26.5t66 -26.5t27 -66.5z" />
    <glyph glyph-name="uniE845" unicode="&#xe845;" 
d="M262 348q0 -19 -7 -36t-20 -30t-30 -20.5t-36 -7.5q-20 0 -36.5 7.5t-29.5 20.5t-20 30t-7 36q0 40 27 66.5t66 26.5t66 -26.5t27 -66.5z" />
    <glyph glyph-name="uniE846" unicode="&#xe846;" 
d="M262 348q0 -19 -7 -36t-20 -30t-30 -20.5t-36 -7.5q-20 0 -36.5 7.5t-29.5 20.5t-20 30t-7 36q0 40 27 66.5t66 26.5t66 -26.5t27 -66.5z" />
    <glyph glyph-name="uniE847" unicode="&#xe847;" 
d="M262 348q0 -19 -7 -36t-20 -30t-30 -20.5t-36 -7.5q-20 0 -36.5 7.5t-29.5 20.5t-20 30t-7 36q0 40 27 66.5t66 26.5t66 -26.5t27 -66.5z" />
    <glyph glyph-name="uniE848" unicode="&#xe848;" 
d="M262 348q0 -19 -7 -36t-20 -30t-30 -20.5t-36 -7.5q-20 0 -36.5 7.5t-29.5 20.5t-20 30t-7 36q0 40 27 66.5t66 26.5t66 -26.5t27 -66.5z" />
    <glyph glyph-name="uniE849" unicode="&#xe849;" 
d="M262 348q0 -19 -7 -36t-20 -30t-30 -20.5t-36 -7.5q-20 0 -36.5 7.5t-29.5 20.5t-20 30t-7 36q0 40 27 66.5t66 26.5t66 -26.5t27 -66.5z" />
    <glyph glyph-name="uniE84A" unicode="&#xe84a;" 
d="M262 348q0 -19 -7 -36t-20 -30t-30 -20.5t-36 -7.5q-20 0 -36.5 7.5t-29.5 20.5t-20 30t-7 36q0 40 27 66.5t66 26.5t66 -26.5t27 -66.5z" />
    <glyph glyph-name="uniE84B" unicode="&#xe84b;" 
d="M262 348q0 -19 -7 -36t-20 -30t-30 -20.5t-36 -7.5q-20 0 -36.5 7.5t-29.5 20.5t-20 30t-7 36q0 40 27 66.5t66 26.5t66 -26.5t27 -66.5z" />
    <glyph glyph-name="uniE84C" unicode="&#xe84c;" 
d="M262 348q0 -19 -7 -36t-20 -30t-30 -20.5t-36 -7.5q-20 0 -36.5 7.5t-29.5 20.5t-20 30t-7 36q0 40 27 66.5t66 26.5t66 -26.5t27 -66.5z" />
    <glyph glyph-name="uniE84D" unicode="&#xe84d;" 
d="M262 348q0 -19 -7 -36t-20 -30t-30 -20.5t-36 -7.5q-20 0 -36.5 7.5t-29.5 20.5t-20 30t-7 36q0 40 27 66.5t66 26.5t66 -26.5t27 -66.5z" />
    <glyph glyph-name="uniE84E" unicode="&#xe84e;" 
d="M262 348q0 -19 -7 -36t-20 -30t-30 -20.5t-36 -7.5q-20 0 -36.5 7.5t-29.5 20.5t-20 30t-7 36q0 40 27 66.5t66 26.5t66 -26.5t27 -66.5z" />
    <glyph glyph-name="uniE84F" unicode="&#xe84f;" 
d="M262 348q0 -19 -7 -36t-20 -30t-30 -20.5t-36 -7.5q-20 0 -36.5 7.5t-29.5 20.5t-20 30t-7 36q0 40 27 66.5t66 26.5t66 -26.5t27 -66.5z" />
    <glyph glyph-name="uniE850" unicode="&#xe850;" 
d="M262 348q0 -19 -7 -36t-20 -30t-30 -20.5t-36 -7.5q-20 0 -36.5 7.5t-29.5 20.5t-20 30t-7 36q0 40 27 66.5t66 26.5t66 -26.5t27 -66.5z" />
    <glyph glyph-name="uniE851" unicode="&#xe851;" 
d="M262 348q0 -19 -7 -36t-20 -30t-30 -20.5t-36 -7.5q-20 0 -36.5 7.5t-29.5 20.5t-20 30t-7 36q0 40 27 66.5t66 26.5t66 -26.5t27 -66.5z" />
    <glyph glyph-name="uniE852" unicode="&#xe852;" 
d="M262 348q0 -19 -7 -36t-20 -30t-30 -20.5t-36 -7.5q-20 0 -36.5 7.5t-29.5 20.5t-20 30t-7 36q0 40 27 66.5t66 26.5t66 -26.5t27 -66.5z" />
    <glyph glyph-name="uniE853" unicode="&#xe853;" 
d="M262 348q0 -19 -7 -36t-20 -30t-30 -20.5t-36 -7.5q-20 0 -36.5 7.5t-29.5 20.5t-20 30t-7 36q0 40 27 66.5t66 26.5t66 -26.5t27 -66.5z" />
    <glyph glyph-name="uniE854" unicode="&#xe854;" 
d="M262 348q0 -19 -7 -36t-20 -30t-30 -20.5t-36 -7.5q-20 0 -36.5 7.5t-29.5 20.5t-20 30t-7 36q0 40 27 66.5t66 26.5t66 -26.5t27 -66.5z" />
    <glyph glyph-name="uniE855" unicode="&#xe855;" 
d="M262 348q0 -19 -7 -36t-20 -30t-30 -20.5t-36 -7.5q-20 0 -36.5 7.5t-29.5 20.5t-20 30t-7 36q0 40 27 66.5t66 26.5t66 -26.5t27 -66.5z" />
    <glyph glyph-name="uniE856" unicode="&#xe856;" 
d="M262 348q0 -19 -7 -36t-20 -30t-30 -20.5t-36 -7.5q-20 0 -36.5 7.5t-29.5 20.5t-20 30t-7 36q0 40 27 66.5t66 26.5t66 -26.5t27 -66.5z" />
    <glyph glyph-name="uniE857" unicode="&#xe857;" 
d="M262 348q0 -19 -7 -36t-20 -30t-30 -20.5t-36 -7.5q-20 0 -36.5 7.5t-29.5 20.5t-20 30t-7 36q0 40 27 66.5t66 26.5t66 -26.5t27 -66.5z" />
    <glyph glyph-name="uniE858" unicode="&#xe858;" 
d="M262 348q0 -19 -7 -36t-20 -30t-30 -20.5t-36 -7.5q-20 0 -36.5 7.5t-29.5 20.5t-20 30t-7 36q0 40 27 66.5t66 26.5t66 -26.5t27 -66.5z" />
    <glyph glyph-name="uniE859" unicode="&#xe859;" 
d="M262 348q0 -19 -7 -36t-20 -30t-30 -20.5t-36 -7.5q-20 0 -36.5 7.5t-29.5 20.5t-20 30t-7 36q0 40 27 66.5t66 26.5t66 -26.5t27 -66.5z" />
    <glyph glyph-name="uniE85A" unicode="&#xe85a;" 
d="M262 348q0 -19 -7 -36t-20 -30t-30 -20.5t-36 -7.5q-20 0 -36.5 7.5t-29.5 20.5t-20 30t-7 36q0 40 27 66.5t66 26.5t66 -26.5t27 -66.5z" />
    <glyph glyph-name="uniE85B" unicode="&#xe85b;" 
d="M262 348q0 -19 -7 -36t-20 -30t-30 -20.5t-36 -7.5q-20 0 -36.5 7.5t-29.5 20.5t-20 30t-7 36q0 40 27 66.5t66 26.5t66 -26.5t27 -66.5z" />
    <glyph glyph-name="uniE85C" unicode="&#xe85c;" 
d="M262 348q0 -19 -7 -36t-20 -30t-30 -20.5t-36 -7.5q-20 0 -36.5 7.5t-29.5 20.5t-20 30t-7 36q0 40 27 66.5t66 26.5t66 -26.5t27 -66.5z" />
    <glyph glyph-name="uniE85D" unicode="&#xe85d;" 
d="M262 348q0 -19 -7 -36t-20 -30t-30 -20.5t-36 -7.5q-20 0 -36.5 7.5t-29.5 20.5t-20 30t-7 36q0 40 27 66.5t66 26.5t66 -26.5t27 -66.5z" />
    <glyph glyph-name="uniE85E" unicode="&#xe85e;" 
d="M262 348q0 -19 -7 -36t-20 -30t-30 -20.5t-36 -7.5q-20 0 -36.5 7.5t-29.5 20.5t-20 30t-7 36q0 40 27 66.5t66 26.5t66 -26.5t27 -66.5z" />
    <glyph glyph-name="uniE85F" unicode="&#xe85f;" 
d="M262 348q0 -19 -7 -36t-20 -30t-30 -20.5t-36 -7.5q-20 0 -36.5 7.5t-29.5 20.5t-20 30t-7 36q0 40 27 66.5t66 26.5t66 -26.5t27 -66.5z" />
    <glyph glyph-name="uniE860" unicode="&#xe860;" 
d="M262 348q0 -19 -7 -36t-20 -30t-30 -20.5t-36 -7.5q-20 0 -36.5 7.5t-29.5 20.5t-20 30t-7 36q0 40 27 66.5t66 26.5t66 -26.5t27 -66.5z" />
    <glyph glyph-name="uniE861" unicode="&#xe861;" 
d="M262 348q0 -19 -7 -36t-20 -30t-30 -20.5t-36 -7.5q-20 0 -36.5 7.5t-29.5 20.5t-20 30t-7 36q0 40 27 66.5t66 26.5t66 -26.5t27 -66.5z" />
    <glyph glyph-name="uniE862" unicode="&#xe862;" 
d="M262 348q0 -19 -7 -36t-20 -30t-30 -20.5t-36 -7.5q-20 0 -36.5 7.5t-29.5 20.5t-20 30t-7 36q0 40 27 66.5t66 26.5t66 -26.5t27 -66.5z" />
    <glyph glyph-name="uniE863" unicode="&#xe863;" 
d="M262 348q0 -19 -7 -36t-20 -30t-30 -20.5t-36 -7.5q-20 0 -36.5 7.5t-29.5 20.5t-20 30t-7 36q0 40 27 66.5t66 26.5t66 -26.5t27 -66.5z" />
    <glyph glyph-name="uniE864" unicode="&#xe864;" 
d="M262 348q0 -19 -7 -36t-20 -30t-30 -20.5t-36 -7.5q-20 0 -36.5 7.5t-29.5 20.5t-20 30t-7 36q0 40 27 66.5t66 26.5t66 -26.5t27 -66.5z" />
    <glyph glyph-name="uniE865" unicode="&#xe865;" 
d="M262 348q0 -19 -7 -36t-20 -30t-30 -20.5t-36 -7.5q-20 0 -36.5 7.5t-29.5 20.5t-20 30t-7 36q0 40 27 66.5t66 26.5t66 -26.5t27 -66.5z" />
    <glyph glyph-name="uniE866" unicode="&#xe866;" 
d="M262 348q0 -19 -7 -36t-20 -30t-30 -20.5t-36 -7.5q-20 0 -36.5 7.5t-29.5 20.5t-20 30t-7 36q0 40 27 66.5t66 26.5t66 -26.5t27 -66.5z" />
    <glyph glyph-name="uniE867" unicode="&#xe867;" 
d="M262 348q0 -19 -7 -36t-20 -30t-30 -20.5t-36 -7.5q-20 0 -36.5 7.5t-29.5 20.5t-20 30t-7 36q0 40 27 66.5t66 26.5t66 -26.5t27 -66.5z" />
    <glyph glyph-name="uniE868" unicode="&#xe868;" 
d="M262 348q0 -19 -7 -36t-20 -30t-30 -20.5t-36 -7.5q-20 0 -36.5 7.5t-29.5 20.5t-20 30t-7 36q0 40 27 66.5t66 26.5t66 -26.5t27 -66.5z" />
    <glyph glyph-name="uniE869" unicode="&#xe869;" 
d="M262 348q0 -19 -7 -36t-20 -30t-30 -20.5t-36 -7.5q-20 0 -36.5 7.5t-29.5 20.5t-20 30t-7 36q0 40 27 66.5t66 26.5t66 -26.5t27 -66.5z" />
    <glyph glyph-name="uniE86A" unicode="&#xe86a;" 
d="M262 348q0 -19 -7 -36t-20 -30t-30 -20.5t-36 -7.5q-20 0 -36.5 7.5t-29.5 20.5t-20 30t-7 36q0 40 27 66.5t66 26.5t66 -26.5t27 -66.5z" />
    <glyph glyph-name="uniE86B" unicode="&#xe86b;" 
d="M262 348q0 -19 -7 -36t-20 -30t-30 -20.5t-36 -7.5q-20 0 -36.5 7.5t-29.5 20.5t-20 30t-7 36q0 40 27 66.5t66 26.5t66 -26.5t27 -66.5z" />
    <glyph glyph-name="uniE86C" unicode="&#xe86c;" 
d="M262 348q0 -19 -7 -36t-20 -30t-30 -20.5t-36 -7.5q-20 0 -36.5 7.5t-29.5 20.5t-20 30t-7 36q0 40 27 66.5t66 26.5t66 -26.5t27 -66.5z" />
    <glyph glyph-name="uniE86D" unicode="&#xe86d;" 
d="M262 348q0 -19 -7 -36t-20 -30t-30 -20.5t-36 -7.5q-20 0 -36.5 7.5t-29.5 20.5t-20 30t-7 36q0 40 27 66.5t66 26.5t66 -26.5t27 -66.5z" />
    <glyph glyph-name="uniE86E" unicode="&#xe86e;" 
d="M262 348q0 -19 -7 -36t-20 -30t-30 -20.5t-36 -7.5q-20 0 -36.5 7.5t-29.5 20.5t-20 30t-7 36q0 40 27 66.5t66 26.5t66 -26.5t27 -66.5z" />
    <glyph glyph-name="uniE86F" unicode="&#xe86f;" 
d="M262 348q0 -19 -7 -36t-20 -30t-30 -20.5t-36 -7.5q-20 0 -36.5 7.5t-29.5 20.5t-20 30t-7 36q0 40 27 66.5t66 26.5t66 -26.5t27 -66.5z" />
    <glyph glyph-name="uniE870" unicode="&#xe870;" 
d="M262 348q0 -19 -7 -36t-20 -30t-30 -20.5t-36 -7.5q-20 0 -36.5 7.5t-29.5 20.5t-20 30t-7 36q0 40 27 66.5t66 26.5t66 -26.5t27 -66.5z" />
    <glyph glyph-name="uniE871" unicode="&#xe871;" 
d="M262 348q0 -19 -7 -36t-20 -30t-30 -20.5t-36 -7.5q-20 0 -36.5 7.5t-29.5 20.5t-20 30t-7 36q0 40 27 66.5t66 26.5t66 -26.5t27 -66.5z" />
    <glyph glyph-name="uniE872" unicode="&#xe872;" 
d="M262 348q0 -19 -7 -36t-20 -30t-30 -20.5t-36 -7.5q-20 0 -36.5 7.5t-29.5 20.5t-20 30t-7 36q0 40 27 66.5t66 26.5t66 -26.5t27 -66.5z" />
    <glyph glyph-name="uniE873" unicode="&#xe873;" 
d="M262 348q0 -19 -7 -36t-20 -30t-30 -20.5t-36 -7.5q-20 0 -36.5 7.5t-29.5 20.5t-20 30t-7 36q0 40 27 66.5t66 26.5t66 -26.5t27 -66.5z" />
    <glyph glyph-name="uniE874" unicode="&#xe874;" 
d="M262 348q0 -19 -7 -36t-20 -30t-30 -20.5t-36 -7.5q-20 0 -36.5 7.5t-29.5 20.5t-20 30t-7 36q0 40 27 66.5t66 26.5t66 -26.5t27 -66.5z" />
    <glyph glyph-name="uniE875" unicode="&#xe875;" 
d="M262 348q0 -19 -7 -36t-20 -30t-30 -20.5t-36 -7.5q-20 0 -36.5 7.5t-29.5 20.5t-20 30t-7 36q0 40 27 66.5t66 26.5t66 -26.5t27 -66.5z" />
    <glyph glyph-name="uniE876" unicode="&#xe876;" 
d="M262 348q0 -19 -7 -36t-20 -30t-30 -20.5t-36 -7.5q-20 0 -36.5 7.5t-29.5 20.5t-20 30t-7 36q0 40 27 66.5t66 26.5t66 -26.5t27 -66.5z" />
    <glyph glyph-name="uniE877" unicode="&#xe877;" 
d="M262 348q0 -19 -7 -36t-20 -30t-30 -20.5t-36 -7.5q-20 0 -36.5 7.5t-29.5 20.5t-20 30t-7 36q0 40 27 66.5t66 26.5t66 -26.5t27 -66.5z" />
    <glyph glyph-name="uniE878" unicode="&#xe878;" 
d="M262 348q0 -19 -7 -36t-20 -30t-30 -20.5t-36 -7.5q-20 0 -36.5 7.5t-29.5 20.5t-20 30t-7 36q0 40 27 66.5t66 26.5t66 -26.5t27 -66.5z" />
    <glyph glyph-name="uniE879" unicode="&#xe879;" 
d="M262 348q0 -19 -7 -36t-20 -30t-30 -20.5t-36 -7.5q-20 0 -36.5 7.5t-29.5 20.5t-20 30t-7 36q0 40 27 66.5t66 26.5t66 -26.5t27 -66.5z" />
    <glyph glyph-name="uniE87A" unicode="&#xe87a;" 
d="M262 348q0 -19 -7 -36t-20 -30t-30 -20.5t-36 -7.5q-20 0 -36.5 7.5t-29.5 20.5t-20 30t-7 36q0 40 27 66.5t66 26.5t66 -26.5t27 -66.5z" />
    <glyph glyph-name="uniE87B" unicode="&#xe87b;" 
d="M262 348q0 -19 -7 -36t-20 -30t-30 -20.5t-36 -7.5q-20 0 -36.5 7.5t-29.5 20.5t-20 30t-7 36q0 40 27 66.5t66 26.5t66 -26.5t27 -66.5z" />
    <glyph glyph-name="uniE87C" unicode="&#xe87c;" 
d="M262 348q0 -19 -7 -36t-20 -30t-30 -20.5t-36 -7.5q-20 0 -36.5 7.5t-29.5 20.5t-20 30t-7 36q0 40 27 66.5t66 26.5t66 -26.5t27 -66.5z" />
    <glyph glyph-name="uniE87D" unicode="&#xe87d;" 
d="M262 348q0 -19 -7 -36t-20 -30t-30 -20.5t-36 -7.5q-20 0 -36.5 7.5t-29.5 20.5t-20 30t-7 36q0 40 27 66.5t66 26.5t66 -26.5t27 -66.5z" />
    <glyph glyph-name="uniE87E" unicode="&#xe87e;" 
d="M262 348q0 -19 -7 -36t-20 -30t-30 -20.5t-36 -7.5q-20 0 -36.5 7.5t-29.5 20.5t-20 30t-7 36q0 40 27 66.5t66 26.5t66 -26.5t27 -66.5z" />
    <glyph glyph-name="uniE87F" unicode="&#xe87f;" 
d="M262 348q0 -19 -7 -36t-20 -30t-30 -20.5t-36 -7.5q-20 0 -36.5 7.5t-29.5 20.5t-20 30t-7 36q0 40 27 66.5t66 26.5t66 -26.5t27 -66.5z" />
    <glyph glyph-name="uniE880" unicode="&#xe880;" 
d="M262 348q0 -19 -7 -36t-20 -30t-30 -20.5t-36 -7.5q-20 0 -36.5 7.5t-29.5 20.5t-20 30t-7 36q0 40 27 66.5t66 26.5t66 -26.5t27 -66.5z" />
    <glyph glyph-name="uniE881" unicode="&#xe881;" 
d="M262 348q0 -19 -7 -36t-20 -30t-30 -20.5t-36 -7.5q-20 0 -36.5 7.5t-29.5 20.5t-20 30t-7 36q0 40 27 66.5t66 26.5t66 -26.5t27 -66.5z" />
    <glyph glyph-name="uniE882" unicode="&#xe882;" 
d="M262 348q0 -19 -7 -36t-20 -30t-30 -20.5t-36 -7.5q-20 0 -36.5 7.5t-29.5 20.5t-20 30t-7 36q0 40 27 66.5t66 26.5t66 -26.5t27 -66.5z" />
    <glyph glyph-name="uniE883" unicode="&#xe883;" 
d="M262 348q0 -19 -7 -36t-20 -30t-30 -20.5t-36 -7.5q-20 0 -36.5 7.5t-29.5 20.5t-20 30t-7 36q0 40 27 66.5t66 26.5t66 -26.5t27 -66.5z" />
    <glyph glyph-name="uniE884" unicode="&#xe884;" 
d="M262 348q0 -19 -7 -36t-20 -30t-30 -20.5t-36 -7.5q-20 0 -36.5 7.5t-29.5 20.5t-20 30t-7 36q0 40 27 66.5t66 26.5t66 -26.5t27 -66.5z" />
    <glyph glyph-name="uniE885" unicode="&#xe885;" 
d="M262 348q0 -19 -7 -36t-20 -30t-30 -20.5t-36 -7.5q-20 0 -36.5 7.5t-29.5 20.5t-20 30t-7 36q0 40 27 66.5t66 26.5t66 -26.5t27 -66.5z" />
    <glyph glyph-name="uniE886" unicode="&#xe886;" 
d="M262 348q0 -19 -7 -36t-20 -30t-30 -20.5t-36 -7.5q-20 0 -36.5 7.5t-29.5 20.5t-20 30t-7 36q0 40 27 66.5t66 26.5t66 -26.5t27 -66.5z" />
    <glyph glyph-name="uniE887" unicode="&#xe887;" 
d="M262 348q0 -19 -7 -36t-20 -30t-30 -20.5t-36 -7.5q-20 0 -36.5 7.5t-29.5 20.5t-20 30t-7 36q0 40 27 66.5t66 26.5t66 -26.5t27 -66.5z" />
    <glyph glyph-name="uniE888" unicode="&#xe888;" 
d="M262 348q0 -19 -7 -36t-20 -30t-30 -20.5t-36 -7.5q-20 0 -36.5 7.5t-29.5 20.5t-20 30t-7 36q0 40 27 66.5t66 26.5t66 -26.5t27 -66.5z" />
    <glyph glyph-name="uniE889" unicode="&#xe889;" 
d="M262 348q0 -19 -7 -36t-20 -30t-30 -20.5t-36 -7.5q-20 0 -36.5 7.5t-29.5 20.5t-20 30t-7 36q0 40 27 66.5t66 26.5t66 -26.5t27 -66.5z" />
    <glyph glyph-name="uniE88A" unicode="&#xe88a;" 
d="M262 348q0 -19 -7 -36t-20 -30t-30 -20.5t-36 -7.5q-20 0 -36.5 7.5t-29.5 20.5t-20 30t-7 36q0 40 27 66.5t66 26.5t66 -26.5t27 -66.5z" />
    <glyph glyph-name="uniE88B" unicode="&#xe88b;" 
d="M262 348q0 -19 -7 -36t-20 -30t-30 -20.5t-36 -7.5q-20 0 -36.5 7.5t-29.5 20.5t-20 30t-7 36q0 40 27 66.5t66 26.5t66 -26.5t27 -66.5z" />
    <glyph glyph-name="uniE88C" unicode="&#xe88c;" 
d="M262 348q0 -19 -7 -36t-20 -30t-30 -20.5t-36 -7.5q-20 0 -36.5 7.5t-29.5 20.5t-20 30t-7 36q0 40 27 66.5t66 26.5t66 -26.5t27 -66.5z" />
    <glyph glyph-name="uniE88D" unicode="&#xe88d;" 
d="M262 348q0 -20 -7.5 -37t-20 -29.5t-29.5 -20t-36 -7.5q-20 0 -36.5 7.5t-29.5 20.5t-20 30t-7 36q0 40 26.5 66.5t66.5 26.5t66.5 -26.5t26.5 -66.5z" />
    <glyph glyph-name="uniE88E" unicode="&#xe88e;" 
d="M262 348q0 -20 -7.5 -37t-20 -29.5t-29.5 -20t-36 -7.5q-20 0 -36.5 7.5t-29.5 20.5t-20 30t-7 36q0 40 26.5 66.5t66.5 26.5t66.5 -26.5t26.5 -66.5z" />
    <glyph glyph-name="uniE88F" unicode="&#xe88f;" 
d="M262 348q0 -20 -7.5 -37t-20 -29.5t-29.5 -20t-36 -7.5q-20 0 -36.5 7.5t-29.5 20.5t-20 30t-7 36q0 40 26.5 66.5t66.5 26.5t66.5 -26.5t26.5 -66.5z" />
    <glyph glyph-name="uniE890" unicode="&#xe890;" horiz-adv-x="430" 
d="M382 281q0 -86 -36 -168q-35 -81 -84 -113q-14 -7 -46 -7q-165 0 -165 288q0 90 33 171q35 81 82 96q11 8 53 8q99 0 138 -95q25 -62 25 -180zM323 271q0 114 -45 177q-22 31 -73 39q-30 0 -60 -11q-26 -118 -28 -195q-1 -106 8 -142q21 -74 99 -76q29 0 67 12
q32 113 32 196z" />
    <glyph glyph-name="uniE891" unicode="&#xe891;" horiz-adv-x="386" 
d="M340 80l-47 -80h-248l47 80h79v335q0 9 -0.5 15t-4.5 11t-12.5 9t-24.5 9l-56 18q48 32 88.5 53.5t75.5 31.5v-482h103z" />
    <glyph glyph-name="uniE892" unicode="&#xe892;" horiz-adv-x="419" 
d="M357 80l-33 -80h-275q11 41 25.5 76t33.5 66q13 24 90 129q59 83 59 119q0 81 -110 83q-12 0 -28.5 -1.5t-37.5 -3.5l33 70q13 5 30 7.5t39 3.5q62 1 105 -29q48 -33 48 -94q0 -34 -18 -71q-7 -14 -26.5 -40.5t-53.5 -68.5q-72 -89 -110 -166h229z" />
    <glyph glyph-name="uniE893" unicode="&#xe893;" horiz-adv-x="386" 
d="M354 200q0 -207 -225 -207q-52 0 -86 23l51 78q51 -25 96 -25q49 0 76 32q24 27 26 79q1 78 -104 78q-13 0 -28 -1.5t-34 -3.5l15 65q85 22 87 93q1 75 -86 77q2 0 -26 -3q-10 -1 -18 -2t-13 -2l33 76q10 3 37 3q156 0 156 -107q0 -43 -29 -77q-16 -18 -66 -53
q36 0 92 -24q46 -31 46 -99z" />
    <glyph glyph-name="uniE894" unicode="&#xe894;" horiz-adv-x="430" 
d="M420 234l-46 -80h-71v-131l-70 -46v177h-201q0 137 60 238q64 108 190 150q13 5 23 8.5t17 6.5q-1 -3 -2.5 -9.5t-5.5 -16.5q-11 -36 -11 -63v-234h117zM233 234v228q-66 -28 -103 -91q-37 -62 -37 -137h140z" />
    <glyph glyph-name="uniE895" unicode="&#xe895;" horiz-adv-x="408" 
d="M359 548l-47 -80h-169v-122q31 6 52 6q148 0 149 -151q1 -91 -62 -150q-62 -58 -157 -58q-42 0 -81 16l48 80q45 -19 94 -20q48 -2 81 36q33 37 33 91q0 21 -10.5 38t-28 28.5t-41 17.5t-49.5 6q-35 0 -84 -24v248l56 79v-41h216z" />
    <glyph glyph-name="uniE896" unicode="&#xe896;" horiz-adv-x="386" 
d="M362 200q1 -81 -46 -145q-47 -62 -120 -62q-74 0 -116 50q-39 46 -39 121q0 42 19 79l140 281l112 47l-174 -276l49 25q34 18 67 18q50 0 81 -46q26 -41 27 -92zM301 160q0 22 -8.5 41t-23.5 32.5t-34.5 21.5t-41.5 8q-34 1 -73 -21q-22 -22 -22 -63q0 -21 8 -41
t23.5 -36t38 -25.5t50.5 -9.5q30 -1 61 13q22 32 22 80z" />
    <glyph glyph-name="uniE897" unicode="&#xe897;" horiz-adv-x="430" 
d="M381 548q-8 -41 -24 -72q-5 -10 -18 -30.5t-35 -52.5q-125 -185 -125 -289q0 -7 0.5 -14t1.5 -15l-85 -84q-5 14 -7.5 28t-3.5 28q-1 66 57 163l26 39t72 106q23 33 41 61.5t32 51.5h-269q15 22 26 38t19 26q28 36 54 57v-41h238z" />
    <glyph glyph-name="uniE898" unicode="&#xe898;" horiz-adv-x="375" 
d="M340 160q1 -75 -50 -122q-51 -45 -121 -45q-66 0 -104 40.5t-38 106.5q0 64 87 141q-73 58 -74 140q-1 57 35 100q37 43 94 43q66 0 103.5 -38.5t38.5 -104.5q1 -53 -79 -112q106 -49 108 -149zM252 421q0 21 -6.5 40.5t-18 34t-28 23.5t-37.5 9q-33 0 -50.5 -24.5
t-17.5 -59.5q0 -38 12 -56.5t47 -36.5l49 -25q50 62 50 95zM279 140q0 53 -56 85l-75 42q-17 -23 -26 -36.5t-11 -17.5q-18 -30 -20 -61q-1 -43 26 -69t70 -26q37 0 64.5 23t27.5 60z" />
    <glyph glyph-name="uniE899" unicode="&#xe899;" horiz-adv-x="397" 
d="M363 384q0 -41 -19 -79l-140 -282l-112 -46l172 276q-70 -43 -115 -43q-46 0 -77 40q-30 40 -30 98q0 78 43 139q48 67 123 67q73 0 115 -49q38 -46 40 -121zM306 369q0 24 -9.5 44.5t-25.5 35.5t-38 23t-47 8q-41 0 -63 -16q-20 -45 -20 -78q0 -48 30 -74t78 -26t77 23
q18 31 18 60z" />
    <glyph glyph-name="fi" unicode="&#xf001;" horiz-adv-x="538" 
d="M518 0h-484v18q44 0 59 21q13 17 13 68v318h-88v34h88v69q0 36 12.5 67t36 53.5t58 35t79.5 12.5q69 0 110 -19q47 -23 47 -62t-41 -39q-36 0 -49 22l-18 42q-15 22 -53 22q-43 0 -71 -25t-28 -61v-117h257v-352q0 -51 14 -70t58 -19v-18zM363 353q0 45 -4 56
q-4 16 -26 16h-144v-318q0 -51 14 -70t58 -19h30q44 0 59 21q13 17 13 68v246z" />
    <glyph glyph-name="fl" unicode="&#xf002;" horiz-adv-x="587" 
d="M563 0h-227v18q44 0 59 21q13 17 13 68v443v31.5t-1 17.5q-9 -23 -39 -23q-31 0 -53 43t-57 43q-13 0 -25.5 -7t-22 -19t-15.5 -27.5t-6 -32.5v-117h112v-34h-112v-318q0 -51 14 -70t58 -19v-18h-227v18q44 0 59 21q13 17 13 68v318h-88v34h88v69q0 69 45 119
q46 49 111 49q90 0 127 -35l78 35h24v-589q0 -51 14 -70t58 -19v-18z" />
    <glyph glyph-name="uniFB1D" unicode="&#xfb1d;" horiz-adv-x="281" 
d="M249 325q1 -56 -98 -180l-51 -19q11 24 39 68q41 66 45 103q0 23 -16 39q-12 17 -134 86l61 79q88 -68 96 -75q57 -52 58 -101zM165 26q0 -17 -13 -29.5t-30 -12.5q-18 0 -31.5 12.5t-13.5 30.5t12.5 30.5t30.5 12.5t31.5 -13t13.5 -31z" />
    <glyph glyph-name="uniFB1E" unicode="&#xfb1e;" horiz-adv-x="1" 
d="M100 773l-67 -118h-66l-67 118h41l59 -77l58 77h42z" />
    <glyph glyph-name="uniFB1F" unicode="&#xfb1f;" horiz-adv-x="571" 
d="M519 325q1 -56 -98 -180l-51 -19q11 24 39 68q41 66 45 103q0 23 -16 39q-12 17 -134 86l61 79q88 -68 96 -75q57 -52 58 -101zM249 325q1 -56 -98 -180l-51 -19q11 24 39 68q41 66 45 103q0 23 -16 39q-12 17 -134 86l61 79q88 -68 96 -75q57 -52 58 -101zM452 43
l-23 -43h-350l23 43h350z" />
    <glyph glyph-name="uniFB20" unicode="&#xfb20;" horiz-adv-x="437" 
d="M407 351q0 -186 -105 -264q-46 -34 -223 -123q-29 -14 -47 -26l33 104q12 3 28.5 8.5t37.5 13.5q13 5 32 13t45 19l-30 80l-34 90q-29 70 -99 165l71 79q67 -155 96 -246l47 -146l41 30q45 43 47 93q1 78 -44 190l85 79q19 -82 19 -159z" />
    <glyph glyph-name="uniFB21" unicode="&#xfb21;" horiz-adv-x="750" 
d="M674 -21l-39 48q-57 71 -196 156l-252 142q-14 -16 -25.5 -35.5t-19.5 -40t-13 -40t-5 -35.5q0 -79 12 -85h61l-38 -89h-126l24 46v25q0 71 6 101q4 23 13.5 46t23.5 46q9 15 58 77q-77 45 -126 84l51 66q75 -64 227 -153q109 -64 168.5 -99.5t70.5 -43.5q17 23 37 64
t18 59q-3 35 -26 89l77 84q13 -25 19 -46t7 -38q1 -40 -29 -107q-14 -32 -33.5 -63t-42.5 -60q92 -62 140 -116z" />
    <glyph glyph-name="uniFB22" unicode="&#xfb22;" horiz-adv-x="644" 
d="M628 468l-36 -80h-48v-342l-65 -69v411h-453q8 11 19.5 28t28.5 40l50 59v-47h373l47 47v-47h84z" />
    <glyph glyph-name="uniFB23" unicode="&#xfb23;" horiz-adv-x="722" 
d="M674 57l-70 -80v359q0 33 -10.5 42.5t-44.5 9.5h-515q16 24 29 42.5t24 31.5l45 53v-47h402q94 0 121 -34q19 -19 19 -95v-282zM151 46l-70 -69v257l70 70v-258z" />
    <glyph glyph-name="uniFB24" unicode="&#xfb24;" horiz-adv-x="644" 
d="M623 281q0 -142 -113 -281h-477l56 80h429q36 63 38 151q1 157 -120 157h-390q31 48 93 120l6 7v-47h313q81 0 124 -55q41 -50 41 -132z" />
    <glyph glyph-name="uniFB25" unicode="&#xfb25;" horiz-adv-x="618" 
d="M579 328q0 -128 -109 -228q-92 -84 -228 -123l48 103q95 17 155 66q70 58 70 148v34q0 34 -11 47t-45 13h-396q-20 0 -20 21v30q0 112 -23 132l61 80l4 -8q10 -19 10 -69v-106h350q69 0 89 -6q20 -5 34 -29q11 -25 11 -48v-57z" />
    <glyph glyph-name="uniFB26" unicode="&#xfb26;" horiz-adv-x="775" 
d="M739 260q0 -88 -9 -134q-13 -79 -59 -117q-11 -9 -38 -9h-487q-19 9 -43 39q-17 26 -17 69v257q0 20 -6.5 27t-26.5 10q20 35 42.5 63t46.5 50v-47h359q42 0 72 -1.5t47 -3.5q78 -10 101 -50q18 -32 18 -153zM679 228q1 103 -32 135q-20 19 -66 24q-7 1 -25 1h-47h-367
v-308h527q8 33 10 148z" />
    <glyph glyph-name="uniFB27" unicode="&#xfb27;" horiz-adv-x="620" 
d="M596 57l-71 -80v294q0 55 -12 81q-18 36 -67 36h-406q59 90 98 127v-47h312q69 0 107.5 -42.5t38.5 -111.5v-257z" />
    <glyph glyph-name="uniFB28" unicode="&#xfb28;" horiz-adv-x="748" 
d="M719 57l-64 -80v338q0 37 -11 55t-50 18h-368l14 -117q4 -34 6.5 -70.5t3.5 -74.5l-27 -126h-184l56 80h103q0 21 -1.5 44t-5.5 48l-3 19q-4 40 -9 70q-12 97 -18 127h-102q37 56 120 127l9 -47h383q34 0 61.5 -7t47 -24.5t29.5 -45.5t10 -70v-264z" />
    <glyph glyph-name="uniFB29" unicode="&#xfb29;" horiz-adv-x="545" 
d="M506 308l-38 -97h-422l-9 10l39 98h141v142l97 38l11 -8v-172h173z" />
    <glyph glyph-name="shinshindot" unicode="&#xfb2a;" horiz-adv-x="575" 
d="M531 360q1 -51 -8.5 -93.5t-27.5 -77.5q-34 -67 -116 -135q-79 -68 -166 -68q-45 0 -65 74l-37 137q-9 35 -16 59t-13 39q-5 14 -9 28t-9 28q-8 25 -15.5 42t-13.5 28l61 80q12 -21 20.5 -41t14.5 -40q5 -15 10.5 -37.5t11.5 -54.5l22 -117q45 23 67 50q21 24 21 67
q0 49 -17 103l70 70q19 -66 19 -113q0 -140 -149 -232l13 -58q4 -19 12 -27q7 -6 31 -6q40 0 94 32q26 16 48.5 34t40.5 38q34 39 36 99q0 43 -28 148l75 85q23 -92 23 -141zM504 582q0 -14 -9.5 -23.5t-23.5 -9.5t-23.5 9.5t-9.5 23.5t9.5 23.5t23.5 9.5t23.5 -9.5
t9.5 -23.5z" />
    <glyph glyph-name="shinsindot" unicode="&#xfb2b;" horiz-adv-x="575" 
d="M531 360q1 -51 -8.5 -93.5t-27.5 -77.5q-17 -34 -46 -67t-70 -68q-79 -68 -166 -68q-45 0 -65 74l-37 137q-9 35 -16 59t-13 39q-5 14 -9 28t-9 28q-8 25 -15.5 42t-13.5 28l61 80q12 -21 20.5 -41t14.5 -40q5 -15 10.5 -37.5t11.5 -54.5l22 -117q45 23 67 50
q21 24 21 67q0 49 -17 103l70 70q19 -66 19 -113q0 -140 -149 -232l13 -58q4 -19 12 -27q7 -6 31 -6q40 0 94 32q26 16 48.5 34t40.5 38q34 39 36 99q0 43 -28 148l75 85q23 -92 23 -141zM111 582q0 -14 -9.5 -23.5t-23.5 -9.5t-23.5 9.5t-9.5 23.5t9.5 23.5t23.5 9.5
t23.5 -9.5t9.5 -23.5z" />
    <glyph glyph-name="shindageshshindot" unicode="&#xfb2c;" horiz-adv-x="575" 
d="M531 360q1 -51 -8.5 -93.5t-27.5 -77.5q-17 -34 -46 -67t-70 -68q-79 -68 -166 -68q-45 0 -65 74l-37 137q-9 35 -16 59t-13 39q-5 14 -9 28t-9 28q-8 25 -15.5 42t-13.5 28l61 80q12 -21 20.5 -41t14.5 -40q5 -15 10.5 -37.5t11.5 -54.5l22 -117q45 23 67 50
q21 24 21 67q0 49 -17 103l70 70q19 -66 19 -113q0 -140 -149 -232l13 -58q4 -19 12 -27q7 -6 31 -6q40 0 94 32q26 16 48.5 34t40.5 38q34 39 36 99q0 43 -28 148l75 85q23 -92 23 -141zM365 191q0 -14 -9.5 -23.5t-23.5 -9.5t-23.5 9.5t-9.5 23.5t9.5 23.5t23.5 9.5
t23.5 -9.5t9.5 -23.5zM504 582q0 -14 -9.5 -23.5t-23.5 -9.5t-23.5 9.5t-9.5 23.5t9.5 23.5t23.5 9.5t23.5 -9.5t9.5 -23.5z" />
    <glyph glyph-name="shindageshsindot" unicode="&#xfb2d;" horiz-adv-x="575" 
d="M531 360q1 -51 -8.5 -93.5t-27.5 -77.5q-17 -34 -46 -67t-70 -68q-79 -68 -166 -68q-45 0 -65 74l-37 137q-9 35 -16 59t-13 39q-5 14 -9 28t-9 28q-8 25 -15.5 42t-13.5 28l61 80q12 -21 20.5 -41t14.5 -40q5 -15 10.5 -37.5t11.5 -54.5l22 -117q45 23 67 50
q21 24 21 67q0 49 -17 103l70 70q19 -66 19 -113q0 -140 -149 -232l13 -58q4 -19 12 -27q7 -6 31 -6q40 0 94 32q26 16 48.5 34t40.5 38q34 39 36 99q0 43 -28 148l75 85q23 -92 23 -141zM365 191q0 -14 -9.5 -23.5t-23.5 -9.5t-23.5 9.5t-9.5 23.5t9.5 23.5t23.5 9.5
t23.5 -9.5t9.5 -23.5zM111 582q0 -14 -9.5 -23.5t-23.5 -9.5t-23.5 9.5t-9.5 23.5t9.5 23.5t23.5 9.5t23.5 -9.5t9.5 -23.5z" />
    <glyph glyph-name="alefpatah" unicode="&#xfb2e;" horiz-adv-x="550" 
d="M515 59l-42 -82q-11 12 -39 48q-59 73 -122.5 144t-133.5 143q-54 -71 -54 -138q0 -79 12 -85h61l-38 -89h-126l24 46v25q0 47 2.5 78t8.5 48q5 17 13 33.5t19 33.5t23.5 34.5t29.5 35.5l-120 92l51 66q48 -40 78.5 -67.5t47.5 -42.5q11 -11 39 -38.5t72 -72.5
q20 -21 31.5 -32.5l14.5 -14.5q37 56 37 94q0 31 -26 89l77 84q26 -51 26 -84q0 -80 -89 -208zM346 -158h-156v43h156v-43z" />
    <glyph glyph-name="alefqamats" unicode="&#xfb2f;" horiz-adv-x="550" 
d="M515 59l-42 -82q-11 12 -39 48q-59 73 -122.5 144t-133.5 143q-54 -71 -54 -138q0 -79 12 -85h61l-38 -89h-126l24 46v25q0 47 2.5 78t8.5 48q5 17 13 33.5t19 33.5t23.5 34.5t29.5 35.5l-120 92l51 66q48 -40 78.5 -67.5t47.5 -42.5q11 -11 39 -38.5t72 -72.5
q20 -21 31.5 -32.5l14.5 -14.5q37 56 37 94q0 31 -26 89l77 84q26 -51 26 -84q0 -80 -89 -208zM346 -158h-63l5 -49v-4t1 -4q0 -3 1 -4v-45h-44v45l2 12q2 8 2.5 20t2.5 29h-63v43h156v-43z" />
    <glyph glyph-name="alefmapiq" unicode="&#xfb30;" horiz-adv-x="550" 
d="M515 59l-42 -82q-11 12 -39 48q-59 73 -122.5 144t-133.5 143q-54 -71 -54 -138q0 -79 12 -85h61l-38 -89h-126l24 46v25q0 47 2.5 78t8.5 48q5 17 13 33.5t19 33.5t23.5 34.5t29.5 35.5l-120 92l51 66q48 -40 78.5 -67.5t47.5 -42.5q11 -11 39 -38.5t72 -72.5
q20 -21 31.5 -32.5l14.5 -14.5q37 56 37 94q0 31 -26 89l77 84q26 -51 26 -84q0 -80 -89 -208zM309 -137q0 -14 -9.5 -23.5t-23.5 -9.5t-23.5 9.5t-9.5 23.5t9.5 23.5t23.5 9.5t23.5 -9.5t9.5 -23.5z" />
    <glyph glyph-name="betdagesh" unicode="&#xfb31;" horiz-adv-x="464" 
d="M442 80l-62 -80h-359l56 80h233v238q0 39 -8 54q-10 16 -37 16h-244q40 59 98 127v-47h136q82 0 103 -29q22 -28 22 -92v-267h62zM201 238q0 -14 -9.5 -23.5t-23.5 -9.5t-23.5 9.5t-9.5 23.5t9.5 23.5t23.5 9.5t23.5 -9.5t9.5 -23.5z" />
    <glyph glyph-name="gimeldagesh" unicode="&#xfb32;" horiz-adv-x="313" 
d="M288 37l-39 -60l-28 149q-20 -46 -41 -70q-10 -11 -23 -20t-30 -17q-20 -9 -93 -42l37 103q27 8 48.5 18t37.5 20q33 21 52 72q-6 55 -17 90.5t-26 54.5q-13 15 -43 34.5t-81 42.5l53 79l84 -56q5 -3 10 -6.5t10 -6.5q41 -30 50 -97zM147 238q0 -14 -9.5 -23.5
t-23.5 -9.5t-23.5 9.5t-9.5 23.5t9.5 23.5t23.5 9.5t23.5 -9.5t9.5 -23.5z" />
    <glyph glyph-name="daletdagesh" unicode="&#xfb33;" horiz-adv-x="444" 
d="M428 468l-36 -80h-48v-342l-65 -69v411h-253q11 17 22.5 34.5t25.5 33.5l50 59v-47h173l47 47v-47h84zM184 238q0 -14 -9.5 -23.5t-23.5 -9.5t-23.5 9.5t-9.5 23.5t9.5 23.5t23.5 9.5t23.5 -9.5t9.5 -23.5z" />
    <glyph glyph-name="hedagesh" unicode="&#xfb34;" horiz-adv-x="522" 
d="M474 57l-70 -80v359q0 30 -9 41t-46 11h-315q14 21 26.5 39.5t26.5 34.5l45 53v-47h202q94 0 121 -34q19 -19 19 -95v-282zM151 46l-70 -69v257l70 70v-258zM308 238q0 -14 -9.5 -23.5t-23.5 -9.5t-23.5 9.5t-9.5 23.5t9.5 23.5t23.5 9.5t23.5 -9.5t9.5 -23.5z" />
    <glyph glyph-name="vavdagesh" unicode="&#xfb35;" horiz-adv-x="287" 
d="M250 42l-70 -65v314q0 30 -11 42q-10 13 -40 32l-89 56l61 80l107 -84q42 -33 42 -80v-295zM128 228q0 -14 -9.5 -23.5t-23.5 -9.5t-23.5 9.5t-9.5 23.5t9.5 23.5t23.5 9.5t23.5 -9.5t9.5 -23.5z" />
    <glyph glyph-name="zayindagesh" unicode="&#xfb36;" horiz-adv-x="306" 
d="M278 370l-33 -70l-75 55q-6 -21 -6 -42q0 -32 26 -103l50 -135l-47 -98l-67 211q-17 54 -17 93q0 23 6 38l10 20t17 31l-103 61l61 60q26 -14 49.5 -28t43.5 -28q9 -5 30 -21t55 -44zM92 340q0 -14 -9.5 -23.5t-23.5 -9.5t-23.5 9.5t-9.5 23.5t9.5 23.5t23.5 9.5
t23.5 -9.5t9.5 -23.5z" />
    <glyph glyph-name="tetdagesh" unicode="&#xfb38;" horiz-adv-x="550" 
d="M519 302q1 -80 -42 -156q-40 -71 -114 -112q-37 -20 -72 -29t-70 -10q-47 0 -61 7q-16 7 -34 82l-37 151q-14 55 -24 90t-19 51q-3 5 -6 10.5t-6 11.5l61 93q27 -48 44 -146q21 -118 34 -185t20 -85q16 -2 32 -3.5t33 -1.5q76 -1 137 49q59 50 59 146q0 126 -116 127
q-30 0 -63 -17q-17 -9 -28 -15.5t-16 -8.5l37 98q32 23 91 23q66 1 114 -48q46 -48 46 -122zM343 238q0 -14 -9.5 -23.5t-23.5 -9.5t-23.5 9.5t-9.5 23.5t9.5 23.5t23.5 9.5t23.5 -9.5t9.5 -23.5z" />
    <glyph glyph-name="yoddagesh" unicode="&#xfb39;" horiz-adv-x="286" 
d="M249 325q1 -29 -24 -74t-74 -106l-51 -19q8 15 17.5 31.5t21.5 36.5q21 35 32 60.5t13 42.5q0 22 -16 39q-7 10 -40.5 31t-93.5 55l61 79q107 -82 130 -110q24 -29 24 -66zM108 258q0 -14 -9.5 -23.5t-23.5 -9.5t-23.5 9.5t-9.5 23.5t9.5 23.5t23.5 9.5t23.5 -9.5
t9.5 -23.5z" />
    <glyph glyph-name="finalkafdagesh" unicode="&#xfb3a;" horiz-adv-x="444" 
d="M428 468l-36 -80h-48v-510l-65 -70v580h-253q8 13 19 29.5t28 36.5l51 61v-47h173l47 47v-47h84zM178 238q0 -14 -9.5 -23.5t-23.5 -9.5t-23.5 9.5t-9.5 23.5t9.5 23.5t23.5 9.5t23.5 -9.5t9.5 -23.5z" />
    <glyph glyph-name="kafdagesh" unicode="&#xfb3b;" horiz-adv-x="444" 
d="M423 281q0 -143 -113 -281h-277l56 80h229q38 65 38 151q2 157 -120 157h-190q17 26 42 57.5t57 69.5v-47h113q75 0 120 -50t45 -137zM208 238q0 -14 -9.5 -23.5t-23.5 -9.5t-23.5 9.5t-9.5 23.5t9.5 23.5t23.5 9.5t23.5 -9.5t9.5 -23.5z" />
    <glyph glyph-name="lameddagesh" unicode="&#xfb3c;" horiz-adv-x="418" 
d="M379 328q0 -120 -97 -216q-98 -95 -240 -135l48 103q91 15 157 68q68 54 68 146v34q0 33 -11 47q-11 13 -45 13h-196q-20 0 -20 21v30q0 112 -23 132l61 80q0 -3 4 -8q10 -19 10 -69v-106h150q70 0 90 -7q19 -4 33 -28q11 -24 11 -48v-57zM191 248q0 -14 -9.5 -23.5
t-23.5 -9.5t-23.5 9.5t-9.5 23.5t9.5 23.5t23.5 9.5t23.5 -9.5t9.5 -23.5z" />
    <glyph glyph-name="memdagesh" unicode="&#xfb3e;" horiz-adv-x="536" 
d="M498 164q0 -59 -19 -91l-44 -73h-267l57 80h220q2 15 3 29t1 28q1 113 -36 189q-35 72 -109 72q-76 0 -146 -181q-15 -39 -28 -84t-27 -96l-75 -60q10 32 19 63t18 61q42 132 42 170q1 35 -16 72.5t-49 77.5l56 85q19 -18 41 -77q21 -57 21 -137q16 66 64 128
q48 61 113 61q159 0 161 -317zM347 238q0 -14 -9.5 -23.5t-23.5 -9.5t-23.5 9.5t-9.5 23.5t9.5 23.5t23.5 9.5t23.5 -9.5t9.5 -23.5z" />
    <glyph glyph-name="nundagesh" unicode="&#xfb40;" horiz-adv-x="287" 
d="M245 93l-57 -93h-168l38 80h135q2 28 3.5 58t1.5 63q0 110 -22 135q-17 19 -47 40q-27 22 -71 45l51 80q56 -32 94 -69q37 -34 40 -51q1 -5 1.5 -13.5t0.5 -22.5v-252zM140 238q0 -14 -9.5 -23.5t-23.5 -9.5t-23.5 9.5t-9.5 23.5t9.5 23.5t23.5 9.5t23.5 -9.5t9.5 -23.5z
" />
    <glyph glyph-name="samekhdagesh" unicode="&#xfb41;" horiz-adv-x="548" 
d="M511 335q0 -100 -43 -177q-44 -81 -117 -126q-71 -44 -140 -46q-48 0 -69 60l-58 245l-9 42q-6 26 -17 33q-20 16 -42 22l103 127l9 -47h275q39 0 57 -6q18 -7 32 -27q19 -23 19 -100zM446 292q0 96 -72 96h-232l61 -294q6 -29 52 -29q84 -1 138 77q53 76 53 150z
M337 238q0 -14 -9.5 -23.5t-23.5 -9.5t-23.5 9.5t-9.5 23.5t9.5 23.5t23.5 9.5t23.5 -9.5t9.5 -23.5z" />
    <glyph glyph-name="finalpedagesh" unicode="&#xfb43;" horiz-adv-x="420" 
d="M376 -127l-55 -65v420q0 53 -17 84q-16 30 -69 59q-27 14 -51.5 24.5t-47.5 18.5q-41 -46 -41 -74q-1 -40 67 -78l-42 -65q-89 41 -89 113q0 60 123 189q27 -8 56 -20.5t60 -30.5q61 -35 84 -65q22 -29 22 -87v-423zM265 238q0 -14 -9.5 -23.5t-23.5 -9.5t-23.5 9.5
t-9.5 23.5t9.5 23.5t23.5 9.5t23.5 -9.5t9.5 -23.5z" />
    <glyph glyph-name="pedagesh" unicode="&#xfb44;" horiz-adv-x="435" 
d="M406 262q0 -85 -9 -166l-48 -96h-323l46 80h268q9 70 9 113q0 81 -7 102q-6 22 -27 40q-10 9 -28.5 20t-45.5 25q-22 11 -41 20t-36 14q-13 -3 -25 -28q-13 -23 -13 -50q0 -46 64 -74l-43 -65q-87 43 -87 114q0 34 45 96t83 92q25 -8 52 -20.5t57 -29.5q16 -9 32 -20.5
t33 -25.5q32 -27 38 -65q6 -35 6 -76zM294 238q0 -14 -9.5 -23.5t-23.5 -9.5t-23.5 9.5t-9.5 23.5t9.5 23.5t23.5 9.5t23.5 -9.5t9.5 -23.5z" />
    <glyph glyph-name="tsadidagesh" unicode="&#xfb46;" horiz-adv-x="470" 
d="M414 105q0 -21 -27 -63q-8 -12 -14.5 -20t-12.5 -13q-9 -9 -52 -9h-281l51 80h277q-16 26 -34.5 50.5t-42.5 46.5q-77 72 -131 132.5t-86 111.5l60 60q49 -105 181 -223q37 50 37 89q0 27 -27 65l65 69q34 -52 34 -108q0 -55 -82 -141q8 -9 15.5 -18t15.5 -20
q54 -66 54 -89zM198 168q0 -14 -9.5 -23.5t-23.5 -9.5t-23.5 9.5t-9.5 23.5t9.5 23.5t23.5 9.5t23.5 -9.5t9.5 -23.5z" />
    <glyph glyph-name="qofdagesh" unicode="&#xfb47;" horiz-adv-x="548" 
d="M502 319q0 -81 -68 -173q-67 -91 -221 -156l37 89q73 17 130 75q58 58 58 159v14q0 40 -16 50q-14 11 -41 11h-346q16 23 40.5 55t57.5 72v-47h235q80 0 107 -24t27 -107v-18zM165 -103l-51 -89l-38 416l61 104zM294 248q0 -14 -9.5 -23.5t-23.5 -9.5t-23.5 9.5
t-9.5 23.5t9.5 23.5t23.5 9.5t23.5 -9.5t9.5 -23.5z" />
    <glyph glyph-name="reshdagesh" unicode="&#xfb48;" horiz-adv-x="420" 
d="M396 57l-71 -80v294q0 69 -19 92q-20 25 -60 25h-206q28 42 52 74t46 53v-47h112q66 0 105 -41q41 -41 41 -113v-257zM204 238q0 -14 -9.5 -23.5t-23.5 -9.5t-23.5 9.5t-9.5 23.5t9.5 23.5t23.5 9.5t23.5 -9.5t9.5 -23.5z" />
    <glyph glyph-name="shindagesh" unicode="&#xfb49;" horiz-adv-x="575" 
d="M531 360q1 -51 -8.5 -93.5t-27.5 -77.5q-17 -34 -46 -67t-70 -68q-79 -68 -166 -68q-45 0 -65 74l-37 137q-9 35 -16 59t-13 39q-5 14 -9 28t-9 28q-8 25 -15.5 42t-13.5 28l61 80q12 -21 20.5 -41t14.5 -40q5 -15 10.5 -37.5t11.5 -54.5l22 -117q45 23 67 50
q21 24 21 67q0 49 -17 103l70 70q19 -66 19 -113q0 -140 -149 -232l13 -58q4 -19 12 -27q7 -6 31 -6q40 0 94 32q26 16 48.5 34t40.5 38q34 39 36 99q0 43 -28 148l75 85q23 -92 23 -141zM365 191q0 -14 -9.5 -23.5t-23.5 -9.5t-23.5 9.5t-9.5 23.5t9.5 23.5t23.5 9.5
t23.5 -9.5t9.5 -23.5z" />
    <glyph glyph-name="tavdages" unicode="&#xfb4a;" horiz-adv-x="548" 
d="M519 57l-64 -80v338q0 37 -11 55t-50 18h-168l14 -117q5 -42 7 -78t3 -67l-27 -126h-184l56 80h103q0 20 -1.5 43t-5.5 49q-4 27 -7 49t-5 40q-12 95 -18 127h-102q37 57 120 127l9 -47h183q70 0 108 -31q40 -31 40 -116v-264zM381 238q0 -14 -9.5 -23.5t-23.5 -9.5
t-23.5 9.5t-9.5 23.5t9.5 23.5t23.5 9.5t23.5 -9.5t9.5 -23.5z" />
    <glyph glyph-name="vavholam" unicode="&#xfb4b;" horiz-adv-x="287" 
d="M250 42l-70 -65v314q0 30 -11 42q-10 13 -40 32l-89 56l61 80l107 -84q42 -33 42 -80v-295zM200 582q0 -14 -9.5 -23.5t-23.5 -9.5t-23.5 9.5t-9.5 23.5t9.5 23.5t23.5 9.5t23.5 -9.5t9.5 -23.5z" />
    <glyph glyph-name="betrafe" unicode="&#xfb4c;" horiz-adv-x="464" 
d="M442 80l-62 -80h-359l56 80h233v238q0 39 -8 54q-10 16 -37 16h-244q40 59 98 127v-47h136q82 0 103 -29q22 -28 22 -92v-267h62zM330 555h-247v41h247v-41z" />
    <glyph glyph-name="kafrafe" unicode="&#xfb4d;" horiz-adv-x="444" 
d="M423 281q0 -143 -113 -281h-277l56 80h229q38 65 38 151q2 157 -120 157h-190q17 26 42 57.5t57 69.5v-47h113q75 0 120 -50t45 -137zM370 555h-247v41h247v-41z" />
    <glyph glyph-name="perafe" unicode="&#xfb4e;" horiz-adv-x="435" 
d="M406 262q0 -85 -9 -166l-48 -96h-323l46 80h268q9 70 9 113q0 81 -7 102q-6 22 -27 40q-10 9 -28.5 20t-45.5 25q-22 11 -41 20t-36 14q-13 -3 -25 -28q-13 -23 -13 -50q0 -46 64 -74l-43 -65q-87 43 -87 114q0 34 45 96t83 92q25 -8 52 -20.5t57 -29.5q16 -9 32 -20.5
t33 -25.5q32 -27 38 -65q6 -35 6 -76zM360 555h-247v41h247v-41z" />
    <glyph glyph-name="aleflamed" unicode="&#xfb4f;" horiz-adv-x="561" 
d="M526 59l-42 -82l-39 48q-57 71 -120.5 142.5t-135.5 144.5l-145 114v14q0 110 -24 131l61 80l4 -8q10 -19 10 -69v-82q39 -32 70.5 -59.5t55.5 -50.5q43 -41 111 -111l46 -47q37 55 37 94q0 29 -26 89l77 84q26 -52 26 -84q0 -80 -89 -208z" />
    <glyph glyph-name="uniFFFC" unicode="&#xfffc;" horiz-adv-x="1000" 
d="M1000 562h-49l-109 108v49h158v-157zM719 670h-157v49h157v-49zM1000 281h-49v157h49v-157zM870 298q0 -117 -103 -117q-42 0 -67 22l35 38q13 -12 32 -12q46 0 46 67v236h57v-234zM438 670h-157v49h157v-49zM1000 0h-158v49l109 109h49v-158zM695 289q0 -102 -134 -102
h-117v345h115q121 0 121 -91q0 -45 -43 -70q58 -22 58 -82zM158 670l-109 -108h-49v157h158v-49zM719 0h-157v49h157v-49zM417 359q0 -85 -40 -131.5t-115 -46.5t-114 46.5t-39 131.5t39 132t114 47t115 -47t40 -132zM49 281h-49v157h49v-157zM438 0h-157v49h157v-49zM158 0
h-158v158h49l109 -109v-49zM624 436q0 48 -80 48h-44v-94h50q74 0 74 46zM638 289q0 53 -83 53h-55v-108h61q77 0 77 55zM360 359q0 131 -98 131q-96 0 -96 -131q0 -130 96 -130q98 0 98 130zM263 233q-24 101 -91 126q67 27 91 126q22 -99 91 -126q-69 -26 -91 -126z" />
    <glyph glyph-name=".notdef.004" horiz-adv-x="0" 
 />
    <glyph glyph-name=".notdef.005" horiz-adv-x="0" 
 />
    <glyph glyph-name=".notdef.006" horiz-adv-x="0" 
 />
    <glyph glyph-name=".notdef.007" horiz-adv-x="0" 
 />
    <glyph glyph-name=".notdef.008" horiz-adv-x="0" 
 />
    <glyph glyph-name=".notdef.009" horiz-adv-x="0" 
 />
    <glyph glyph-name=".notdef.010" horiz-adv-x="0" 
 />
    <glyph glyph-name=".notdef.011" horiz-adv-x="0" 
 />
    <glyph glyph-name=".notdef.012" horiz-adv-x="0" 
 />
    <glyph glyph-name=".notdef.013" horiz-adv-x="0" 
 />
    <glyph glyph-name=".notdef.014" horiz-adv-x="0" 
 />
    <glyph glyph-name=".notdef.015" horiz-adv-x="0" 
 />
    <glyph glyph-name=".notdef.016" horiz-adv-x="0" 
 />
    <glyph glyph-name=".notdef.017" horiz-adv-x="0" 
 />
    <glyph glyph-name=".notdef.018" horiz-adv-x="0" 
 />
    <glyph glyph-name=".notdef.019" horiz-adv-x="0" 
 />
    <glyph glyph-name=".notdef.020" horiz-adv-x="0" 
 />
    <glyph glyph-name=".notdef.021" horiz-adv-x="0" 
 />
    <glyph glyph-name=".notdef.022" horiz-adv-x="0" 
 />
    <glyph glyph-name=".notdef.023" horiz-adv-x="0" 
 />
    <glyph glyph-name=".notdef.024" horiz-adv-x="0" 
 />
    <glyph glyph-name=".notdef.025" horiz-adv-x="0" 
 />
    <glyph glyph-name=".notdef.026" horiz-adv-x="0" 
 />
    <glyph glyph-name=".notdef.027" horiz-adv-x="0" 
 />
    <glyph glyph-name=".notdef.028" horiz-adv-x="0" 
 />
    <glyph glyph-name=".notdef.029" horiz-adv-x="0" 
 />
    <glyph glyph-name=".notdef.002" horiz-adv-x="0" 
 />
    <glyph glyph-name=".notdef.001" horiz-adv-x="0" 
 />
    <glyph glyph-name=".notdef.003" horiz-adv-x="0" 
 />
  </font>
</defs>
</svg>
